<?xml version="1.0" encoding="utf-8"?>
<!-- Generator: Adobe Illustrator 21.0.0, SVG Export Plug-In . SVG Version: 6.00 Build 0)  -->
<svg version="1.1" xmlns="http://www.w3.org/2000/svg" xmlns:xlink="http://www.w3.org/1999/xlink" x="0px" y="0px"
	 viewBox="0 0 1112 1662.6" style="enable-background:new 0 0 1112 1662.6;" xml:space="preserve">
<style type="text/css">
	.st0{fill:#0C4277;}
	.st1{fill:#115EAA;}
	.st2{fill:#283B56;}
	.st3{fill:#252C37;stroke:#FFFFFF;stroke-width:10;stroke-miterlimit:10;}
	.st4{fill:none;stroke:#FFFFFF;stroke-width:10;stroke-miterlimit:10;}
	.st5{fill:none;stroke:#FFFFFF;stroke-width:10;stroke-linecap:square;stroke-linejoin:round;stroke-miterlimit:10;}
	.st6{fill:#FFFFFF;stroke:#FFFFFF;stroke-width:10;stroke-miterlimit:10;}
	.st7{fill:none;stroke:#115EAA;stroke-width:10;stroke-miterlimit:10;}
	.st8{fill:#FFFFFF;}
	.st9{fill:none;stroke:#0C4277;stroke-width:10;stroke-miterlimit:10;}
</style>
<g id="Layer_2">
	<polygon class="st0" points="89.6,1479.3 100.3,273 137,269 137,234.3 180.3,221 183,172.3 719.6,88.9 955.1,232.9 955.1,273.4 
		995.6,292.9 995.6,316.9 1033.1,340.9 1033.1,418.9 1033.1,1443.3 1075.1,1456.8 1075.1,1489.8 782.6,1626.3 52.1,1539.3 
		52.1,1507.8 	"/>
	<g id="Layer_6">
		<polygon class="st1" points="760.1,1548.3 746.6,183.4 734.3,140.3 718.3,144.3 719.3,89 183,172.3 180.3,221 137,234.3 137,269 
			100.3,273 89.6,1479.3 52.1,1507.8 52.1,1539.3 782.6,1626.3 784,1625.7 		"/>
		<line class="st2" x1="801.7" y1="389" x2="805" y2="618.3"/>
	</g>
	<path class="st1" d="M538,117.1V49.3c0,0,45-58.4,96.5,0v52.8L538,117.1z"/>
	<line class="st3" x1="179" y1="216.3" x2="736" y2="141.3"/>
	<polyline class="st4" points="134,264.3 746.5,182.3 999,313.3 	"/>
	<line class="st3" x1="719.6" y1="88.9" x2="719.6" y2="143.3"/>
	<polyline class="st5" points="1033.5,1442.8 761,1550.3 746.5,182.3 735.8,141.3 955,267.3 	"/>
	<line class="st3" x1="419" y1="350.3" x2="425" y2="1514.3"/>
	<polyline class="st4" points="212,1215.3 212,1438.3 370.5,1454.8 	"/>
	<polyline class="st4" points="466.5,1240.3 466.5,1463.3 625,1479.8 	"/>
	<polyline class="st4" points="212,944.3 213,1167.3 375,1172.3 	"/>
	<polyline class="st4" points="463.5,950.3 464.5,1176.3 626.5,1181.3 	"/>
	<polyline class="st4" points="214,684.3 213,897.3 374,895.3 	"/>
	<polyline class="st4" points="463,681.3 462,894.3 633,891.8 	"/>
	<polygon class="st4" points="121.1,295.4 121.1,359.9 697.1,289.4 697.1,215.9 	"/>
	<polyline class="st4" points="679.1,318.4 173.6,379.9 169.1,1485.3 	"/>
	<polyline class="st4" points="782,886.6 863,895.3 861,681.3 	"/>
	<polyline class="st4" points="895.5,899 976.5,907.3 974.5,702.3 	"/>
	<polyline class="st4" points="788,1175.3 866,1166.6 863,951.3 	"/>
	<polyline class="st4" points="901.5,1163.3 979.5,1155.1 976.5,952.3 	"/>
	<polyline class="st4" points="907.5,1435.8 979,1410.3 977,1209.3 	"/>
	<polyline class="st4" points="798,1473.8 869.5,1448.3 867.5,1226.3 	"/>
	<polyline class="st4" points="84,1478.3 761,1550.3 783.5,1626.8 	"/>
	<path class="st4" d="M92.7,1434.6"/>
</g>
<g id="Layer_3">
	<g id="Layer_3_copy">
		<polygon class="st6" points="475.6,396.1 475,605.3 629,594.3 629,377.7 		"/>
		<g>
			<line class="st7" x1="525" y1="383.3" x2="525" y2="610.3"/>
			<line class="st7" x1="577" y1="374.3" x2="578" y2="607.3"/>
			<line class="st7" x1="464" y1="502.3" x2="636" y2="485.3"/>
		</g>
	</g>
	<g>
		<polygon class="st6" points="219.6,423.3 219,623.6 373,613.1 373,405.7 		"/>
		<g>
			<line class="st7" x1="271" y1="409.9" x2="271" y2="627.3"/>
			<line class="st7" x1="323" y1="401.3" x2="324" y2="624.4"/>
			<line class="st7" x1="210" y1="526.9" x2="382" y2="510.6"/>
		</g>
	</g>
</g>
<g id="Layer_5">
	<path class="st8" d="M259.2,295.4l4.3-0.5l0,29.7l-4.3,0.5l0-13.1l-12.2,1.5l-0.1,13.1l-4.3,0.5l0.1-29.5l4.2-0.5l0,12.7l12.2-1.5
		L259.2,295.4z"/>
	<path class="st8" d="M287.1,321.8l-2-5.9l-11.1,1.3l-1.9,6.3l-4.5,0.5l9.4-31l5-0.6l9.7,28.8L287.1,321.8z M275.2,313.3l8.8-1
		l-4.4-13.5L275.2,313.3z"/>
	<path class="st8" d="M298.4,316.4c-2.7-2.6-4-6.1-4.1-10.5c0-4.4,1.3-8.3,3.9-11.5c2.6-3.2,5.9-5.1,9.7-5.6
		c2.9-0.4,5.5,0.1,7.7,1.4c2.3,1.3,3.9,3.3,5,6.1l-5.4,0.7c-1.5-2.8-3.9-4.1-7.3-3.6c-2.7,0.3-4.9,1.6-6.6,3.8
		c-1.7,2.2-2.5,4.9-2.5,8.2c0,3.3,0.9,5.8,2.7,7.6c1.7,1.8,4,2.5,6.7,2.2c3.4-0.4,5.8-2.2,7.2-5.4l5.4-0.6c-1,3-2.6,5.5-4.9,7.3
		c-2.2,1.8-4.8,2.9-7.7,3.3C304.4,320.1,301.1,319,298.4,316.4z"/>
	<path class="st8" d="M330.8,316.8l-4.5,0.5l-0.5-30.3l4.5-0.6l0.2,13.8L341,285l5.9-0.8l-12.2,16.8l12.9,13.7l-6,0.7l-11-12.4
		L330.8,316.8z"/>
	<g>
		<path class="st8" d="M390.9,303.7l-0.1-2.3c0.4-0.4,1-1.1,1.8-1.9c0.8-0.8,1.4-1.5,1.8-2c0.4-0.5,0.9-1.1,1.5-1.8
			c0.6-0.7,1.1-1.3,1.4-1.9c0.3-0.5,0.7-1.1,1-1.7c0.7-1.1,1-2.3,0.9-3.3c-0.1-2.3-1.1-3.3-3.1-3c-1,0.1-1.7,0.6-2.3,1.3
			c-0.5,0.8-0.8,1.7-0.8,2.9l-2.7,0.3c0-2.1,0.5-3.7,1.6-5c1.1-1.2,2.5-2,4.2-2.2c1.8-0.2,3.2,0.1,4.3,1.1c1.1,0.9,1.6,2.3,1.7,4.1
			c0,1.3-0.2,2.7-0.9,4c-0.3,0.7-0.7,1.3-1,1.8c-0.3,0.5-0.7,1.1-1.3,1.8c-0.6,0.7-1,1.2-1.3,1.6c-0.3,0.4-0.8,0.9-1.4,1.6
			c-0.6,0.7-1.1,1.2-1.3,1.4l8-0.9l0.1,2.6L390.9,303.7z"/>
		<path class="st8" d="M408.5,282.5c0.9-0.6,2-1,3.2-1.2c1.3-0.2,2.4-0.1,3.3,0.3c0.9,0.4,1.7,1,2.2,1.9c0.5,0.9,0.9,1.9,1.2,3
			c0.3,1.1,0.4,2.5,0.5,4c0.1,1.5,0,2.9-0.2,4.1c-0.2,1.2-0.5,2.3-1,3.3c-0.5,1-1.1,1.8-2,2.5c-0.9,0.6-2,1-3.3,1.1
			c-1.3,0.1-2.4,0-3.3-0.4c-0.9-0.4-1.6-1.1-2.2-2c-0.5-0.9-0.9-1.9-1.2-3c-0.3-1.1-0.4-2.4-0.5-3.9c-0.1-1.5,0-2.8,0.2-4
			c0.2-1.2,0.5-2.3,0.9-3.3C407,283.9,407.7,283.1,408.5,282.5z M411.9,284.1c-0.8,0.1-1.5,0.4-2,0.8c-0.5,0.4-0.9,1.1-1.1,1.8
			c-0.4,1.3-0.5,3-0.4,5c0.1,2,0.3,3.7,0.8,4.9c0.5,1.4,1.6,2.1,3.3,1.9c1.7-0.2,2.7-1.1,3.2-2.6c0.4-1.3,0.5-3,0.4-5.1
			c-0.1-2-0.3-3.7-0.8-4.9C414.6,284.5,413.5,283.9,411.9,284.1z"/>
		<path class="st8" d="M424.6,300.2l-0.7-17.1l-2.5,0.3l-0.1-2.9l5.5-0.7l0.8,20L424.6,300.2z"/>
		<path class="st8" d="M430.5,278.9l13.1-1.7l0.1,2.4l-6.8,19.2l-3.4,0.4l7.2-18.9l-10,1.3L430.5,278.9z"/>
	</g>
	<path class="st8" d="M522,259.8l1.9,32.3l-5.2,0.6l-1.3-22.2l-8.3,23.3l-3.6,0.4l-10.7-20.9l1.2,22l-5.1,0.6l-1.6-32l5.5-0.7
		l12.3,23.9l9.5-26.5L522,259.8z"/>
	<path class="st8" d="M530.8,291.3l-2-32.4l5.2-0.6l2,32.5L530.8,291.3z"/>
	<path class="st8" d="M539.5,261.8l-0.3-4.1l22.4-2.8l0.3,4.2l-8.6,1l1.9,28.5l-5.3,0.6l-1.9-28.5L539.5,261.8z"/>
</g>
<g id="Layer_7">
	<polygon class="st8" points="230,696.3 229,876.3 358,874.3 358,691.3 	"/>
</g>
<g id="Layer_8">
	<polygon class="st8" points="779,382.3 780.3,595.6 856.3,621.6 853,417 	"/>
	<polygon class="st8" points="898.7,435.3 900,635.5 976,659.9 972.7,467.8 	"/>
</g>
<g id="Layer_9">
	<g>
		<line class="st9" x1="801" y1="383.6" x2="803.7" y2="613.6"/>
		<line class="st9" x1="828.3" y1="401.6" x2="831" y2="631.6"/>
		<line class="st9" x1="773" y1="489" x2="861.7" y2="521"/>
	</g>
	<g>
		<line class="st9" x1="920.7" y1="436.5" x2="923.3" y2="652.4"/>
		<line class="st9" x1="948" y1="453.4" x2="950.7" y2="669.3"/>
		<line class="st9" x1="892.7" y1="535.4" x2="981.3" y2="565.4"/>
	</g>
</g>
<g id="Layer_10">
	<path class="st8" d="M553,114.8V60.3c0,0,15.4-30,33-12v61L553,114.8z"/>
	<path class="st8" d="M604,106.8V53.3c0,0,2.4-13,14.6,2c0,0,2.4,1,2.4,13s0,36,0,36L604,106.8z"/>
</g>
<g id="Layer_11">
	<polygon class="st4" points="784,230.3 1016,354.3 1016,414.3 784,301.3 	"/>
</g>
<g id="Layer_12">
	<path class="st8" d="M839.6,278.8l1.7,0.9l-0.2,27.1l-1.7-0.9l0.1-12l-5-2.6l-0.1,12l-1.7-0.9l0.2-27.1l1.7,0.9l-0.1,11.7l5,2.6
		L839.6,278.8z"/>
	<path class="st8" d="M850.6,311.7l-0.7-6l-4.4-2.3l-0.8,5.2l-1.8-0.9l4-25.2l2,1l3.6,29.2L850.6,311.7z M846,300.2l3.5,1.8
		l-1.7-13.7L846,300.2z"/>
	<path class="st8" d="M855.1,310.4c-1-3.2-1.5-6.8-1.5-10.8c0-4,0.6-7.1,1.6-9.2c1.1-2.1,2.4-2.7,3.9-1.9c1.1,0.6,2.1,1.8,3,3.7
		c0.9,1.9,1.5,4.2,1.9,7.1l-2.1-1.1c-0.6-3-1.5-4.9-2.8-5.6c-1.1-0.6-1.9-0.1-2.6,1.3c-0.7,1.4-1,3.7-1.1,6.6c0,3,0.3,5.5,1,7.7
		c0.7,2.2,1.5,3.5,2.6,4.1c1.3,0.7,2.3-0.2,2.9-2.6l2.1,1.1c-0.4,2.4-1.1,4.1-2,5c-0.9,0.9-1.9,1.1-3,0.5
		C857.4,315.5,856.1,313.6,855.1,310.4z"/>
	<path class="st8" d="M867.6,320.7l-1.7-0.9l0.2-27.2l1.7,0.9l-0.1,12.4l4.2-10.3l2.3,1.2l-4.9,11.2L874,324l-2.3-1.2l-4-14.4
		L867.6,320.7z"/>
	<g>
		<path class="st8" d="M882.3,308.5l0-2.3l4.8,2.5l0,2.3l-1.8-1l-0.1,15.3l-1.1-0.6l0.1-15.3L882.3,308.5z"/>
		<path class="st8" d="M891.3,328.8c-1-0.5-1.8-1.8-2.5-3.9c-0.7-2.1-1-4.4-1-7c0-2.6,0.4-4.6,1.1-5.9c0.7-1.3,1.5-1.8,2.5-1.2
			c1,0.5,1.8,1.8,2.5,3.8c0.7,2.1,1,4.4,1,7c0,2.6-0.4,4.6-1.1,5.9C893.1,328.9,892.3,329.3,891.3,328.8z M891.3,326.2
			c0.7,0.4,1.3,0.1,1.7-0.9c0.4-0.9,0.7-2.4,0.7-4.3c0-1.9-0.2-3.6-0.6-5c-0.4-1.4-1-2.3-1.7-2.6c-0.7-0.4-1.3-0.1-1.7,0.9
			c-0.4,0.9-0.7,2.4-0.7,4.3c0,1.9,0.2,3.6,0.6,5C890,325,890.6,325.8,891.3,326.2z"/>
		<path class="st8" d="M898.6,317.1l0-2.3l4.8,2.5l0,2.3l-1.8-1l-0.1,15.4l-1.1-0.6l0.1-15.4L898.6,317.1z"/>
		<path class="st8" d="M909,320.2l1.1,0.6l-0.1,17.7l-1.1-0.6l0-7.8l-3.3-1.7l0,7.8l-1.1-0.6l0.1-17.6l1.1,0.6l0,7.6l3.3,1.7
			L909,320.2z"/>
		<path class="st8" d="M915.5,323.6l0,2.3l-2.7-1.4l0,5.4l2.4,1.3l0,2.2l-2.4-1.3l0,5.6l2.7,1.4l0,2.3l-3.8-2l0.1-17.7L915.5,323.6z
			"/>
	</g>
	<path class="st8" d="M924.6,350.6l0.1-27.5l6.4,3.3l0,3.5l-4.6-2.4l0,8.3l3.6,1.9l0,3.5l-3.6-1.9l-0.1,12.1L924.6,350.6z"/>
	<path class="st8" d="M932.7,344.7l0.1-17.5l1.8,0.9l-0.1,17.5c0,2.1,0.2,3.8,0.6,5.1c0.4,1.3,1,2.1,1.8,2.5
		c0.8,0.4,1.4,0.2,1.8-0.6c0.4-0.8,0.7-2.3,0.7-4.4l0.1-17.5l1.8,0.9l-0.1,17.5c0,3.3-0.4,5.7-1.3,7c-0.8,1.4-1.8,1.7-3.1,1.1
		c-1.2-0.6-2.2-2-3-4.2C933,350.8,932.7,348.1,932.7,344.7z"/>
	<path class="st8" d="M943,336.1l0-3.5l7.6,3.9l0,3.5l-2.9-1.5l-0.1,24l-1.8-0.9l0.1-24L943,336.1z"/>
	<path class="st8" d="M952.2,354.9l0.1-17.5l1.8,0.9l-0.1,17.5c0,2.1,0.2,3.8,0.6,5.1c0.4,1.3,1,2.1,1.8,2.5
		c0.8,0.4,1.4,0.2,1.8-0.6c0.4-0.8,0.7-2.3,0.7-4.4l0.1-17.5l1.8,0.9l-0.1,17.5c0,3.3-0.4,5.7-1.3,7c-0.8,1.4-1.9,1.7-3.1,1.1
		c-1.2-0.6-2.2-2.1-3-4.2C952.6,361.1,952.2,358.3,952.2,354.9z"/>
	<path class="st8" d="M964.9,360.4l-0.1,11.2l-1.8-0.9l0.1-27.6l3.8,2c1.2,0.6,2.2,1.9,2.9,3.8c0.7,1.9,1,4,1,6.4
		c0,1.9-0.2,3.4-0.7,4.7c-0.5,1.3-1.1,1.9-2.1,1.8l2.8,13l-2.2-1.1L966,361L964.9,360.4z M964.9,347.5l0,9.3l2,1
		c0.7,0.4,1.2,0.2,1.5-0.4c0.3-0.6,0.5-1.7,0.5-3.2c0-1.5-0.2-2.7-0.5-3.7c-0.3-1-0.8-1.7-1.5-2L964.9,347.5z"/>
	<path class="st8" d="M979.1,351.4l0,3.5l-4.3-2.2l0,8.4l3.8,2l0,3.5l-3.8-2l0,8.7l4.3,2.2l0,3.5l-6.1-3.2l0.1-27.7L979.1,351.4z"/>
</g>
</svg>
