<?xml version="1.0" encoding="utf-8"?>
<!-- Generator: Adobe Illustrator 21.0.0, SVG Export Plug-In . SVG Version: 6.00 Build 0)  -->
<svg version="1.1" id="Layer_2" xmlns="http://www.w3.org/2000/svg" xmlns:xlink="http://www.w3.org/1999/xlink" x="0px" y="0px"
	 viewBox="0 0 1000 1000" style="enable-background:new 0 0 1000 1000;" xml:space="preserve">
<style type="text/css">
	.st0{fill:#BD852C;}
	.st1{fill:#FFFFFF;}
	.st2{fill:#966427;}
	.st3{fill:#ECBF48;}
</style>
<circle class="st0" cx="500" cy="500" r="404.5"/>
<circle class="st1" cx="500" cy="500" r="376.2"/>
<circle class="st0" cx="500" cy="500" r="358.5"/>
<circle class="st1" cx="500" cy="500" r="334.3"/>
<circle class="st0" cx="500" cy="500" r="316.8"/>
<circle class="st2" cx="500" cy="500" r="304.8"/>
<g>
	<circle class="st1" cx="177.4" cy="479" r="12.2"/>
	<circle class="st1" cx="172.4" cy="479" r="12.2"/>
</g>
<g>
	<circle class="st1" cx="827" cy="479" r="12.2"/>
	<circle class="st1" cx="822" cy="479" r="12.2"/>
</g>
<g>
	<circle class="st1" cx="500" cy="129.9" r="13.9"/>
	<circle class="st1" cx="500" cy="133.9" r="13.9"/>
</g>
<g>
	<circle class="st1" cx="500" cy="866.1" r="13.9"/>
	<circle class="st1" cx="500" cy="870.1" r="13.9"/>
</g>
<ellipse class="st1" cx="912" cy="479" rx="15.4" ry="25.1"/>
<ellipse class="st1" cx="88" cy="479" rx="15.4" ry="25.1"/>
<ellipse class="st0" cx="87.7" cy="479" rx="13.7" ry="20.7"/>
<ellipse class="st0" cx="912.3" cy="479" rx="13.7" ry="20.7"/>
<circle class="st0" cx="176.7" cy="479" r="11"/>
<circle class="st0" cx="500" cy="134.1" r="11.7"/>
<circle class="st0" cx="500" cy="865.9" r="11.7"/>
<circle class="st0" cx="822.7" cy="479" r="11"/>
<g>
	<path class="st0" d="M69.9,479c0,0-0.1-8.9,2.7-13.8c0,0-17.3-17-33.2-23.7S8.6,479,8.6,479H69.9z"/>
	<path class="st0" d="M69.9,479c0,0-0.1,8.9,2.7,13.8c0,0-17.3,17-33.2,23.7C23.7,523.2,8.6,479,8.6,479H69.9z"/>
</g>
<g>
	<path class="st0" d="M930.1,479c0,0,0.1,8.9-2.7,13.8c0,0,17.3,17,33.2,23.7c15.8,6.7,30.8-37.5,30.8-37.5H930.1z"/>
	<path class="st0" d="M930.1,479c0,0,0.1-8.9-2.7-13.8c0,0,17.3-17,33.2-23.7c15.8-6.7,30.8,37.5,30.8,37.5H930.1z"/>
</g>
<g>
	<polygon class="st1" points="413.8,315.2 413.8,372 399.6,372 399.6,315.2 321.4,315.2 321.4,485.8 399.6,485.8 399.6,428.9 
		413.8,428.9 413.8,485.8 492,485.8 492,315.2 	"/>
	<polygon class="st1" points="511.8,485.8 597.9,313.6 684,485.8 	"/>
	<polygon class="st1" points="512.7,679.3 512.7,508.7 683.3,508.7 633.5,594 683.3,679.3 	"/>
	<path class="st1" d="M460.1,594l29.3-43.8c-20.7-37-52.6-47.2-82.2-47.2c-50.3,0-91.1,41.4-91.1,91.9c0,50.5,40.8,91.4,91.1,91.4
		c31.1,0,57.1-8.5,82.2-43.1L460.1,594z"/>
</g>
<g id="sand">
	<path class="st3" d="M404.8,598.1l17,0.5c19.8,0.6,38,10.9,48.4,27.5l1.9,3c4.6,7.5,3.5,17.1-2.6,23.4c-18.1,19-37.2,24.9-59,25.6
		c-37.2,1.1-70-21.8-81.1-54.5c-4-11.7,4.7-23.8,17.3-24.1l57.2-1.3C404.2,598.1,404.5,598.1,404.8,598.1z"/>
	<path class="st3" d="M556.4,419.9l41.5-83l41.5,83c2.9,5.8-1.3,12.5-7.7,12.5h-67.5C557.7,432.4,553.5,425.7,556.4,419.9z"/>
	<g>
		<polygon class="st3" points="388.9,589.7 390.8,596.1 397.2,598.1 390.8,600.1 388.9,606.4 386.9,600.1 380.5,598.1 386.9,596.1 
					"/>
		<polygon class="st3" points="398.4,581.4 400.4,587.8 406.7,589.7 400.4,591.7 398.4,598.1 396.4,591.7 390,589.7 396.4,587.8 		
			"/>
		<polygon class="st3" points="409,575.6 411,581.9 417.3,583.9 411,585.9 409,592.2 407,585.9 400.7,583.9 407,581.9 		"/>
		<polygon class="st3" points="404.7,563.5 406.7,569.9 413.1,571.8 406.7,573.8 404.7,580.2 402.8,573.8 396.4,571.8 402.8,569.9 
					"/>
		<polygon class="st3" points="398.4,549.8 400.4,556.2 406.7,558.1 400.4,560.1 398.4,566.5 396.4,560.1 390,558.1 396.4,556.2 		
			"/>
		<polygon class="st3" points="402.7,538.6 404.6,545 411,546.9 404.6,548.9 402.7,555.3 400.7,548.9 394.3,546.9 400.7,545 		"/>
		<polygon class="st3" points="414.1,533.1 416,539.5 422.4,541.4 416,543.4 414.1,549.8 412.1,543.4 405.7,541.4 412.1,539.5 		"/>
		<polygon class="st3" points="592,426.3 593.9,432.6 600.3,434.6 593.9,436.6 592,442.9 590,436.6 583.6,434.6 590,432.6 		"/>
		<polygon class="st3" points="602.1,431.1 604.1,437.5 610.5,439.5 604.1,441.4 602.1,447.8 600.2,441.4 593.8,439.5 600.2,437.5 
					"/>
		<polygon class="st3" points="593.8,442.9 595.8,449.3 602.1,451.3 595.8,453.3 593.8,459.6 591.8,453.3 585.4,451.3 591.8,449.3 
					"/>
		<polygon class="st3" points="588.9,453.5 590.9,459.8 597.3,461.8 590.9,463.8 588.9,470.2 587,463.8 580.6,461.8 587,459.8 		"/>
		<polygon class="st3" points="600.3,461.3 602.3,467.6 608.6,469.6 602.3,471.6 600.3,478 598.3,471.6 592,469.6 598.3,467.6 		"/>
		<polygon class="st3" points="610.5,466.2 612.4,472.6 618.8,474.5 612.4,476.5 610.5,482.9 608.5,476.5 602.1,474.5 608.5,472.6 
					"/>
	</g>
</g>
<g id="stars">
	<polygon class="st1" points="542.7,243 549.6,266.4 571,254.7 559.4,276.1 582.7,283 559.4,289.9 571,311.3 549.6,299.6 542.7,323 
		535.9,299.6 514.5,311.3 526.1,289.9 502.7,283 526.1,276.1 514.5,254.7 535.9,266.4 	"/>
	<polygon class="st1" points="271,473.7 277.9,497.1 299.3,485.4 287.7,506.8 311,513.7 287.7,520.6 299.3,542 277.9,530.3 
		271,553.7 264.2,530.3 242.8,542 254.4,520.6 231,513.7 254.4,506.8 242.8,485.4 264.2,497.1 	"/>
	<polygon class="st1" points="259.3,572.2 261.3,579 267.6,575.6 264.2,581.9 271,583.9 264.2,585.9 267.6,592.2 261.3,588.8 
		259.3,595.6 257.3,588.8 251,592.2 254.4,585.9 247.6,583.9 254.4,581.9 251,575.6 257.3,579 	"/>
	<polygon class="st1" points="388.9,264.5 390.9,271.3 397.1,267.9 393.7,274.2 400.6,276.2 393.7,278.2 397.1,284.5 390.9,281.1 
		388.9,288 386.8,281.1 380.6,284.5 384,278.2 377.1,276.2 384,274.2 380.6,267.9 386.8,271.3 	"/>
	<polygon class="st1" points="531,347.9 533,354.8 539.3,351.4 535.9,357.7 542.7,359.7 535.9,361.7 539.3,368 533,364.6 531,371.4 
		529,364.6 522.7,368 526.1,361.7 519.3,359.7 526.1,357.7 522.7,351.4 529,354.8 	"/>
	<polygon class="st1" points="725,367.9 727.1,374.8 733.3,371.4 729.9,377.7 736.8,379.7 729.9,381.7 733.3,388 727.1,384.6 
		725,391.4 723,384.6 716.7,388 720.2,381.7 713.3,379.7 720.2,377.7 716.7,371.4 723,374.8 	"/>
	<polygon class="st1" points="753.3,526.9 755.3,533.7 761.6,530.3 758.2,536.6 765,538.6 758.2,540.6 761.6,546.9 755.3,543.5 
		753.3,550.3 751.3,543.5 745,546.9 748.4,540.6 741.6,538.6 748.4,536.6 745,530.3 751.3,533.7 	"/>
	<polygon class="st1" points="673.3,700.3 675.3,707.2 681.6,703.7 678.2,710 685,712 678.2,714.1 681.6,720.3 675.3,716.9 
		673.3,723.8 671.3,716.9 665,720.3 668.4,714.1 661.6,712 668.4,710 665,703.7 671.3,707.2 	"/>
	<polygon class="st1" points="323.4,680.3 325.5,687.2 331.7,683.7 328.3,690 335.2,692 328.3,694.1 331.7,700.3 325.5,696.9 
		323.4,703.8 321.4,696.9 315.1,700.3 318.6,694.1 311.7,692 318.6,690 315.1,683.7 321.4,687.2 	"/>
	<polygon class="st1" points="473.9,692 480.8,715.4 502.2,703.8 490.6,725.2 513.9,732 490.6,738.9 502.2,760.3 480.8,748.7 
		473.9,772 467,748.7 445.7,760.3 457.3,738.9 433.9,732 457.3,725.2 445.7,703.8 467,715.4 	"/>
	<polygon class="st1" points="713.3,554.7 720.2,578.1 741.6,566.4 729.9,587.8 753.3,594.7 729.9,601.6 741.6,623 720.2,611.3 
		713.3,634.7 706.4,611.3 685,623 696.7,601.6 673.3,594.7 696.7,587.8 685,566.4 706.4,578.1 	"/>
	<polygon class="st1" points="279,359.7 283,372.8 296.3,369.7 287,379.7 296.3,389.7 283,386.6 279,399.7 275,386.6 261.7,389.7 
		271,379.7 261.7,369.7 275,372.8 	"/>
	<polygon class="st1" points="439.7,223 443.7,236.1 457.1,233 447.7,243 457.1,253 443.7,249.9 439.7,263 435.7,249.9 422.4,253 
		431.7,243 422.4,233 435.7,236.1 	"/>
	<polygon class="st1" points="618.8,712 622.8,725.1 636.1,722 626.8,732 636.1,742 622.8,739 618.8,752 614.8,739 601.5,742 
		610.8,732 601.5,722 614.8,725.1 	"/>
	<polygon class="st1" points="666,316.9 670,330 683.3,326.9 674,336.9 683.3,346.9 670,343.9 666,356.9 662,343.9 648.6,346.9 
		658,336.9 648.6,326.9 662,330 	"/>
	<polygon class="st1" points="379.1,697 383.1,710.1 396.4,707 387.1,717 396.4,727 383.1,724 379.1,737 375.1,724 361.8,727 
		371.1,717 361.8,707 375.1,710.1 	"/>
	<polygon class="st1" points="725,432.5 727,438.9 733.4,440.8 727,442.8 725,449.2 723.1,442.8 716.7,440.8 723.1,438.9 	"/>
	<polygon class="st1" points="716.7,650.5 718.7,656.9 725,658.9 718.7,660.8 716.7,667.2 714.7,660.8 708.4,658.9 714.7,656.9 	"/>
	<polygon class="st1" points="291.1,606.4 293.1,612.8 299.4,614.8 293.1,616.7 291.1,623.1 289.1,616.7 282.7,614.8 289.1,612.8 	
		"/>
	<polygon class="st1" points="557.7,708.7 559.7,715.1 566.1,717 559.7,719 557.7,725.4 555.8,719 549.4,717 555.8,715.1 	"/>
	<polygon class="st1" points="627.8,267.9 629.8,274.3 636.1,276.2 629.8,278.2 627.8,284.6 625.8,278.2 619.5,276.2 625.8,274.3 	
		"/>
	<polygon class="st1" points="319.4,283 321.4,289.4 327.7,291.3 321.4,293.3 319.4,299.7 317.4,293.3 311,291.3 317.4,289.4 	"/>
	<polygon class="st1" points="745.1,463 747.8,471.8 756.6,474.5 747.8,477.2 745.1,486 742.4,477.2 733.6,474.5 742.4,471.8 	"/>
</g>
</svg>
