<?xml version="1.0" encoding="utf-8"?>
<!-- Generator: Adobe Illustrator 21.0.0, SVG Export Plug-In . SVG Version: 6.00 Build 0)  -->
<svg version="1.1" id="logo" xmlns="http://www.w3.org/2000/svg" xmlns:xlink="http://www.w3.org/1999/xlink" x="0px" y="0px"
	 viewBox="0 0 1000 1000" style="enable-background:new 0 0 1000 1000;" xml:space="preserve">
<style type="text/css">
	.st0{fill:#252C37;}
	.st1{fill:#74D1EA;}
	.st2{fill:#FF585D;}
	.st3{fill:#FFFFFF;}
</style>
<g>
	<polygon class="st0" points="505.9,917.9 505.9,518.1 948.8,518.1 832.2,718 948.8,917.9 	"/>
	<polygon class="st0" points="906.7,533.1 890.7,533.1 552.9,533.1 536.9,533.1 520.9,533.1 520.9,902.9 536.9,902.9 552.9,902.9 
		890.7,902.9 906.7,902.9 922.7,902.9 814.8,718 922.7,533.1 	"/>
	<path class="st0" d="M295.7,933.4c-2,0-4.2,0-6.7-0.1c-3,0.1-6.2,0.1-9.3,0.1c-2,0-4.2,0-6.7-0.1c-3,0.1-6.2,0.1-9.3,0.1
		c-117.2,0-212.5-95.7-212.5-213.2c0-118.2,95.3-214.3,212.5-214.3c3,0,5.9,0,8.8,0.1c2.7-0.1,5-0.1,7.2-0.1c3,0,5.9,0,8.8,0.1
		c2.7-0.1,5-0.1,7.2-0.1c38.4,0,73.1,7.6,103,22.6c36.4,18.3,66.1,47.6,88.3,87.3l4.5,8l-63.3,94.8l63.7,107.3l-5.8,8
		c-27.3,37.7-56.7,63.8-89.8,79.5C367.5,927,335.6,933.4,295.7,933.4z"/>
	<path class="st0" d="M295.7,520.8c-2.4,0-4.8,0.1-7.1,0.1c-3-0.1-5.9-0.1-8.9-0.1c-2.4,0-4.8,0.1-7.1,0.1c-3-0.1-5.9-0.1-8.9-0.1
		c-109.1,0-197.5,89.8-197.5,199.3c0,109.5,88.4,198.2,197.5,198.2c3.1,0,6.3,0,9.4-0.1c2.2,0.1,4.4,0.1,6.6,0.1
		c3.1,0,6.3,0,9.4-0.1c2.2,0.1,4.4,0.1,6.6,0.1c67.4,0,123.9-18.4,178.1-93.3l-63.5-107l63.5-95
		C428.9,542.8,359.8,520.8,295.7,520.8z"/>
	<rect x="62.9" y="88.6" class="st0" width="431.8" height="399.8"/>
	<polygon class="st0" points="447.7,103.6 310.2,103.6 294.2,103.6 279.4,103.6 278.2,103.6 263.4,103.6 247.4,103.6 109.9,103.6 
		93.9,103.6 77.9,103.6 77.9,473.4 93.9,473.4 109.9,473.4 247.4,473.4 263.4,473.4 278.2,473.4 279.4,473.4 294.2,473.4 
		310.2,473.4 447.7,473.4 463.7,473.4 479.7,473.4 479.7,103.6 463.7,103.6 	"/>
	<polygon class="st0" points="494.7,488.4 705.6,66.6 713.6,82.6 721.6,66.6 729.6,82.6 737.6,66.6 948.5,488.4 	"/>
	<polygon class="st0" points="551,473.4 892.2,473.4 908.2,473.4 924.2,473.4 737.6,100.2 729.6,116.2 721.6,100.2 713.6,116.2 
		705.6,100.2 519,473.4 535,473.4 	"/>
	<polygon class="st1" points="310.2,103.6 310.2,226.9 279.4,226.9 279.4,103.6 109.9,103.6 109.9,473.4 279.4,473.4 279.4,350.1 
		310.2,350.1 310.2,473.4 479.7,473.4 479.7,103.6 	"/>
	<polygon class="st1" points="551,473.4 737.6,100.2 924.2,473.4 	"/>
	<polygon class="st1" points="552.9,902.9 552.9,533.1 922.7,533.1 814.8,718 922.7,902.9 	"/>
	<path class="st1" d="M410.4,718l63.5-95c-44.9-80.3-114.1-102.2-178.1-102.2c-109.1,0-197.5,89.8-197.5,199.3
		c0,109.5,88.4,198.2,197.5,198.2c67.4,0,123.9-18.4,178.1-93.3L410.4,718z"/>
	<polygon class="st2" points="278.2,103.6 278.2,226.9 247.4,226.9 247.4,103.6 77.9,103.6 77.9,473.4 247.4,473.4 247.4,350.1 
		278.2,350.1 278.2,473.4 447.7,473.4 447.7,103.6 	"/>
	<polygon class="st2" points="519,473.4 705.6,100.2 892.2,473.4 	"/>
	<polygon class="st2" points="520.9,902.9 520.9,533.1 890.7,533.1 782.8,718 890.7,902.9 	"/>
	<path class="st2" d="M378.4,718l63.5-95c-44.9-80.3-114.1-102.2-178.1-102.2c-109.1,0-197.5,89.8-197.5,199.3
		c0,109.5,88.4,198.2,197.5,198.2c67.4,0,123.9-18.4,178.1-93.3L378.4,718z"/>
	<polygon class="st3" points="294.2,103.6 294.2,226.9 263.4,226.9 263.4,103.6 93.9,103.6 93.9,473.4 263.4,473.4 263.4,350.1 
		294.2,350.1 294.2,473.4 463.7,473.4 463.7,103.6 	"/>
	<polygon class="st3" points="535,473.4 721.6,100.2 908.2,473.4 	"/>
	<polygon class="st3" points="536.9,902.9 536.9,533.1 906.7,533.1 798.8,718 906.7,902.9 	"/>
	<path class="st3" d="M394.4,718l63.5-95c-44.9-80.3-114.1-102.2-178.1-102.2c-109.1,0-197.5,89.8-197.5,199.3
		c0,109.5,88.4,198.2,197.5,198.2c67.4,0,123.9-18.4,178.1-93.3L394.4,718z"/>
</g>
</svg>
