<svg id="Layer_1" data-name="Layer 1" xmlns="http://www.w3.org/2000/svg" viewBox="0 0 500 500"><defs><style>.cls-1{fill:#202020;}.cls-2{fill:none;stroke:#2077b4;stroke-miterlimit:10;stroke-width:12px;}.cls-3{fill:#fff;}</style></defs><title>hanzi</title><rect class="cls-1" width="500" height="500"/><circle class="cls-2" cx="250" cy="250" r="198.43"/><path class="cls-3" d="M172,251.13q-7.87-6.75-15.37-13.12l6.75-7.5a53,53,0,0,0,6.75,5.25q6.37,5.26,9,7.5Zm-3.37,43.13-9.75-4.12q6-15.37,11.25-32.62a34.89,34.89,0,0,0,6.38,2.63c1.75.75,3,1.25,3.75,1.5q-2.25,6-7.5,20.63Q170.12,290.49,168.63,294.25Zm7.13-67.5q-2.63-2.25-7.5-6.37-5.26-4.5-8.25-6.75l6.75-7.12a151,151,0,0,1,16.13,12.75Zm65.63,66.75q-19.12-10.12-27.75-18.75-9,9-28.87,19.88l-3.37-4.5q-2.25-3.37-3.37-4.87a91.74,91.74,0,0,0,28.5-18.37q-12.37-15-18.37-43.5l9.75-2.25q4.87,24.38,15.75,38.25,11.25-14.62,16.13-39H185.13V211h55.5v9.75q-7.13,30.38-20.25,46.5a89.72,89.72,0,0,0,27.38,16.5q-1.88,2.62-5.25,8.25A12.06,12.06,0,0,1,241.38,293.5Z"/><path class="cls-3" d="M302.5,250v4.88h36.75V262H302.5v21.75q0,6-6,6H286.38l-1.87-7.12h9a1.33,1.33,0,0,0,1.5-1.5V262H256v-7.12h39v-9.75l3.75.75,10.5-7.12h-36v-7.12h43.5l1.5-1.5,6.38,6.38-2.25.75Zm-.37-33.37H337v18.75h-7.5V223.75H266.13v12.38h-7.5v-19.5H293.5V206.5h8.25q3.74.76.38,3Z"/></svg>