<svg xmlns="http://www.w3.org/2000/svg" viewBox="0 0 1614.71 388.21"><defs><style>.cls-1,.cls-2{fill:none;stroke:#000;stroke-miterlimit:10;}.cls-1{stroke-width:3px;}.cls-3{fill:#3f3b3c;}</style></defs><title>logic-diagrams-3</title><g id="Layer_4" data-name="Layer 4"><path class="cls-1" d="M180,158.77s55.85-10,84.85,0,78-3,90,8c0,0,14,73,14,85s9,117,10,127,5,62,28,67,55-2,60,0" transform="translate(-48.99 -60.9)"/><path class="cls-2" d="M303,177.77s-2.85,142.67-2.85,260" transform="translate(-48.99 -60.9)"/><path class="cls-2" d="M317.69,177.77s3.15,173.33,2.48,262" transform="translate(-48.99 -60.9)"/><path class="cls-2" d="M333,177.77S335.5,327.1,337.5,351.1s2.67,86.67,2.67,86.67" transform="translate(-48.99 -60.9)"/><path class="cls-2" d="M348.35,175.77s11.15,256,11.15,262.67" transform="translate(-48.99 -60.9)"/><path class="cls-2" d="M186.35,173.1s.48,188.67-1.52,211.33-.67,47.33-.67,47.33" transform="translate(-48.99 -60.9)"/><path class="cls-2" d="M207.69,170.44s-.85,175.33-.18,185.33,2,74.67,2,82.67" transform="translate(-48.99 -60.9)"/><path class="cls-2" d="M227.69,169.77s3.15,261.33,3.15,266.67" transform="translate(-48.99 -60.9)"/><path class="cls-2" d="M247.69,171.77s-4.18,162-.18,206,2,64.67,2,64.67" transform="translate(-48.99 -60.9)"/><path class="cls-2" d="M267,174.44s-4.18,182.67-2.18,214.67,1.33,50.67,1.33,50.67" transform="translate(-48.99 -60.9)"/><path class="cls-2" d="M283.69,179.1s3.15,233.33,2.48,260" transform="translate(-48.99 -60.9)"/><path d="M232.72,73.65a.48.48,0,0,1,.36.16l1,1.11a6.51,6.51,0,0,1-2.38,1.8,8.17,8.17,0,0,1-3.37.63,7.92,7.92,0,0,1-3.14-.6,6.9,6.9,0,0,1-2.39-1.67,7.42,7.42,0,0,1-1.52-2.56,9.61,9.61,0,0,1-.53-3.27,9.13,9.13,0,0,1,.57-3.27,7.5,7.5,0,0,1,1.6-2.56,7.16,7.16,0,0,1,2.46-1.67,8.19,8.19,0,0,1,3.16-.59,7.73,7.73,0,0,1,3,.56,7.49,7.49,0,0,1,2.28,1.48l-.85,1.2a.93.93,0,0,1-.21.21.55.55,0,0,1-.33.09.89.89,0,0,1-.5-.2,7.89,7.89,0,0,0-.71-.45,5.28,5.28,0,0,0-2.72-.65,5.33,5.33,0,0,0-2.08.4,4.5,4.5,0,0,0-1.63,1.15,5.37,5.37,0,0,0-1.06,1.85,7.5,7.5,0,0,0-.38,2.48,7.29,7.29,0,0,0,.4,2.49,5.41,5.41,0,0,0,1.09,1.85,4.66,4.66,0,0,0,1.63,1.15,5.11,5.11,0,0,0,2,.4,8.77,8.77,0,0,0,1.18-.07,4.69,4.69,0,0,0,1-.23,4.47,4.47,0,0,0,.83-.4,5.29,5.29,0,0,0,.78-.59A.66.66,0,0,1,232.72,73.65Z" transform="translate(-48.99 -60.9)"/><path d="M240.51,65.78a6,6,0,0,1,2.25.41,4.82,4.82,0,0,1,1.72,1.15,5.13,5.13,0,0,1,1.09,1.81,7.66,7.66,0,0,1,0,4.8,5.19,5.19,0,0,1-1.09,1.82,4.78,4.78,0,0,1-1.72,1.16,6.45,6.45,0,0,1-4.51,0,4.83,4.83,0,0,1-1.72-1.16,5.14,5.14,0,0,1-1.1-1.82,7.66,7.66,0,0,1,0-4.8,5.08,5.08,0,0,1,1.1-1.81,4.87,4.87,0,0,1,1.72-1.15A6,6,0,0,1,240.51,65.78Zm0,9.71a2.61,2.61,0,0,0,2.26-1,4.88,4.88,0,0,0,.74-2.91,4.93,4.93,0,0,0-.74-2.92,2.6,2.6,0,0,0-2.26-1,2.64,2.64,0,0,0-2.29,1,4.9,4.9,0,0,0-.75,2.92,4.85,4.85,0,0,0,.75,2.91A2.65,2.65,0,0,0,240.51,75.49Z" transform="translate(-48.99 -60.9)"/><path d="M250.63,60.9V77.18h-2.37V60.9Z" transform="translate(-48.99 -60.9)"/><path d="M258.41,65.78a6,6,0,0,1,2.25.41,4.82,4.82,0,0,1,1.72,1.15,5.13,5.13,0,0,1,1.09,1.81,7.66,7.66,0,0,1,0,4.8,5.19,5.19,0,0,1-1.09,1.82,4.78,4.78,0,0,1-1.72,1.16,6.45,6.45,0,0,1-4.51,0,4.83,4.83,0,0,1-1.72-1.16,5.14,5.14,0,0,1-1.1-1.82,7.66,7.66,0,0,1,0-4.8,5.08,5.08,0,0,1,1.1-1.81,4.87,4.87,0,0,1,1.72-1.15A6,6,0,0,1,258.41,65.78Zm0,9.71a2.61,2.61,0,0,0,2.26-1,4.88,4.88,0,0,0,.74-2.91,4.93,4.93,0,0,0-.74-2.92,2.6,2.6,0,0,0-2.26-1,2.64,2.64,0,0,0-2.29,1,4.9,4.9,0,0,0-.75,2.92,4.85,4.85,0,0,0,.75,2.91A2.65,2.65,0,0,0,258.41,75.49Z" transform="translate(-48.99 -60.9)"/><path d="M268.33,67.44a7.18,7.18,0,0,1,.75-.68,5,5,0,0,1,.83-.52,4.45,4.45,0,0,1,.94-.34,4.54,4.54,0,0,1,1.08-.12,4,4,0,0,1,1.62.31,3.25,3.25,0,0,1,1.18.87,3.75,3.75,0,0,1,.72,1.35,5.88,5.88,0,0,1,.24,1.73v7.14h-2.35V70a2.67,2.67,0,0,0-.52-1.76,2,2,0,0,0-1.59-.63,3.06,3.06,0,0,0-1.47.36,5,5,0,0,0-1.27,1v8.17h-2.37V66h1.43a.58.58,0,0,1,.62.45Z" transform="translate(-48.99 -60.9)"/><path d="M280.68,67.44a7.18,7.18,0,0,1,.75-.68,5,5,0,0,1,.83-.52,4.45,4.45,0,0,1,.94-.34,4.54,4.54,0,0,1,1.08-.12,4,4,0,0,1,1.62.31,3.25,3.25,0,0,1,1.18.87,3.75,3.75,0,0,1,.72,1.35A5.88,5.88,0,0,1,288,70v7.14h-2.35V70a2.67,2.67,0,0,0-.52-1.76,2,2,0,0,0-1.59-.63,3.06,3.06,0,0,0-1.47.36,5,5,0,0,0-1.27,1v8.17h-2.37V66h1.43a.58.58,0,0,1,.62.45Z" transform="translate(-48.99 -60.9)"/><path d="M290.53,67.52a6.43,6.43,0,0,1,4.53-1.77,4.45,4.45,0,0,1,1.72.31,3.45,3.45,0,0,1,1.27.89,3.92,3.92,0,0,1,.78,1.36A5.35,5.35,0,0,1,299.1,70v7.13H298a1,1,0,0,1-.52-.1.8.8,0,0,1-.3-.42l-.23-.91a10.37,10.37,0,0,1-.85.69,5.32,5.32,0,0,1-.86.51,4.21,4.21,0,0,1-1,.31,5.63,5.63,0,0,1-1.13.1,4.16,4.16,0,0,1-1.27-.19,2.79,2.79,0,0,1-1-.57,2.68,2.68,0,0,1-.68-.94,3.25,3.25,0,0,1-.25-1.32,2.55,2.55,0,0,1,.35-1.27A3.16,3.16,0,0,1,291.48,72a7.42,7.42,0,0,1,2.1-.81,15.28,15.28,0,0,1,3.22-.36V70a2.69,2.69,0,0,0-.52-1.8,1.9,1.9,0,0,0-1.52-.59,3.33,3.33,0,0,0-1.14.17,5.15,5.15,0,0,0-.8.37l-.6.37a1,1,0,0,1-.56.17.67.67,0,0,1-.41-.13,1,1,0,0,1-.28-.31Zm6.27,4.75a15,15,0,0,0-2.13.2,6.06,6.06,0,0,0-1.41.41,1.86,1.86,0,0,0-.78.59,1.29,1.29,0,0,0-.24.75,1.64,1.64,0,0,0,.13.68,1.24,1.24,0,0,0,.35.46,1.43,1.43,0,0,0,.53.26,2.52,2.52,0,0,0,.67.08,3.4,3.4,0,0,0,1.59-.35,5,5,0,0,0,1.29-1Z" transform="translate(-48.99 -60.9)"/><path d="M311.39,60.9V77.18H310a.57.57,0,0,1-.6-.45l-.21-1.22a5.94,5.94,0,0,1-1.6,1.33,4.17,4.17,0,0,1-2.08.51,3.83,3.83,0,0,1-1.72-.38,3.69,3.69,0,0,1-1.32-1.11,5.36,5.36,0,0,1-.85-1.8,9.08,9.08,0,0,1-.3-2.46,7.69,7.69,0,0,1,.34-2.32,5.67,5.67,0,0,1,1-1.85,4.39,4.39,0,0,1,3.53-1.68A3.8,3.8,0,0,1,309,66.94v-6ZM309,68.72a2.78,2.78,0,0,0-1.09-.89,3.25,3.25,0,0,0-1.29-.25,2.58,2.58,0,0,0-2.17,1,4.88,4.88,0,0,0-.78,3,7.63,7.63,0,0,0,.18,1.77,3.41,3.41,0,0,0,.51,1.19,2,2,0,0,0,.8.67,2.61,2.61,0,0,0,1.07.21,3,3,0,0,0,1.56-.39A4.49,4.49,0,0,0,309,73.94Z" transform="translate(-48.99 -60.9)"/><path d="M316,71.75a5.61,5.61,0,0,0,.3,1.66,3.41,3.41,0,0,0,.68,1.16,2.63,2.63,0,0,0,1,.69,3.65,3.65,0,0,0,1.31.23,4,4,0,0,0,1.2-.16,5.64,5.64,0,0,0,.88-.35l.64-.35a1,1,0,0,1,.48-.16.51.51,0,0,1,.44.22l.67.87a4.26,4.26,0,0,1-.95.84,5.51,5.51,0,0,1-1.12.56,6.31,6.31,0,0,1-1.22.31,8.26,8.26,0,0,1-1.22.09,5.87,5.87,0,0,1-2.16-.39,4.8,4.8,0,0,1-1.73-1.15,5.3,5.3,0,0,1-1.14-1.88,7.47,7.47,0,0,1-.41-2.58,6.31,6.31,0,0,1,.37-2.18,5.2,5.2,0,0,1,1.06-1.76,5,5,0,0,1,1.67-1.18,5.46,5.46,0,0,1,2.23-.43,5.33,5.33,0,0,1,1.91.34,4.19,4.19,0,0,1,1.52,1,4.53,4.53,0,0,1,1,1.59,6,6,0,0,1,.36,2.14,1.5,1.5,0,0,1-.12.74.48.48,0,0,1-.44.19Zm5.64-1.45a3.47,3.47,0,0,0-.17-1.11,2.59,2.59,0,0,0-.5-.89,2.28,2.28,0,0,0-.82-.59A2.79,2.79,0,0,0,319,67.5a2.74,2.74,0,0,0-2,.74,3.57,3.57,0,0,0-.94,2.07Z" transform="translate(-48.99 -60.9)"/><path d="M393.71,300.48a5,5,0,0,1-.74.87,4.81,4.81,0,0,1-1,.72,5.6,5.6,0,0,1-1.26.49,5.91,5.91,0,0,1-1.5.18,6.55,6.55,0,0,1-2.52-.48A5.88,5.88,0,0,1,383.4,299a6.69,6.69,0,0,1-.47-2.53,6.58,6.58,0,0,1,.48-2.53,6,6,0,0,1,3.31-3.32,6.44,6.44,0,0,1,2.49-.48,6.18,6.18,0,0,1,2.5.53,5.11,5.11,0,0,1,1,.6,3.51,3.51,0,0,1,.76.79l-1,.75a3,3,0,0,0-.5-.58,3.42,3.42,0,0,0-.74-.51,4.66,4.66,0,0,0-.93-.36,4.12,4.12,0,0,0-1.08-.14,5,5,0,0,0-2.1.42,4.72,4.72,0,0,0-1.57,1.14,5,5,0,0,0-1,1.67,5.88,5.88,0,0,0-.34,2,5.75,5.75,0,0,0,.35,2,5.11,5.11,0,0,0,1,1.67,4.71,4.71,0,0,0,1.57,1.14,4.94,4.94,0,0,0,2.08.42,4.7,4.7,0,0,0,2-.42,3.74,3.74,0,0,0,1.56-1.36Z" transform="translate(-48.99 -60.9)"/><path d="M403.45,298.46a4.34,4.34,0,0,1-.31,1.67,3.92,3.92,0,0,1-2.22,2.2,4.8,4.8,0,0,1-3.42,0,3.92,3.92,0,0,1-2.22-2.2,4.57,4.57,0,0,1,0-3.33,3.92,3.92,0,0,1,2.22-2.2,4.8,4.8,0,0,1,3.42,0,4,4,0,0,1,1.34.88,4,4,0,0,1,.88,1.33A4.34,4.34,0,0,1,403.45,298.46Zm-1.22,0a3.64,3.64,0,0,0-.21-1.25,3.07,3.07,0,0,0-.6-1,2.85,2.85,0,0,0-1-.69,3,3,0,0,0-1.26-.25,3,3,0,0,0-1.25.25,2.87,2.87,0,0,0-.94.69,3.05,3.05,0,0,0-.6,1,3.77,3.77,0,0,0,0,2.5,3.05,3.05,0,0,0,.6,1,2.77,2.77,0,0,0,.94.68,3,3,0,0,0,1.25.25,3.1,3.1,0,0,0,1.26-.25,2.76,2.76,0,0,0,1-.68,3.07,3.07,0,0,0,.6-1A3.64,3.64,0,0,0,402.22,298.46Z" transform="translate(-48.99 -60.9)"/><path d="M407.12,302.44H406V289.59h1.16Z" transform="translate(-48.99 -60.9)"/><path d="M418.12,298.46a4.34,4.34,0,0,1-.31,1.67,3.92,3.92,0,0,1-2.22,2.2,4.8,4.8,0,0,1-3.42,0,3.92,3.92,0,0,1-2.22-2.2,4.57,4.57,0,0,1,0-3.33,3.92,3.92,0,0,1,2.22-2.2,4.8,4.8,0,0,1,3.42,0,4,4,0,0,1,1.34.88,4,4,0,0,1,.88,1.33A4.34,4.34,0,0,1,418.12,298.46Zm-1.22,0a3.64,3.64,0,0,0-.21-1.25,3.07,3.07,0,0,0-.6-1,2.85,2.85,0,0,0-1-.69,3,3,0,0,0-1.26-.25,3,3,0,0,0-1.25.25,2.87,2.87,0,0,0-.94.69,3.05,3.05,0,0,0-.6,1,3.77,3.77,0,0,0,0,2.5,3.05,3.05,0,0,0,.6,1,2.77,2.77,0,0,0,.94.68,3,3,0,0,0,1.25.25,3.1,3.1,0,0,0,1.26-.25,2.76,2.76,0,0,0,1-.68,3.07,3.07,0,0,0,.6-1A3.64,3.64,0,0,0,416.89,298.46Z" transform="translate(-48.99 -60.9)"/><path d="M421.64,294.48q0,.32.05.71c0,.26,0,.48,0,.65h0a2.62,2.62,0,0,1,1.1-1.13,3.23,3.23,0,0,1,1.62-.43,2.8,2.8,0,0,1,2.27.9,3.58,3.58,0,0,1,.76,2.38v4.88h-1.16V298a5.84,5.84,0,0,0-.1-1.14,2.4,2.4,0,0,0-.35-.88,1.67,1.67,0,0,0-.66-.57,2.37,2.37,0,0,0-1-.2,2.23,2.23,0,0,0-.89.19,2.19,2.19,0,0,0-.77.57,2.84,2.84,0,0,0-.54,1,4.21,4.21,0,0,0-.2,1.39v4.08H420.6v-6.21c0-.21,0-.49,0-.83s0-.65-.05-.92Z" transform="translate(-48.99 -60.9)"/><path d="M431.51,294.48q0,.32.05.71c0,.26,0,.48,0,.65h0a2.62,2.62,0,0,1,1.1-1.13,3.23,3.23,0,0,1,1.62-.43,2.8,2.8,0,0,1,2.27.9,3.58,3.58,0,0,1,.76,2.38v4.88h-1.16V298a5.84,5.84,0,0,0-.1-1.14,2.4,2.4,0,0,0-.35-.88,1.67,1.67,0,0,0-.66-.57,2.37,2.37,0,0,0-1-.2,2.23,2.23,0,0,0-.89.19,2.19,2.19,0,0,0-.77.57,2.84,2.84,0,0,0-.54,1,4.21,4.21,0,0,0-.2,1.39v4.08h-1.16v-6.21c0-.21,0-.49,0-.83s0-.65-.05-.92Z" transform="translate(-48.99 -60.9)"/><path d="M445.37,297.29a2,2,0,0,0-.54-1.54,2.24,2.24,0,0,0-1.58-.51,3.41,3.41,0,0,0-1.33.25,3.17,3.17,0,0,0-1,.68l-.65-.77a3.81,3.81,0,0,1,1.3-.82,4.89,4.89,0,0,1,1.83-.32,4,4,0,0,1,1.21.18,2.86,2.86,0,0,1,1,.54,2.42,2.42,0,0,1,.66.9,3.16,3.16,0,0,1,.24,1.27v3.48q0,.46,0,1a6.63,6.63,0,0,0,.1.83h-1c0-.19-.06-.4-.08-.63a6.58,6.58,0,0,1,0-.66h0a3.35,3.35,0,0,1-1.23,1.15,3.63,3.63,0,0,1-1.66.35,3.7,3.7,0,0,1-.94-.13,2.63,2.63,0,0,1-.88-.42,2.36,2.36,0,0,1-.66-.75,2.23,2.23,0,0,1-.26-1.13,2.15,2.15,0,0,1,.47-1.46,2.81,2.81,0,0,1,1.25-.8,7.35,7.35,0,0,1,1.79-.34q1-.08,2.1-.08Zm-.34,1.17q-.71,0-1.44.06a6.31,6.31,0,0,0-1.31.24,2.48,2.48,0,0,0-1,.52,1.16,1.16,0,0,0-.37.9,1.44,1.44,0,0,0,.16.71,1.32,1.32,0,0,0,.43.47,1.84,1.84,0,0,0,.6.25,3,3,0,0,0,.67.08,2.65,2.65,0,0,0,1.09-.21,2.29,2.29,0,0,0,.8-.58,2.55,2.55,0,0,0,.49-.84,3,3,0,0,0,.17-1v-.6Z" transform="translate(-48.99 -60.9)"/><path d="M456,301.1a3.27,3.27,0,0,1-1.33,1.16,3.85,3.85,0,0,1-1.68.39,4.26,4.26,0,0,1-1.69-.32,3.84,3.84,0,0,1-1.29-.88,4,4,0,0,1-.83-1.33,4.72,4.72,0,0,1,0-3.3,4,4,0,0,1,.83-1.33,3.85,3.85,0,0,1,1.29-.88,4.26,4.26,0,0,1,1.69-.32,3.79,3.79,0,0,1,1.68.4,3.29,3.29,0,0,1,1.33,1.18h0v-6.27h1.16v12.85H456V301.1Zm-5.9-2.64a3.78,3.78,0,0,0,.2,1.25,3,3,0,0,0,.59,1,2.68,2.68,0,0,0,.94.68,3.14,3.14,0,0,0,1.27.25,3,3,0,0,0,2.19-.92,3,3,0,0,0,.64-1,3.61,3.61,0,0,0,0-2.53,3.15,3.15,0,0,0-.64-1,2.93,2.93,0,0,0-1-.68,3,3,0,0,0-1.22-.25,3,3,0,0,0-1.27.25,2.77,2.77,0,0,0-.94.69,3,3,0,0,0-.59,1A3.78,3.78,0,0,0,450.08,298.46Z" transform="translate(-48.99 -60.9)"/><path d="M467.5,298.22v.25a2.65,2.65,0,0,1,0,.29h-6.6a3.09,3.09,0,0,0,.24,1.12,2.83,2.83,0,0,0,.61.92,3,3,0,0,0,.92.62,3,3,0,0,0,2.69-.19,3.12,3.12,0,0,0,1-1l.87.68a4.31,4.31,0,0,1-1.57,1.29,4.4,4.4,0,0,1-1.84.39,4.24,4.24,0,0,1-1.64-.31,3.85,3.85,0,0,1-1.3-.88,4.14,4.14,0,0,1-.86-1.33,4.33,4.33,0,0,1-.31-1.67,4.45,4.45,0,0,1,.31-1.67,4,4,0,0,1,.85-1.33,3.91,3.91,0,0,1,1.27-.88,4,4,0,0,1,1.58-.31,4.06,4.06,0,0,1,1.65.31,3.41,3.41,0,0,1,1.19.85,3.66,3.66,0,0,1,.72,1.25A4.67,4.67,0,0,1,467.5,298.22Zm-1.17-.37a2.87,2.87,0,0,0-.72-1.86,2.45,2.45,0,0,0-1.91-.74,2.68,2.68,0,0,0-1.07.21,2.86,2.86,0,0,0-1.46,1.41,2.69,2.69,0,0,0-.26,1Z" transform="translate(-48.99 -60.9)"/><path class="cls-2" d="M728.22,165.77s.31,22.67-8.18,34.67" transform="translate(-48.99 -60.9)"/><path class="cls-2" d="M739.56,178.44s2,26.67-18.67,46.67" transform="translate(-48.99 -60.9)"/><path class="cls-2" d="M747.56,161.77s8,54-26,74" transform="translate(-48.99 -60.9)"/><path class="cls-2" d="M756.22,199.1s7.33,30,25.33,48" transform="translate(-48.99 -60.9)"/><path class="cls-2" d="M750.89,213.1s-2.67,20-24.67,35.33" transform="translate(-48.99 -60.9)"/><path class="cls-2" d="M756.22,229.77s-.67,8-4.67,12" transform="translate(-48.99 -60.9)"/><path class="cls-2" d="M758.89,241.1s8,4,8,5.33" transform="translate(-48.99 -60.9)"/><path class="cls-2" d="M754.89,170.44s19.33,74.67,43.33,74.67" transform="translate(-48.99 -60.9)"/><path class="cls-2" d="M769.56,161.1s19.33,28,19.33,35.33,12.67,28.67,19.33,28.67" transform="translate(-48.99 -60.9)"/><path class="cls-2" d="M769.56,181.77s22.67,54.67,40.67,60" transform="translate(-48.99 -60.9)"/><path class="cls-2" d="M783.56,161.1s40,66.67,42,78" transform="translate(-48.99 -60.9)"/><path class="cls-2" d="M800.22,163.77s4,26,20.67,40" transform="translate(-48.99 -60.9)"/><path class="cls-2" d="M812.89,167.1s3.33,13.33,10.67,20" transform="translate(-48.99 -60.9)"/><path class="cls-2" d="M837.56,168.44s2,17.33-9.33,28.67" transform="translate(-48.99 -60.9)"/><path class="cls-2" d="M844.89,172.44s2,22.67-15.33,50" transform="translate(-48.99 -60.9)"/><path class="cls-2" d="M856.22,175.1s-3.33,33.33-21.33,54" transform="translate(-48.99 -60.9)"/><path class="cls-2" d="M866.22,172.44s2.67,31.33-27.33,71.33" transform="translate(-48.99 -60.9)"/><path class="cls-2" d="M870.22,210.44s-8,26-20.67,34.67" transform="translate(-48.99 -60.9)"/><path class="cls-2" d="M874.89,227.77s2.67,6-10.67,20.67" transform="translate(-48.99 -60.9)"/><path class="cls-2" d="M872.89,179.77s10.67,25.33,10.67,42,17.33,28,17.33,28" transform="translate(-48.99 -60.9)"/><path class="cls-2" d="M878.89,170.44s10,18.67,10,30,9.33,22.67,9.33,22.67" transform="translate(-48.99 -60.9)"/><path class="cls-2" d="M888.22,171.1s6,14,6,16.67" transform="translate(-48.99 -60.9)"/><path class="cls-2" d="M724.22,255.77s2.67,106,.67,128.67-.67,47.33-.67,47.33" transform="translate(-48.99 -60.9)"/><path class="cls-2" d="M766.22,253.1s4.67,178,4.67,183.33" transform="translate(-48.99 -60.9)"/><path class="cls-1" d="M720,158.77s55.85-10,84.85,0,78-3,90,8c0,0,14,73,14,85s9,117,10,127,5,62,28,67,55-2,60,0" transform="translate(-48.99 -60.9)"/><path class="cls-2" d="M784.22,257.1s-.67,76.67,3.33,120.67,2,64.67,2,64.67" transform="translate(-48.99 -60.9)"/><path class="cls-2" d="M805.56,253.1s-2.67,104-.67,136,1.33,50.67,1.33,50.67" transform="translate(-48.99 -60.9)"/><path class="cls-2" d="M820.89,253.1s6,159.33,5.33,186" transform="translate(-48.99 -60.9)"/><path class="cls-2" d="M842.89,255.1s-2.67,65.33-2.67,182.67" transform="translate(-48.99 -60.9)"/><path class="cls-2" d="M858.89,253.1s2,98,1.33,186.67" transform="translate(-48.99 -60.9)"/><path class="cls-2" d="M875.56,249.77s0,77.33,2,101.33,2.67,86.67,2.67,86.67" transform="translate(-48.99 -60.9)"/><path class="cls-2" d="M892.22,253.1s7.33,178.67,7.33,185.33" transform="translate(-48.99 -60.9)"/><path class="cls-2" d="M744.22,253.77s2.67,92,3.33,102,2,74.67,2,82.67" transform="translate(-48.99 -60.9)"/><path d="M675.25,64a1,1,0,0,1-.25.29.56.56,0,0,1-.33.09.86.86,0,0,1-.47-.18q-.26-.18-.64-.39a5.59,5.59,0,0,0-.9-.4,4.22,4.22,0,0,0-2.39,0,2.41,2.41,0,0,0-.84.46,1.91,1.91,0,0,0-.51.7,2.21,2.21,0,0,0-.17.87,1.57,1.57,0,0,0,.32,1,2.73,2.73,0,0,0,.84.69,6.77,6.77,0,0,0,1.19.5l1.37.46q.7.24,1.37.55a4.68,4.68,0,0,1,1.19.78,3.59,3.59,0,0,1,.84,1.15,3.91,3.91,0,0,1,.32,1.66,5.37,5.37,0,0,1-.36,2,4.66,4.66,0,0,1-1.05,1.61A4.88,4.88,0,0,1,673.09,77a6.22,6.22,0,0,1-2.29.4,7.3,7.3,0,0,1-1.48-.15,7.63,7.63,0,0,1-1.37-.42,6.87,6.87,0,0,1-1.23-.65,6.16,6.16,0,0,1-1-.86l.75-1.23a.72.72,0,0,1,.25-.24.68.68,0,0,1,.34-.09,1,1,0,0,1,.56.24q.31.24.74.52a5.72,5.72,0,0,0,1.05.52,4.12,4.12,0,0,0,1.47.24,3.14,3.14,0,0,0,2.16-.68,2.39,2.39,0,0,0,.76-1.88,1.77,1.77,0,0,0-.32-1.09,2.59,2.59,0,0,0-.84-.71,6.09,6.09,0,0,0-1.19-.48l-1.36-.42a13.32,13.32,0,0,1-1.36-.53,4.32,4.32,0,0,1-1.19-.79,3.66,3.66,0,0,1-.84-1.21,4.44,4.44,0,0,1-.32-1.8,4.28,4.28,0,0,1,1.31-3.09,4.79,4.79,0,0,1,1.59-1,5.84,5.84,0,0,1,2.16-.37,7,7,0,0,1,2.5.43,5.7,5.7,0,0,1,2,1.22Z" transform="translate(-48.99 -60.9)"/><path d="M681.31,62.57a1.48,1.48,0,0,1-.13.6,1.58,1.58,0,0,1-.35.5,1.68,1.68,0,0,1-.51.34,1.54,1.54,0,0,1-.62.13,1.44,1.44,0,0,1-.6-.13,1.58,1.58,0,0,1-.49-.34,1.68,1.68,0,0,1-.34-.5,1.48,1.48,0,0,1-.13-.6,1.5,1.5,0,0,1,.13-.62,1.69,1.69,0,0,1,.34-.5,1.59,1.59,0,0,1,.49-.34,1.44,1.44,0,0,1,.6-.13,1.54,1.54,0,0,1,.62.13,1.69,1.69,0,0,1,.51.34,1.59,1.59,0,0,1,.35.5A1.5,1.5,0,0,1,681.31,62.57Zm-.4,3.39V77.18h-2.36V66Z" transform="translate(-48.99 -60.9)"/><path d="M686.11,67.44a7.22,7.22,0,0,1,.75-.68,5,5,0,0,1,.83-.52,4.43,4.43,0,0,1,.93-.34,4.54,4.54,0,0,1,1.08-.12,4,4,0,0,1,1.62.31,3.25,3.25,0,0,1,1.18.87,3.76,3.76,0,0,1,.72,1.35,5.88,5.88,0,0,1,.24,1.73v7.14h-2.35V70a2.67,2.67,0,0,0-.52-1.76,2,2,0,0,0-1.59-.63,3.06,3.06,0,0,0-1.47.36,5,5,0,0,0-1.27,1v8.17H683.9V66h1.43a.58.58,0,0,1,.62.45Z" transform="translate(-48.99 -60.9)"/><path d="M705.91,66.36v.88q0,.44-.53.54l-1.12.19a3.43,3.43,0,0,1,.29,1.42A3.33,3.33,0,0,1,703.32,72a4.05,4.05,0,0,1-1.36.73,5.62,5.62,0,0,1-1.72.25,6,6,0,0,1-.69,0c-.22,0-.44-.06-.65-.1a1.56,1.56,0,0,0-.47.4.72.72,0,0,0-.15.43.58.58,0,0,0,.32.54,2.51,2.51,0,0,0,.84.25,10.68,10.68,0,0,0,1.19.1q.67,0,1.36.08a12.8,12.8,0,0,1,1.36.18,3.93,3.93,0,0,1,1.19.42,2.18,2.18,0,0,1,1.16,2.07,3,3,0,0,1-.36,1.42,3.81,3.81,0,0,1-1,1.23,5.45,5.45,0,0,1-1.68.86,7.23,7.23,0,0,1-2.25.32,8.74,8.74,0,0,1-2.18-.24,5.12,5.12,0,0,1-1.55-.65,2.8,2.8,0,0,1-.92-1,2.26,2.26,0,0,1-.3-1.12,2,2,0,0,1,.5-1.35,3.35,3.35,0,0,1,1.36-.88,1.92,1.92,0,0,1-.74-.6,1.68,1.68,0,0,1-.28-1,1.86,1.86,0,0,1,.36-1,2.83,2.83,0,0,1,1.09-.91,3.57,3.57,0,0,1-1.32-1.23,3.27,3.27,0,0,1-.48-1.79,3.41,3.41,0,0,1,.33-1.51,3.31,3.31,0,0,1,.91-1.14A4.16,4.16,0,0,1,698.5,66a5.74,5.74,0,0,1,1.74-.25,5.09,5.09,0,0,1,2.53.6Zm-2.38,11.36a.83.83,0,0,0-.21-.6,1.42,1.42,0,0,0-.58-.35,4.13,4.13,0,0,0-.85-.19q-.48-.06-1-.09l-1.11-.06q-.57,0-1.09-.1a2.9,2.9,0,0,0-.86.66,1.31,1.31,0,0,0-.34.89,1.18,1.18,0,0,0,.17.62,1.44,1.44,0,0,0,.53.5,3.14,3.14,0,0,0,.91.33,6.35,6.35,0,0,0,1.34.12,4.52,4.52,0,0,0,2.34-.48A1.43,1.43,0,0,0,703.53,77.73Zm-3.29-6.26a2.22,2.22,0,0,0,1.65-.56,2,2,0,0,0,.55-1.46,2,2,0,0,0-.55-1.46,2.79,2.79,0,0,0-3.29,0,1.94,1.94,0,0,0-.56,1.46,2.25,2.25,0,0,0,.14.81,1.76,1.76,0,0,0,.42.64,1.86,1.86,0,0,0,.69.42A2.8,2.8,0,0,0,700.24,71.47Z" transform="translate(-48.99 -60.9)"/><path d="M710.19,60.9V77.18h-2.37V60.9Z" transform="translate(-48.99 -60.9)"/><path d="M714.83,71.75a5.59,5.59,0,0,0,.3,1.66,3.4,3.4,0,0,0,.68,1.16,2.63,2.63,0,0,0,1,.69,3.64,3.64,0,0,0,1.31.23,4,4,0,0,0,1.2-.16,5.65,5.65,0,0,0,.88-.35l.64-.35a1,1,0,0,1,.48-.16.5.5,0,0,1,.44.22l.67.87a4.25,4.25,0,0,1-.95.84,5.53,5.53,0,0,1-1.12.56,6.33,6.33,0,0,1-1.22.31,8.25,8.25,0,0,1-1.22.09,5.86,5.86,0,0,1-2.16-.39A4.8,4.8,0,0,1,714,75.8a5.3,5.3,0,0,1-1.14-1.88,7.46,7.46,0,0,1-.41-2.58,6.31,6.31,0,0,1,.37-2.18,5.19,5.19,0,0,1,1.06-1.76,5,5,0,0,1,1.67-1.18,5.46,5.46,0,0,1,2.23-.43,5.33,5.33,0,0,1,1.91.34,4.19,4.19,0,0,1,1.52,1,4.53,4.53,0,0,1,1,1.59,6,6,0,0,1,.36,2.14,1.5,1.5,0,0,1-.12.74.49.49,0,0,1-.44.19Zm5.64-1.45a3.46,3.46,0,0,0-.17-1.11,2.59,2.59,0,0,0-.5-.89,2.28,2.28,0,0,0-.82-.59,2.79,2.79,0,0,0-1.13-.21,2.74,2.74,0,0,0-2,.74,3.57,3.57,0,0,0-.94,2.07Z" transform="translate(-48.99 -60.9)"/><path d="M740.6,75.1v2.08h-9.88V61.34h9.88v2.08H733.3v4.77h5.83v2H733.3v4.9Z" transform="translate(-48.99 -60.9)"/><path d="M744.89,67.44a7.22,7.22,0,0,1,.75-.68,5,5,0,0,1,.83-.52,4.43,4.43,0,0,1,.93-.34,4.54,4.54,0,0,1,1.08-.12,4,4,0,0,1,1.62.31,3.25,3.25,0,0,1,1.18.87A3.76,3.76,0,0,1,752,68.3a5.88,5.88,0,0,1,.24,1.73v7.14H749.9V70a2.67,2.67,0,0,0-.52-1.76,2,2,0,0,0-1.59-.63,3.06,3.06,0,0,0-1.47.36A5,5,0,0,0,745,69v8.17h-2.37V66h1.43a.58.58,0,0,1,.62.45Z" transform="translate(-48.99 -60.9)"/><path d="M758.47,77.35a2.84,2.84,0,0,1-2.15-.79,3.07,3.07,0,0,1-.75-2.22V67.82h-1.23a.5.5,0,0,1-.34-.13.48.48,0,0,1-.14-.38v-1l1.81-.26.52-3.25a.62.62,0,0,1,.19-.3.52.52,0,0,1,.35-.12h1.21v3.69H761v1.71h-3.11v6.37a1.31,1.31,0,0,0,.3.92,1,1,0,0,0,.79.32,1.4,1.4,0,0,0,.47-.07,2.12,2.12,0,0,0,.34-.15l.25-.15a.34.34,0,0,1,.52.15l.7,1.15a3.85,3.85,0,0,1-1.3.74A4.69,4.69,0,0,1,758.47,77.35Z" transform="translate(-48.99 -60.9)"/><path d="M762.63,67.52a6.43,6.43,0,0,1,4.53-1.77,4.45,4.45,0,0,1,1.72.31,3.44,3.44,0,0,1,1.26.89,3.92,3.92,0,0,1,.78,1.36A5.35,5.35,0,0,1,771.2,70v7.13h-1.06a1,1,0,0,1-.52-.1.81.81,0,0,1-.3-.42l-.23-.91a10.29,10.29,0,0,1-.85.69,5.32,5.32,0,0,1-.86.51,4.21,4.21,0,0,1-1,.31,5.63,5.63,0,0,1-1.13.1,4.17,4.17,0,0,1-1.27-.19,2.79,2.79,0,0,1-1-.57,2.69,2.69,0,0,1-.68-.94,3.25,3.25,0,0,1-.25-1.32,2.56,2.56,0,0,1,.35-1.27A3.16,3.16,0,0,1,763.59,72a7.42,7.42,0,0,1,2.1-.81,15.28,15.28,0,0,1,3.22-.36V70a2.69,2.69,0,0,0-.52-1.8,1.9,1.9,0,0,0-1.52-.59,3.33,3.33,0,0,0-1.14.17,5.17,5.17,0,0,0-.8.37l-.6.37a1,1,0,0,1-.56.17.67.67,0,0,1-.41-.13,1,1,0,0,1-.28-.31Zm6.27,4.75a15,15,0,0,0-2.13.2,6.06,6.06,0,0,0-1.41.41,1.86,1.86,0,0,0-.78.59,1.28,1.28,0,0,0-.24.75,1.64,1.64,0,0,0,.13.68,1.23,1.23,0,0,0,.35.46,1.43,1.43,0,0,0,.53.26,2.52,2.52,0,0,0,.67.08,3.4,3.4,0,0,0,1.59-.35,5,5,0,0,0,1.29-1Z" transform="translate(-48.99 -60.9)"/><path d="M776.33,67.44a5.65,5.65,0,0,1,1.55-1.21,4.14,4.14,0,0,1,2-.45,4,4,0,0,1,1.77.38,3.7,3.7,0,0,1,1.34,1.09,5.19,5.19,0,0,1,.85,1.73,8.21,8.21,0,0,1,.3,2.29,8.6,8.6,0,0,1-.34,2.48,5.72,5.72,0,0,1-1,1.91,4.32,4.32,0,0,1-1.52,1.23,4.48,4.48,0,0,1-2,.43,4.25,4.25,0,0,1-1-.1,3.42,3.42,0,0,1-.81-.3,3.59,3.59,0,0,1-.69-.47,5.25,5.25,0,0,1-.6-.63l-.1.87a.6.6,0,0,1-.2.36.63.63,0,0,1-.4.11H774V60.9h2.37Zm0,6.92a2.84,2.84,0,0,0,1.08.9,3.15,3.15,0,0,0,1.28.26,2.6,2.6,0,0,0,2.18-1,5.12,5.12,0,0,0,.78-3.14,4.71,4.71,0,0,0-.68-2.83,2.28,2.28,0,0,0-1.93-.89,2.86,2.86,0,0,0-1.51.39,4.5,4.5,0,0,0-1.2,1.12Z" transform="translate(-48.99 -60.9)"/><path d="M788.78,60.9V77.18h-2.37V60.9Z" transform="translate(-48.99 -60.9)"/><path d="M791.43,67.52A6.43,6.43,0,0,1,796,65.75a4.45,4.45,0,0,1,1.72.31,3.44,3.44,0,0,1,1.26.89,3.92,3.92,0,0,1,.78,1.36A5.35,5.35,0,0,1,800,70v7.13h-1.06a1,1,0,0,1-.52-.1.81.81,0,0,1-.3-.42l-.23-.91a10.29,10.29,0,0,1-.85.69,5.32,5.32,0,0,1-.86.51,4.21,4.21,0,0,1-1,.31,5.63,5.63,0,0,1-1.13.1,4.17,4.17,0,0,1-1.27-.19,2.79,2.79,0,0,1-1-.57,2.69,2.69,0,0,1-.68-.94,3.25,3.25,0,0,1-.25-1.32,2.56,2.56,0,0,1,.35-1.27A3.16,3.16,0,0,1,792.38,72a7.42,7.42,0,0,1,2.1-.81,15.28,15.28,0,0,1,3.22-.36V70a2.69,2.69,0,0,0-.52-1.8,1.9,1.9,0,0,0-1.52-.59,3.33,3.33,0,0,0-1.14.17,5.17,5.17,0,0,0-.8.37l-.6.37a1,1,0,0,1-.56.17.67.67,0,0,1-.41-.13,1,1,0,0,1-.28-.31Zm6.27,4.75a15,15,0,0,0-2.13.2,6.06,6.06,0,0,0-1.41.41,1.86,1.86,0,0,0-.78.59,1.28,1.28,0,0,0-.24.75,1.64,1.64,0,0,0,.13.68,1.23,1.23,0,0,0,.35.46,1.43,1.43,0,0,0,.53.26,2.52,2.52,0,0,0,.67.08,3.4,3.4,0,0,0,1.59-.35,5,5,0,0,0,1.29-1Z" transform="translate(-48.99 -60.9)"/><path d="M806.2,77.35a2.84,2.84,0,0,1-2.15-.79,3.07,3.07,0,0,1-.75-2.22V67.82h-1.23a.5.5,0,0,1-.34-.13.48.48,0,0,1-.14-.38v-1l1.81-.26.52-3.25a.62.62,0,0,1,.19-.3.52.52,0,0,1,.35-.12h1.21v3.69h3.11v1.71h-3.11v6.37a1.31,1.31,0,0,0,.3.92,1,1,0,0,0,.79.32,1.4,1.4,0,0,0,.47-.07,2.12,2.12,0,0,0,.34-.15l.25-.15a.34.34,0,0,1,.52.15l.7,1.15a3.85,3.85,0,0,1-1.3.74A4.69,4.69,0,0,1,806.2,77.35Z" transform="translate(-48.99 -60.9)"/><path d="M820.11,66V77.18h-1.43a.57.57,0,0,1-.61-.45l-.18-1a6.81,6.81,0,0,1-.74.68,4.78,4.78,0,0,1-.83.53,4.38,4.38,0,0,1-.94.34,4.56,4.56,0,0,1-1.07.12,4,4,0,0,1-1.63-.31,3.23,3.23,0,0,1-1.18-.87,3.74,3.74,0,0,1-.72-1.35,5.87,5.87,0,0,1-.24-1.73V66h2.37v7.14a2.67,2.67,0,0,0,.52,1.76,2,2,0,0,0,1.59.63,3.07,3.07,0,0,0,1.46-.36,4.92,4.92,0,0,0,1.27-1V66Z" transform="translate(-48.99 -60.9)"/><path d="M825.22,68a5,5,0,0,1,1.28-1.68,2.92,2.92,0,0,1,2.47-.53,1.93,1.93,0,0,1,.57.25l-.17,1.78a.44.44,0,0,1-.14.26.39.39,0,0,1-.25.07,2.67,2.67,0,0,1-.47-.06,3.36,3.36,0,0,0-.65-.06,2.47,2.47,0,0,0-.87.14,2.11,2.11,0,0,0-.68.42,2.82,2.82,0,0,0-.53.67,6.45,6.45,0,0,0-.43.9v7H823V66h1.38a.74.74,0,0,1,.52.14.85.85,0,0,1,.2.48Z" transform="translate(-48.99 -60.9)"/><path d="M832.44,71.75a5.62,5.62,0,0,0,.3,1.66,3.42,3.42,0,0,0,.68,1.16,2.63,2.63,0,0,0,1,.69,3.65,3.65,0,0,0,1.31.23,4,4,0,0,0,1.2-.16,5.63,5.63,0,0,0,.88-.35l.64-.35a1,1,0,0,1,.48-.16.51.51,0,0,1,.44.22l.67.87a4.27,4.27,0,0,1-.95.84,5.48,5.48,0,0,1-1.12.56,6.3,6.3,0,0,1-1.22.31,8.26,8.26,0,0,1-1.22.09,5.87,5.87,0,0,1-2.16-.39,4.8,4.8,0,0,1-1.73-1.15,5.3,5.3,0,0,1-1.14-1.88,7.48,7.48,0,0,1-.41-2.58,6.31,6.31,0,0,1,.37-2.18,5.2,5.2,0,0,1,1.06-1.76,5,5,0,0,1,1.67-1.18,5.46,5.46,0,0,1,2.23-.43,5.33,5.33,0,0,1,1.91.34,4.2,4.2,0,0,1,1.52,1,4.54,4.54,0,0,1,1,1.59,6,6,0,0,1,.36,2.14,1.5,1.5,0,0,1-.12.74.48.48,0,0,1-.44.19Zm5.64-1.45a3.49,3.49,0,0,0-.17-1.11,2.59,2.59,0,0,0-.5-.89,2.28,2.28,0,0,0-.82-.59,2.78,2.78,0,0,0-1.13-.21,2.74,2.74,0,0,0-2,.74,3.57,3.57,0,0,0-.93,2.07Z" transform="translate(-48.99 -60.9)"/><path d="M858.15,70.69h-4.37V75.3h-1.92V70.69h-4.35V68.9h4.35v-4.6h1.92v4.6h4.37Z" transform="translate(-48.99 -60.9)"/><path d="M877.56,73.65a.48.48,0,0,1,.36.16l1,1.11a6.51,6.51,0,0,1-2.38,1.8,8.17,8.17,0,0,1-3.37.63,7.92,7.92,0,0,1-3.14-.6,6.9,6.9,0,0,1-2.39-1.67,7.43,7.43,0,0,1-1.52-2.56,9.61,9.61,0,0,1-.53-3.27,9.13,9.13,0,0,1,.57-3.27,7.5,7.5,0,0,1,1.6-2.56,7.16,7.16,0,0,1,2.46-1.67,8.19,8.19,0,0,1,3.16-.59,7.73,7.73,0,0,1,3,.56,7.48,7.48,0,0,1,2.28,1.48l-.85,1.2a.92.92,0,0,1-.21.21.55.55,0,0,1-.33.09.89.89,0,0,1-.5-.2,8,8,0,0,0-.71-.45,5.28,5.28,0,0,0-2.72-.65,5.33,5.33,0,0,0-2.08.4,4.49,4.49,0,0,0-1.63,1.15,5.37,5.37,0,0,0-1.06,1.85,7.5,7.5,0,0,0-.38,2.48,7.28,7.28,0,0,0,.4,2.49,5.4,5.4,0,0,0,1.09,1.85,4.65,4.65,0,0,0,1.63,1.15,5.1,5.1,0,0,0,2,.4,8.76,8.76,0,0,0,1.18-.07,4.7,4.7,0,0,0,1-.23,4.46,4.46,0,0,0,.83-.4,5.26,5.26,0,0,0,.78-.59A.66.66,0,0,1,877.56,73.65Z" transform="translate(-48.99 -60.9)"/><path d="M885.36,65.78a6,6,0,0,1,2.25.41,4.82,4.82,0,0,1,1.72,1.15,5.12,5.12,0,0,1,1.09,1.81,7.66,7.66,0,0,1,0,4.8,5.18,5.18,0,0,1-1.09,1.82,4.78,4.78,0,0,1-1.72,1.16,6.45,6.45,0,0,1-4.51,0,4.84,4.84,0,0,1-1.72-1.16,5.15,5.15,0,0,1-1.1-1.82,7.66,7.66,0,0,1,0-4.8,5.09,5.09,0,0,1,1.1-1.81,4.87,4.87,0,0,1,1.72-1.15A6,6,0,0,1,885.36,65.78Zm0,9.71a2.61,2.61,0,0,0,2.26-1,4.88,4.88,0,0,0,.74-2.91,4.94,4.94,0,0,0-.74-2.92,2.6,2.6,0,0,0-2.26-1,2.64,2.64,0,0,0-2.29,1,4.9,4.9,0,0,0-.75,2.92,4.85,4.85,0,0,0,.75,2.91A2.65,2.65,0,0,0,885.36,75.49Z" transform="translate(-48.99 -60.9)"/><path d="M895.48,60.9V77.18h-2.37V60.9Z" transform="translate(-48.99 -60.9)"/><path d="M903.26,65.78a6,6,0,0,1,2.25.41,4.82,4.82,0,0,1,1.72,1.15,5.14,5.14,0,0,1,1.09,1.81,7.66,7.66,0,0,1,0,4.8,5.19,5.19,0,0,1-1.09,1.82,4.78,4.78,0,0,1-1.72,1.16,6.45,6.45,0,0,1-4.51,0,4.83,4.83,0,0,1-1.72-1.16,5.13,5.13,0,0,1-1.1-1.82,7.66,7.66,0,0,1,0-4.8,5.08,5.08,0,0,1,1.1-1.81A4.87,4.87,0,0,1,901,66.19,6,6,0,0,1,903.26,65.78Zm0,9.71a2.61,2.61,0,0,0,2.26-1,4.88,4.88,0,0,0,.74-2.91,4.93,4.93,0,0,0-.74-2.92,2.6,2.6,0,0,0-2.26-1,2.64,2.64,0,0,0-2.29,1,4.91,4.91,0,0,0-.75,2.92,4.86,4.86,0,0,0,.75,2.91A2.65,2.65,0,0,0,903.26,75.49Z" transform="translate(-48.99 -60.9)"/><path d="M913.18,67.44a7.13,7.13,0,0,1,.75-.68,5,5,0,0,1,.83-.52,4.46,4.46,0,0,1,.94-.34,4.54,4.54,0,0,1,1.08-.12,4,4,0,0,1,1.62.31,3.24,3.24,0,0,1,1.18.87,3.74,3.74,0,0,1,.72,1.35,5.88,5.88,0,0,1,.24,1.73v7.14h-2.35V70a2.67,2.67,0,0,0-.52-1.76,2,2,0,0,0-1.59-.63,3.06,3.06,0,0,0-1.47.36,5,5,0,0,0-1.27,1v8.17H911V66h1.43a.58.58,0,0,1,.62.45Z" transform="translate(-48.99 -60.9)"/><path d="M925.52,67.44a7.13,7.13,0,0,1,.75-.68,5,5,0,0,1,.83-.52,4.46,4.46,0,0,1,.94-.34,4.54,4.54,0,0,1,1.08-.12,4,4,0,0,1,1.62.31,3.24,3.24,0,0,1,1.18.87,3.74,3.74,0,0,1,.72,1.35,5.88,5.88,0,0,1,.24,1.73v7.14h-2.35V70a2.67,2.67,0,0,0-.52-1.76,2,2,0,0,0-1.59-.63,3.06,3.06,0,0,0-1.47.36,5,5,0,0,0-1.27,1v8.17h-2.37V66h1.43a.58.58,0,0,1,.62.45Z" transform="translate(-48.99 -60.9)"/><path d="M935.38,67.52a6.43,6.43,0,0,1,4.53-1.77,4.45,4.45,0,0,1,1.72.31,3.45,3.45,0,0,1,1.27.89,3.92,3.92,0,0,1,.78,1.36,5.35,5.35,0,0,1,.27,1.74v7.13h-1.06a1,1,0,0,1-.52-.1.8.8,0,0,1-.3-.42l-.23-.91a10.46,10.46,0,0,1-.85.69,5.33,5.33,0,0,1-.86.51,4.2,4.2,0,0,1-1,.31,5.63,5.63,0,0,1-1.13.1,4.16,4.16,0,0,1-1.27-.19,2.79,2.79,0,0,1-1-.57,2.68,2.68,0,0,1-.68-.94,3.25,3.25,0,0,1-.25-1.32,2.55,2.55,0,0,1,.35-1.27A3.16,3.16,0,0,1,936.33,72a7.43,7.43,0,0,1,2.1-.81,15.29,15.29,0,0,1,3.22-.36V70a2.69,2.69,0,0,0-.52-1.8,1.9,1.9,0,0,0-1.52-.59,3.32,3.32,0,0,0-1.14.17,5.12,5.12,0,0,0-.8.37l-.61.37a1,1,0,0,1-.56.17.67.67,0,0,1-.41-.13,1,1,0,0,1-.28-.31Zm6.27,4.75a15,15,0,0,0-2.13.2,6.07,6.07,0,0,0-1.41.41,1.86,1.86,0,0,0-.78.59,1.29,1.29,0,0,0-.24.75,1.64,1.64,0,0,0,.13.68,1.24,1.24,0,0,0,.35.46,1.43,1.43,0,0,0,.53.26,2.51,2.51,0,0,0,.67.08,3.4,3.4,0,0,0,1.59-.35,5,5,0,0,0,1.29-1Z" transform="translate(-48.99 -60.9)"/><path d="M956.23,60.9V77.18H954.8a.57.57,0,0,1-.61-.45L954,75.5a5.94,5.94,0,0,1-1.6,1.33,4.17,4.17,0,0,1-2.08.51,3.83,3.83,0,0,1-1.72-.38,3.69,3.69,0,0,1-1.32-1.11,5.34,5.34,0,0,1-.85-1.8,9.06,9.06,0,0,1-.3-2.46,7.67,7.67,0,0,1,.34-2.32,5.66,5.66,0,0,1,1-1.85,4.39,4.39,0,0,1,3.53-1.68,3.8,3.8,0,0,1,2.93,1.19v-6Zm-2.37,7.82a2.78,2.78,0,0,0-1.09-.89,3.25,3.25,0,0,0-1.29-.25,2.58,2.58,0,0,0-2.17,1,4.89,4.89,0,0,0-.78,3,7.6,7.6,0,0,0,.18,1.77,3.41,3.41,0,0,0,.51,1.19,2,2,0,0,0,.8.67,2.62,2.62,0,0,0,1.07.21,3,3,0,0,0,1.56-.39,4.49,4.49,0,0,0,1.21-1.11Z" transform="translate(-48.99 -60.9)"/><path d="M960.83,71.75a5.62,5.62,0,0,0,.3,1.66,3.42,3.42,0,0,0,.68,1.16,2.63,2.63,0,0,0,1,.69,3.65,3.65,0,0,0,1.31.23,4,4,0,0,0,1.2-.16,5.63,5.63,0,0,0,.88-.35l.64-.35a1,1,0,0,1,.48-.16.51.51,0,0,1,.44.22l.67.87a4.27,4.27,0,0,1-.95.84,5.48,5.48,0,0,1-1.12.56,6.3,6.3,0,0,1-1.22.31,8.26,8.26,0,0,1-1.22.09,5.87,5.87,0,0,1-2.16-.39A4.8,4.8,0,0,1,960,75.8a5.3,5.3,0,0,1-1.14-1.88,7.48,7.48,0,0,1-.41-2.58,6.31,6.31,0,0,1,.37-2.18,5.2,5.2,0,0,1,1.06-1.76,5,5,0,0,1,1.67-1.18,5.46,5.46,0,0,1,2.23-.43,5.33,5.33,0,0,1,1.91.34,4.2,4.2,0,0,1,1.52,1,4.54,4.54,0,0,1,1,1.59,6,6,0,0,1,.36,2.14,1.5,1.5,0,0,1-.12.74.48.48,0,0,1-.44.19Zm5.64-1.45a3.49,3.49,0,0,0-.17-1.11,2.59,2.59,0,0,0-.5-.89,2.28,2.28,0,0,0-.82-.59,2.78,2.78,0,0,0-1.13-.21,2.74,2.74,0,0,0-2,.74,3.57,3.57,0,0,0-.93,2.07Z" transform="translate(-48.99 -60.9)"/><path d="M939.53,341.82a5.06,5.06,0,0,1-.74.87,4.81,4.81,0,0,1-1,.72,5.6,5.6,0,0,1-1.26.49,5.91,5.91,0,0,1-1.5.18,6.55,6.55,0,0,1-2.52-.48,5.88,5.88,0,0,1-3.29-3.31,6.68,6.68,0,0,1-.47-2.53,6.57,6.57,0,0,1,.48-2.53,6,6,0,0,1,3.31-3.32,6.45,6.45,0,0,1,2.49-.48,6.19,6.19,0,0,1,2.5.53,5.1,5.1,0,0,1,1,.6,3.5,3.5,0,0,1,.76.79l-1,.75a3,3,0,0,0-.5-.58A3.41,3.41,0,0,0,937,333a4.64,4.64,0,0,0-.93-.36,4.12,4.12,0,0,0-1.08-.14,5,5,0,0,0-2.1.42,4.72,4.72,0,0,0-1.57,1.14,5,5,0,0,0-1,1.67,5.89,5.89,0,0,0-.34,2,5.75,5.75,0,0,0,.35,2,5.11,5.11,0,0,0,1,1.67,4.71,4.71,0,0,0,1.57,1.14A4.94,4.94,0,0,0,935,343a4.7,4.7,0,0,0,2-.42,3.74,3.74,0,0,0,1.56-1.36Z" transform="translate(-48.99 -60.9)"/><path d="M949.27,339.79a4.33,4.33,0,0,1-.31,1.67,3.92,3.92,0,0,1-2.22,2.2,4.8,4.8,0,0,1-3.42,0,3.92,3.92,0,0,1-2.22-2.2,4.57,4.57,0,0,1,0-3.33,3.92,3.92,0,0,1,2.22-2.2,4.8,4.8,0,0,1,3.42,0,4,4,0,0,1,1.34.88,4,4,0,0,1,.88,1.33A4.34,4.34,0,0,1,949.27,339.79Zm-1.22,0a3.64,3.64,0,0,0-.21-1.25,3.06,3.06,0,0,0-.6-1,2.85,2.85,0,0,0-1-.69,3,3,0,0,0-1.26-.25,3,3,0,0,0-1.25.25,2.86,2.86,0,0,0-.94.69,3,3,0,0,0-.6,1,3.77,3.77,0,0,0,0,2.5,3,3,0,0,0,.6,1,2.76,2.76,0,0,0,.94.68A3,3,0,0,0,945,343a3.1,3.1,0,0,0,1.26-.25,2.76,2.76,0,0,0,1-.68,3.06,3.06,0,0,0,.6-1A3.64,3.64,0,0,0,948,339.79Z" transform="translate(-48.99 -60.9)"/><path d="M952.94,343.77h-1.16V330.92h1.16Z" transform="translate(-48.99 -60.9)"/><path d="M963.94,339.79a4.33,4.33,0,0,1-.31,1.67,3.92,3.92,0,0,1-2.22,2.2,4.8,4.8,0,0,1-3.42,0,3.92,3.92,0,0,1-2.22-2.2,4.57,4.57,0,0,1,0-3.33,3.92,3.92,0,0,1,2.22-2.2,4.8,4.8,0,0,1,3.42,0,4,4,0,0,1,1.34.88,4,4,0,0,1,.88,1.33A4.34,4.34,0,0,1,963.94,339.79Zm-1.22,0a3.64,3.64,0,0,0-.21-1.25,3.06,3.06,0,0,0-.6-1,2.85,2.85,0,0,0-1-.69,3,3,0,0,0-1.26-.25,3,3,0,0,0-1.25.25,2.86,2.86,0,0,0-.94.69,3,3,0,0,0-.6,1,3.77,3.77,0,0,0,0,2.5,3,3,0,0,0,.6,1,2.76,2.76,0,0,0,.94.68,3,3,0,0,0,1.25.25,3.1,3.1,0,0,0,1.26-.25,2.76,2.76,0,0,0,1-.68,3.06,3.06,0,0,0,.6-1A3.64,3.64,0,0,0,962.71,339.79Z" transform="translate(-48.99 -60.9)"/><path d="M967.46,335.82q0,.32.05.71c0,.26,0,.48,0,.65h0a2.62,2.62,0,0,1,1.11-1.13,3.22,3.22,0,0,1,1.62-.43,2.8,2.8,0,0,1,2.27.9,3.58,3.58,0,0,1,.76,2.38v4.88h-1.16v-4.4a5.8,5.8,0,0,0-.1-1.14,2.4,2.4,0,0,0-.35-.88,1.66,1.66,0,0,0-.66-.57,2.36,2.36,0,0,0-1-.2,2.23,2.23,0,0,0-.89.19,2.19,2.19,0,0,0-.77.57,2.83,2.83,0,0,0-.54,1,4.2,4.2,0,0,0-.2,1.39v4.08h-1.16v-6.21c0-.21,0-.49,0-.83s0-.65-.05-.92Z" transform="translate(-48.99 -60.9)"/><path d="M977.33,335.82q0,.32.05.71c0,.26,0,.48,0,.65h0a2.62,2.62,0,0,1,1.11-1.13,3.22,3.22,0,0,1,1.62-.43,2.8,2.8,0,0,1,2.27.9,3.58,3.58,0,0,1,.76,2.38v4.88H982v-4.4a5.8,5.8,0,0,0-.1-1.14,2.4,2.4,0,0,0-.35-.88,1.66,1.66,0,0,0-.66-.57,2.36,2.36,0,0,0-1-.2,2.23,2.23,0,0,0-.89.19,2.19,2.19,0,0,0-.77.57,2.83,2.83,0,0,0-.54,1,4.2,4.2,0,0,0-.2,1.39v4.08H976.3v-6.21c0-.21,0-.49,0-.83s0-.65-.05-.92Z" transform="translate(-48.99 -60.9)"/><path d="M991.19,338.62a2,2,0,0,0-.54-1.54,2.24,2.24,0,0,0-1.58-.51,3.41,3.41,0,0,0-1.33.25,3.17,3.17,0,0,0-1,.68l-.65-.77a3.81,3.81,0,0,1,1.3-.82,4.89,4.89,0,0,1,1.83-.32,4,4,0,0,1,1.21.18,2.86,2.86,0,0,1,1,.54,2.42,2.42,0,0,1,.66.9,3.15,3.15,0,0,1,.24,1.27V342c0,.31,0,.62,0,1a6.73,6.73,0,0,0,.1.83h-1c0-.19-.06-.4-.08-.63s0-.45,0-.66h0a3.35,3.35,0,0,1-1.23,1.15,3.63,3.63,0,0,1-1.66.35,3.71,3.71,0,0,1-.94-.13,2.62,2.62,0,0,1-.88-.42,2.36,2.36,0,0,1-.66-.75,2.23,2.23,0,0,1-.26-1.13,2.15,2.15,0,0,1,.47-1.46,2.8,2.8,0,0,1,1.25-.8,7.35,7.35,0,0,1,1.79-.34q1-.08,2.1-.08Zm-.34,1.17q-.71,0-1.44.06a6.32,6.32,0,0,0-1.31.24,2.48,2.48,0,0,0-1,.52,1.16,1.16,0,0,0-.37.9,1.45,1.45,0,0,0,.16.71,1.32,1.32,0,0,0,.43.47,1.84,1.84,0,0,0,.6.25,3,3,0,0,0,.67.08,2.65,2.65,0,0,0,1.09-.21,2.3,2.3,0,0,0,.8-.58,2.56,2.56,0,0,0,.49-.84,3,3,0,0,0,.17-1v-.6Z" transform="translate(-48.99 -60.9)"/><path d="M1001.8,342.43a3.27,3.27,0,0,1-1.33,1.16,3.85,3.85,0,0,1-1.68.39,4.27,4.27,0,0,1-1.69-.32,3.85,3.85,0,0,1-1.29-.88,4,4,0,0,1-.83-1.33,4.73,4.73,0,0,1,0-3.3,4,4,0,0,1,.83-1.33,3.86,3.86,0,0,1,1.29-.88,4.27,4.27,0,0,1,1.69-.32,3.79,3.79,0,0,1,1.68.4,3.3,3.3,0,0,1,1.33,1.18h0v-6.27H1003v12.85h-1.16v-1.34Zm-5.9-2.64a3.78,3.78,0,0,0,.2,1.25,3,3,0,0,0,.59,1,2.69,2.69,0,0,0,.94.68,3.14,3.14,0,0,0,1.27.25,3,3,0,0,0,2.19-.92,3.05,3.05,0,0,0,.64-1,3.61,3.61,0,0,0,0-2.53,3.15,3.15,0,0,0-.64-1,2.94,2.94,0,0,0-1-.68,3,3,0,0,0-1.22-.25,3,3,0,0,0-1.27.25,2.77,2.77,0,0,0-.94.69,3,3,0,0,0-.59,1A3.78,3.78,0,0,0,995.9,339.79Z" transform="translate(-48.99 -60.9)"/><path d="M1013.32,339.56v.25a2.77,2.77,0,0,1,0,.29h-6.6a3.09,3.09,0,0,0,.24,1.12,2.84,2.84,0,0,0,.61.92,2.94,2.94,0,0,0,.92.62,3,3,0,0,0,2.69-.19,3.12,3.12,0,0,0,1-1l.87.68a4.31,4.31,0,0,1-1.57,1.29,4.4,4.4,0,0,1-1.84.39,4.24,4.24,0,0,1-1.64-.31,3.84,3.84,0,0,1-1.3-.88,4.12,4.12,0,0,1-.86-1.33,4.33,4.33,0,0,1-.31-1.67,4.44,4.44,0,0,1,.31-1.67,4,4,0,0,1,.85-1.33,3.92,3.92,0,0,1,2.86-1.19,4.06,4.06,0,0,1,1.65.31,3.4,3.4,0,0,1,1.19.85,3.66,3.66,0,0,1,.72,1.25A4.67,4.67,0,0,1,1013.32,339.56Zm-1.17-.37a2.87,2.87,0,0,0-.72-1.86,2.45,2.45,0,0,0-1.91-.74,2.68,2.68,0,0,0-1.07.21,2.84,2.84,0,0,0-.87.58,2.88,2.88,0,0,0-.59.83,2.68,2.68,0,0,0-.25,1Z" transform="translate(-48.99 -60.9)"/><path d="M920.62,212h6.44v1.09h-7.67v-12h7.46v1.09h-6.24v4.13h5.83v1.09h-5.83Z" transform="translate(-48.99 -60.9)"/><path d="M930.43,205.15q0,.32.05.71c0,.26,0,.48,0,.65h0a2.62,2.62,0,0,1,1.1-1.13,3.23,3.23,0,0,1,1.62-.43,2.8,2.8,0,0,1,2.27.9,3.58,3.58,0,0,1,.76,2.38v4.88h-1.16v-4.4a5.88,5.88,0,0,0-.1-1.14,2.4,2.4,0,0,0-.35-.88,1.67,1.67,0,0,0-.66-.57,2.37,2.37,0,0,0-1-.2,2.24,2.24,0,0,0-.89.19,2.19,2.19,0,0,0-.77.57,2.84,2.84,0,0,0-.54,1,4.23,4.23,0,0,0-.2,1.39v4.08h-1.16V206.9c0-.21,0-.49,0-.83s0-.65-.05-.92Z" transform="translate(-48.99 -60.9)"/><path d="M942.85,206.12h-2.24v4.64a2.64,2.64,0,0,0,.08.73,1,1,0,0,0,.25.45.84.84,0,0,0,.38.22,1.83,1.83,0,0,0,.48.06,2,2,0,0,0,.5-.07,2.47,2.47,0,0,0,.5-.19l.05,1a3.44,3.44,0,0,1-.64.18,4.11,4.11,0,0,1-.72.06,2.93,2.93,0,0,1-.68-.08,1.71,1.71,0,0,1-.66-.32,1.76,1.76,0,0,1-.5-.65,2.5,2.5,0,0,1-.2-1.07v-5H937.8v-1h1.65V202.9h1.16v2.24h2.24Z" transform="translate(-48.99 -60.9)"/><path d="M949.67,208a2,2,0,0,0-.54-1.54,2.24,2.24,0,0,0-1.58-.51,3.41,3.41,0,0,0-1.33.25,3.17,3.17,0,0,0-1,.68l-.65-.77a3.81,3.81,0,0,1,1.3-.82,4.89,4.89,0,0,1,1.83-.32,4,4,0,0,1,1.21.18,2.86,2.86,0,0,1,1,.54,2.42,2.42,0,0,1,.66.9,3.15,3.15,0,0,1,.24,1.27v3.48c0,.31,0,.62,0,1a6.73,6.73,0,0,0,.1.83h-1c0-.19-.06-.4-.08-.63s0-.45,0-.66h0a3.35,3.35,0,0,1-1.23,1.15,3.63,3.63,0,0,1-1.66.35,3.71,3.71,0,0,1-.94-.13,2.62,2.62,0,0,1-.88-.42,2.36,2.36,0,0,1-.66-.75,2.23,2.23,0,0,1-.26-1.13,2.15,2.15,0,0,1,.47-1.46,2.8,2.8,0,0,1,1.25-.8,7.35,7.35,0,0,1,1.79-.34q1-.08,2.1-.08Zm-.34,1.17q-.71,0-1.44.06a6.32,6.32,0,0,0-1.31.24,2.48,2.48,0,0,0-1,.52,1.16,1.16,0,0,0-.37.9,1.45,1.45,0,0,0,.16.71,1.32,1.32,0,0,0,.43.47,1.84,1.84,0,0,0,.6.25,3,3,0,0,0,.67.08,2.65,2.65,0,0,0,1.09-.21,2.3,2.3,0,0,0,.8-.58,2.56,2.56,0,0,0,.49-.84,3,3,0,0,0,.17-1v-.6Z" transform="translate(-48.99 -60.9)"/><path d="M954.92,211.76v1.34h-1.16V200.25h1.16v6.27h0a3.29,3.29,0,0,1,1.33-1.18,3.79,3.79,0,0,1,1.68-.4,4.27,4.27,0,0,1,1.69.32,3.85,3.85,0,0,1,1.29.88,4,4,0,0,1,.83,1.33,4.71,4.71,0,0,1,0,3.3,4,4,0,0,1-.83,1.33,3.84,3.84,0,0,1-1.29.88,4.27,4.27,0,0,1-1.69.32,3.85,3.85,0,0,1-1.68-.39,3.27,3.27,0,0,1-1.33-1.16Zm5.93-2.64a3.78,3.78,0,0,0-.2-1.25,3,3,0,0,0-.59-1,2.76,2.76,0,0,0-.94-.69,3.05,3.05,0,0,0-1.28-.25,3,3,0,0,0-1.22.25,2.93,2.93,0,0,0-1,.68,3.12,3.12,0,0,0-.64,1,3.61,3.61,0,0,0,0,2.53,3,3,0,0,0,2.83,1.93,3.14,3.14,0,0,0,1.28-.25,2.67,2.67,0,0,0,.94-.68,3,3,0,0,0,.59-1A3.78,3.78,0,0,0,960.86,209.13Z" transform="translate(-48.99 -60.9)"/><path d="M965.75,213.1H964.6V200.25h1.16Z" transform="translate(-48.99 -60.9)"/><path d="M973.86,208a2,2,0,0,0-.54-1.54,2.24,2.24,0,0,0-1.58-.51,3.41,3.41,0,0,0-1.33.25,3.17,3.17,0,0,0-1,.68l-.65-.77a3.81,3.81,0,0,1,1.3-.82,4.88,4.88,0,0,1,1.83-.32,4,4,0,0,1,1.21.18,2.86,2.86,0,0,1,1,.54,2.43,2.43,0,0,1,.66.9,3.17,3.17,0,0,1,.24,1.27v3.48q0,.46,0,1a6.53,6.53,0,0,0,.1.83h-1q-.05-.29-.08-.63a6.44,6.44,0,0,1,0-.66h0a3.35,3.35,0,0,1-1.23,1.15,3.63,3.63,0,0,1-1.66.35,3.69,3.69,0,0,1-.94-.13,2.63,2.63,0,0,1-.88-.42,2.35,2.35,0,0,1-.66-.75,2.22,2.22,0,0,1-.26-1.13,2.15,2.15,0,0,1,.47-1.46,2.81,2.81,0,0,1,1.25-.8,7.35,7.35,0,0,1,1.79-.34q1-.08,2.1-.08Zm-.34,1.17q-.71,0-1.44.06a6.31,6.31,0,0,0-1.31.24,2.47,2.47,0,0,0-1,.52,1.16,1.16,0,0,0-.37.9,1.44,1.44,0,0,0,.16.71,1.32,1.32,0,0,0,.43.47,1.83,1.83,0,0,0,.6.25,3,3,0,0,0,.67.08,2.64,2.64,0,0,0,1.09-.21,2.29,2.29,0,0,0,.8-.58,2.54,2.54,0,0,0,.49-.84,3,3,0,0,0,.17-1v-.6Z" transform="translate(-48.99 -60.9)"/><path d="M981.34,206.12H979.1v4.64a2.64,2.64,0,0,0,.08.73,1,1,0,0,0,.25.45.84.84,0,0,0,.38.22,1.83,1.83,0,0,0,.48.06,2,2,0,0,0,.5-.07,2.47,2.47,0,0,0,.5-.19l.05,1a3.44,3.44,0,0,1-.64.18,4.11,4.11,0,0,1-.72.06,2.93,2.93,0,0,1-.68-.08,1.71,1.71,0,0,1-.66-.32,1.76,1.76,0,0,1-.5-.65,2.5,2.5,0,0,1-.2-1.07v-5h-1.65v-1h1.65V202.9h1.16v2.24h2.24Z" transform="translate(-48.99 -60.9)"/><path d="M988.92,213.1c0-.22,0-.45-.05-.71s0-.48,0-.65h0a2.62,2.62,0,0,1-1.1,1.13,3.23,3.23,0,0,1-1.62.43,2.8,2.8,0,0,1-2.27-.9,3.58,3.58,0,0,1-.76-2.38v-4.88h1.16v4.4a5.8,5.8,0,0,0,.1,1.14,2.38,2.38,0,0,0,.35.88,1.66,1.66,0,0,0,.66.57,2.37,2.37,0,0,0,1,.2,2.23,2.23,0,0,0,.89-.19,2.19,2.19,0,0,0,.77-.57,2.84,2.84,0,0,0,.54-1,4.23,4.23,0,0,0,.2-1.39v-4.08H990v6.21c0,.22,0,.49,0,.83s0,.65.05.92Z" transform="translate(-48.99 -60.9)"/><path d="M993,206.07q0-.51-.05-.92h1.1q0,.32.05.71c0,.26,0,.48,0,.65h0a2.76,2.76,0,0,1,1-1.13,2.79,2.79,0,0,1,1.53-.43l.4,0a2.22,2.22,0,0,1,.37.07l-.15,1.1-.34-.07a3.41,3.41,0,0,0-.48,0,2.36,2.36,0,0,0-.88.17,1.89,1.89,0,0,0-.74.53,2.82,2.82,0,0,0-.51.93,4.23,4.23,0,0,0-.2,1.37v4.07H993V206.9C993,206.68,993,206.41,993,206.07Z" transform="translate(-48.99 -60.9)"/><path d="M1006.08,208.89v.25a2.54,2.54,0,0,1,0,.29h-6.6a3.09,3.09,0,0,0,.24,1.12,2.82,2.82,0,0,0,.61.92,3,3,0,0,0,.92.62,3,3,0,0,0,2.7-.19,3.11,3.11,0,0,0,1-1l.87.68a4.32,4.32,0,0,1-1.57,1.29,4.4,4.4,0,0,1-1.84.39,4.23,4.23,0,0,1-1.64-.31,3.85,3.85,0,0,1-1.3-.88,4.16,4.16,0,0,1-.86-1.33,4.33,4.33,0,0,1-.31-1.67,4.46,4.46,0,0,1,.31-1.67,4,4,0,0,1,.85-1.33,3.91,3.91,0,0,1,1.27-.88,4,4,0,0,1,1.58-.31,4.06,4.06,0,0,1,1.65.31,3.42,3.42,0,0,1,1.19.85,3.66,3.66,0,0,1,.72,1.25A4.67,4.67,0,0,1,1006.08,208.89Zm-1.17-.37a2.87,2.87,0,0,0-.72-1.86,2.45,2.45,0,0,0-1.91-.74,2.67,2.67,0,0,0-1.07.21,2.86,2.86,0,0,0-1.46,1.41,2.7,2.7,0,0,0-.26,1Z" transform="translate(-48.99 -60.9)"/><line class="cls-2" x1="1268.52" y1="101.05" x2="1268.52" y2="183.05"/><path class="cls-2" d="M1324.51,160.11s4,45,4,51,1,31.5,1,35" transform="translate(-48.99 -60.9)"/><path class="cls-2" d="M1336.18,159.28l.67,42.33s1.33,31.67-.33,48.67" transform="translate(-48.99 -60.9)"/><path class="cls-2" d="M1342.51,157.28s3,53.33,4.33,64,0,27,0,27" transform="translate(-48.99 -60.9)"/><path class="cls-2" d="M1356.51,153.94s-2,43.67,1,93.67" transform="translate(-48.99 -60.9)"/><path class="cls-2" d="M1365.18,154.94s1.67,44.67,3.67,59.67,1.33,33.33,1.33,33.33" transform="translate(-48.99 -60.9)"/><path class="cls-2" d="M1377.84,154.61s1.67,89.33,1.67,91.33" transform="translate(-48.99 -60.9)"/><path class="cls-2" d="M1386.51,153.61s0,90.33.33,92.33" transform="translate(-48.99 -60.9)"/><line class="cls-2" x1="1346.85" y1="95.71" x2="1346.85" y2="185.05"/><path class="cls-2" d="M1403.51,160.28s1,41.67,2,48.67,1,38.33,1,38.33" transform="translate(-48.99 -60.9)"/><path class="cls-2" d="M1413.18,164.94s3,77.67,4,82.67" transform="translate(-48.99 -60.9)"/><line class="cls-2" x1="1377.52" y1="102.71" x2="1377.85" y2="186.71"/><path class="cls-2" d="M1433.18,162.94s1,21.67,3,41,1.67,45.33,1.67,45.33" transform="translate(-48.99 -60.9)"/><line class="cls-2" x1="1395.85" y1="101.05" x2="1395.52" y2="187.05"/><path class="cls-2" d="M1452.18,164.61s5,67.33,4.67,82.33" transform="translate(-48.99 -60.9)"/><path class="cls-2" d="M1462.18,166.28s.33,31,3,52,1.33,29.67,1.33,29.67" transform="translate(-48.99 -60.9)"/><line class="cls-2" x1="1423.85" y1="106.38" x2="1424.19" y2="189.05"/><path class="cls-2" d="M1478.51,169.28s5,44.33,5.33,80.33" transform="translate(-48.99 -60.9)"/><path class="cls-2" d="M1487.51,169.61s3,53.67,4.33,79.33" transform="translate(-48.99 -60.9)"/><path class="cls-2" d="M1318.84,254.94s-3,7.67-6.67,9" transform="translate(-48.99 -60.9)"/><path class="cls-2" d="M1330.51,256.28s2,14-19.67,30.33" transform="translate(-48.99 -60.9)"/><path class="cls-2" d="M1339.84,256.28s1.67,14.67-25.33,35.33" transform="translate(-48.99 -60.9)"/><path class="cls-2" d="M1343.84,273.28s-2,17.67-25.33,28.33" transform="translate(-48.99 -60.9)"/><path class="cls-2" d="M1350.18,285.94s-2.67,7-6.33,10.67" transform="translate(-48.99 -60.9)"/><path class="cls-2" d="M1352.84,295.28s4.33,5,8,5.67" transform="translate(-48.99 -60.9)"/><path class="cls-2" d="M1349.18,262.28s4.67,23.67,27,38" transform="translate(-48.99 -60.9)"/><path class="cls-2" d="M1353.18,251.94s16.33,32,38.33,46.33" transform="translate(-48.99 -60.9)"/><path class="cls-2" d="M1367.84,253.28s7.33,32,39,44.67" transform="translate(-48.99 -60.9)"/><path class="cls-2" d="M1379.18,256.94s4,16.33,24.67,26" transform="translate(-48.99 -60.9)"/><path class="cls-2" d="M1392.84,258.28s19.33,20,25.33,35" transform="translate(-48.99 -60.9)"/><path class="cls-2" d="M1407.18,256.28s6,5.33,7.33,9.33" transform="translate(-48.99 -60.9)"/><path class="cls-2" d="M1433.84,257.94s-2.33,16-10.67,23" transform="translate(-48.99 -60.9)"/><path class="cls-2" d="M1444.51,254.28s.67,15.67-16,32" transform="translate(-48.99 -60.9)"/><path class="cls-2" d="M1456.84,256.61s-1.33,18.67-24,42" transform="translate(-48.99 -60.9)"/><path class="cls-2" d="M1463.84,270.94s-6.33,18.67-20.33,29.67" transform="translate(-48.99 -60.9)"/><path class="cls-2" d="M1468.18,285.61s-.33,7.33-11,17.33" transform="translate(-48.99 -60.9)"/><path class="cls-2" d="M1471.51,257.94s0,32.67,23,45.67" transform="translate(-48.99 -60.9)"/><path class="cls-2" d="M1482.18,262.94s5,15.33,10.33,18.33" transform="translate(-48.99 -60.9)"/><path class="cls-2" d="M1318.18,310.94s.33,126.33.33,129.67" transform="translate(-48.99 -60.9)"/><path class="cls-2" d="M1337.51,310.28s6.33,120.67,5.33,135.67" transform="translate(-48.99 -60.9)"/><path class="cls-2" d="M1360.18,308.94s5.33,86.67,5.33,103.33-.67,33.67-.67,33.67" transform="translate(-48.99 -60.9)"/><path class="cls-2" d="M1378.18,311.28l.67,64.67s1.67,31,2.67,40.33,1.33,31.33,1.33,31.33" transform="translate(-48.99 -60.9)"/><path class="cls-2" d="M1399.51,308.94s-2,45.33-2,57.33.67,45,.67,45l.67,33.67" transform="translate(-48.99 -60.9)"/><path class="cls-2" d="M1415.18,309.28s.33,53,2,73,2.67,46,2,62.67" transform="translate(-48.99 -60.9)"/><path class="cls-2" d="M1435.84,312.94s-2,55.33-2,64,1.67,32,1.67,35.67-.33,33-.33,33" transform="translate(-48.99 -60.9)"/><polyline class="cls-2" points="1404.19 254.38 1404.19 344.38 1404.52 383.38"/><path class="cls-2" d="M1468.84,313.28s3.33,70.67,4.33,82,0,47.33,0,47.33" transform="translate(-48.99 -60.9)"/><line class="cls-2" x1="1437.85" y1="249.71" x2="1443.85" y2="380.71"/><path class="cls-2" d="M1498.84,315.28s5,94,5,103,1.67,26,1.67,26" transform="translate(-48.99 -60.9)"/><path class="cls-1" d="M1315.41,152.61s55.85-10,84.85,0,78-3,90,8c0,0,14,73,14,85s9,117,10,127,5,62,28,67,55-2,60,0" transform="translate(-48.99 -60.9)"/><path d="M1276,61.34V77.18h-2.27V66.32q0-.26,0-.58t0-.63l-5.09,9.4a1,1,0,0,1-.91.58h-.36a1,1,0,0,1-.91-.58l-5.17-9.43q0,.32,0,.64c0,.21,0,.41,0,.59V77.18h-2.27V61.34h1.92a1.79,1.79,0,0,1,.53.06.66.66,0,0,1,.34.37L1267,71q.17.32.31.65t.27.69q.13-.35.28-.7t.31-.67l5-9.19a.66.66,0,0,1,.34-.37,1.79,1.79,0,0,1,.53-.06Z" transform="translate(-48.99 -60.9)"/><path d="M1288.57,66V77.18h-1.43a.57.57,0,0,1-.6-.45l-.18-1a6.8,6.8,0,0,1-.74.68,4.82,4.82,0,0,1-.83.53,4.41,4.41,0,0,1-.94.34,4.55,4.55,0,0,1-1.07.12,4,4,0,0,1-1.63-.31,3.24,3.24,0,0,1-1.18-.87,3.75,3.75,0,0,1-.72-1.35,5.84,5.84,0,0,1-.24-1.73V66h2.36v7.14a2.68,2.68,0,0,0,.52,1.76,2,2,0,0,0,1.59.63,3.08,3.08,0,0,0,1.46-.36,5,5,0,0,0,1.27-1V66Z" transform="translate(-48.99 -60.9)"/><path d="M1293.86,60.9V77.18h-2.37V60.9Z" transform="translate(-48.99 -60.9)"/><path d="M1307.67,77.18h-2.37V67.82h-5.47v6.37a1.31,1.31,0,0,0,.3.92,1,1,0,0,0,.79.32,1.41,1.41,0,0,0,.47-.07,2.16,2.16,0,0,0,.34-.15L1302,75a.34.34,0,0,1,.52.15l.7,1.15a3.83,3.83,0,0,1-1.3.74,4.68,4.68,0,0,1-1.54.26,2.84,2.84,0,0,1-2.15-.79,3.08,3.08,0,0,1-.75-2.22V67.82h-1.23a.5.5,0,0,1-.34-.13.48.48,0,0,1-.14-.38v-1l1.82-.26.52-3.25a.63.63,0,0,1,.19-.3.52.52,0,0,1,.35-.12h1.21v3.69h7.83Zm.48-14.66a1.43,1.43,0,0,1-.13.6,1.59,1.59,0,0,1-.35.5,1.67,1.67,0,0,1-.51.34,1.52,1.52,0,0,1-.61.13,1.44,1.44,0,0,1-.6-.13,1.66,1.66,0,0,1-.84-.84,1.43,1.43,0,0,1-.13-.6,1.54,1.54,0,0,1,.13-.62,1.61,1.61,0,0,1,.34-.51,1.65,1.65,0,0,1,.5-.34,1.44,1.44,0,0,1,.6-.13,1.52,1.52,0,0,1,.61.13,1.68,1.68,0,0,1,.51.34,1.56,1.56,0,0,1,.35.51A1.54,1.54,0,0,1,1308.16,62.51Z" transform="translate(-48.99 -60.9)"/><path d="M1312.9,67.58a5.9,5.9,0,0,1,1.6-1.33,4.17,4.17,0,0,1,2.08-.51,3.82,3.82,0,0,1,1.72.38,3.69,3.69,0,0,1,1.32,1.11,5.37,5.37,0,0,1,.85,1.8,9.1,9.1,0,0,1,.3,2.46,7.72,7.72,0,0,1-.34,2.32,5.65,5.65,0,0,1-1,1.86A4.5,4.5,0,0,1,1318,76.9a4.44,4.44,0,0,1-2,.45,4,4,0,0,1-1.68-.32,4.35,4.35,0,0,1-1.25-.88v4.76h-2.37V66h1.43a.58.58,0,0,1,.62.45Zm.12,6.78a2.84,2.84,0,0,0,1.08.9,3.21,3.21,0,0,0,1.3.26,2.57,2.57,0,0,0,2.16-1,4.91,4.91,0,0,0,.78-3,7.66,7.66,0,0,0-.18-1.77,3.42,3.42,0,0,0-.51-1.19,1.94,1.94,0,0,0-.8-.67,2.62,2.62,0,0,0-1.07-.21,3,3,0,0,0-1.56.39,4.42,4.42,0,0,0-1.21,1.12Z" transform="translate(-48.99 -60.9)"/><path d="M1325.48,60.9V77.18h-2.37V60.9Z" transform="translate(-48.99 -60.9)"/><path d="M1330.12,71.75a5.62,5.62,0,0,0,.3,1.66,3.42,3.42,0,0,0,.68,1.16,2.63,2.63,0,0,0,1,.69,3.65,3.65,0,0,0,1.31.23,4,4,0,0,0,1.2-.16,5.63,5.63,0,0,0,.88-.35l.64-.35a1,1,0,0,1,.48-.16.51.51,0,0,1,.44.22l.67.87a4.27,4.27,0,0,1-.95.84,5.48,5.48,0,0,1-1.12.56,6.3,6.3,0,0,1-1.22.31,8.26,8.26,0,0,1-1.22.09,5.87,5.87,0,0,1-2.16-.39,4.8,4.8,0,0,1-1.73-1.15,5.3,5.3,0,0,1-1.14-1.88,7.48,7.48,0,0,1-.41-2.58,6.31,6.31,0,0,1,.37-2.18,5.2,5.2,0,0,1,1.06-1.76,5,5,0,0,1,1.67-1.18,5.46,5.46,0,0,1,2.23-.43,5.33,5.33,0,0,1,1.91.34,4.2,4.2,0,0,1,1.52,1,4.54,4.54,0,0,1,1,1.59,6,6,0,0,1,.36,2.14,1.5,1.5,0,0,1-.12.74.48.48,0,0,1-.44.19Zm5.64-1.45a3.49,3.49,0,0,0-.17-1.11,2.59,2.59,0,0,0-.5-.89,2.28,2.28,0,0,0-.82-.59,2.78,2.78,0,0,0-1.13-.21,2.74,2.74,0,0,0-2,.74,3.57,3.57,0,0,0-.93,2.07Z" transform="translate(-48.99 -60.9)"/><path d="M1355.9,75.1v2.08H1346V61.34h9.88v2.08h-7.29v4.77h5.83v2h-5.83v4.9Z" transform="translate(-48.99 -60.9)"/><path d="M1360.19,67.44a7.22,7.22,0,0,1,.75-.68,5,5,0,0,1,.83-.52,4.43,4.43,0,0,1,.93-.34,4.54,4.54,0,0,1,1.08-.12,4,4,0,0,1,1.62.31,3.25,3.25,0,0,1,1.18.87,3.76,3.76,0,0,1,.72,1.35,5.88,5.88,0,0,1,.24,1.73v7.14h-2.35V70a2.67,2.67,0,0,0-.52-1.76,2,2,0,0,0-1.59-.63,3.06,3.06,0,0,0-1.47.36,5,5,0,0,0-1.27,1v8.17H1358V66h1.43a.58.58,0,0,1,.62.45Z" transform="translate(-48.99 -60.9)"/><path d="M1373.76,77.35a2.84,2.84,0,0,1-2.15-.79,3.07,3.07,0,0,1-.75-2.22V67.82h-1.23a.5.5,0,0,1-.34-.13.48.48,0,0,1-.14-.38v-1l1.81-.26.52-3.25a.62.62,0,0,1,.19-.3.52.52,0,0,1,.35-.12h1.21v3.69h3.11v1.71h-3.11v6.37a1.31,1.31,0,0,0,.3.92,1,1,0,0,0,.79.32,1.4,1.4,0,0,0,.47-.07,2.12,2.12,0,0,0,.34-.15l.25-.15a.34.34,0,0,1,.52.15l.7,1.15a3.85,3.85,0,0,1-1.3.74A4.69,4.69,0,0,1,1373.76,77.35Z" transform="translate(-48.99 -60.9)"/><path d="M1377.93,67.52a6.43,6.43,0,0,1,4.53-1.77,4.45,4.45,0,0,1,1.72.31,3.45,3.45,0,0,1,1.27.89,3.92,3.92,0,0,1,.78,1.36,5.35,5.35,0,0,1,.27,1.74v7.13h-1.06a1,1,0,0,1-.52-.1.8.8,0,0,1-.3-.42l-.23-.91a10.46,10.46,0,0,1-.85.69,5.33,5.33,0,0,1-.86.51,4.2,4.2,0,0,1-1,.31,5.63,5.63,0,0,1-1.13.1,4.16,4.16,0,0,1-1.27-.19,2.79,2.79,0,0,1-1-.57,2.68,2.68,0,0,1-.68-.94,3.25,3.25,0,0,1-.25-1.32,2.55,2.55,0,0,1,.35-1.27,3.16,3.16,0,0,1,1.14-1.11,7.43,7.43,0,0,1,2.1-.81,15.29,15.29,0,0,1,3.22-.36V70a2.69,2.69,0,0,0-.52-1.8,1.9,1.9,0,0,0-1.52-.59,3.32,3.32,0,0,0-1.14.17,5.12,5.12,0,0,0-.8.37l-.61.37a1,1,0,0,1-.56.17.67.67,0,0,1-.41-.13,1,1,0,0,1-.28-.31Zm6.27,4.75a15,15,0,0,0-2.13.2,6.07,6.07,0,0,0-1.41.41,1.86,1.86,0,0,0-.78.59,1.29,1.29,0,0,0-.24.75,1.64,1.64,0,0,0,.13.68,1.24,1.24,0,0,0,.35.46,1.43,1.43,0,0,0,.53.26,2.51,2.51,0,0,0,.67.08,3.4,3.4,0,0,0,1.59-.35,5,5,0,0,0,1.29-1Z" transform="translate(-48.99 -60.9)"/><path d="M1391.62,67.44a5.66,5.66,0,0,1,1.55-1.21,4.14,4.14,0,0,1,2-.45,4,4,0,0,1,1.77.38,3.7,3.7,0,0,1,1.34,1.09,5.21,5.21,0,0,1,.85,1.73,8.17,8.17,0,0,1,.3,2.29,8.6,8.6,0,0,1-.33,2.48,5.73,5.73,0,0,1-1,1.91,4.32,4.32,0,0,1-1.52,1.23,4.49,4.49,0,0,1-2,.43,4.27,4.27,0,0,1-1-.1,3.41,3.41,0,0,1-.81-.3,3.56,3.56,0,0,1-.69-.47,5.18,5.18,0,0,1-.6-.63l-.1.87a.6.6,0,0,1-.2.36.64.64,0,0,1-.4.11h-1.54V60.9h2.37Zm0,6.92a2.84,2.84,0,0,0,1.08.9,3.15,3.15,0,0,0,1.28.26,2.59,2.59,0,0,0,2.18-1,5.12,5.12,0,0,0,.78-3.14,4.7,4.7,0,0,0-.68-2.83,2.28,2.28,0,0,0-1.93-.89,2.86,2.86,0,0,0-1.51.39,4.49,4.49,0,0,0-1.21,1.12Z" transform="translate(-48.99 -60.9)"/><path d="M1404.08,60.9V77.18h-2.37V60.9Z" transform="translate(-48.99 -60.9)"/><path d="M1406.73,67.52a6.43,6.43,0,0,1,4.53-1.77,4.45,4.45,0,0,1,1.72.31,3.44,3.44,0,0,1,1.26.89,3.92,3.92,0,0,1,.78,1.36,5.35,5.35,0,0,1,.27,1.74v7.13h-1.06a1,1,0,0,1-.52-.1.81.81,0,0,1-.3-.42l-.23-.91a10.29,10.29,0,0,1-.85.69,5.32,5.32,0,0,1-.86.51,4.21,4.21,0,0,1-1,.31,5.63,5.63,0,0,1-1.13.1,4.17,4.17,0,0,1-1.27-.19,2.79,2.79,0,0,1-1-.57,2.69,2.69,0,0,1-.68-.94,3.25,3.25,0,0,1-.25-1.32,2.56,2.56,0,0,1,.35-1.27,3.16,3.16,0,0,1,1.14-1.11,7.42,7.42,0,0,1,2.1-.81,15.28,15.28,0,0,1,3.22-.36V70a2.69,2.69,0,0,0-.52-1.8,1.9,1.9,0,0,0-1.52-.59,3.33,3.33,0,0,0-1.14.17,5.17,5.17,0,0,0-.8.37l-.6.37a1,1,0,0,1-.56.17.67.67,0,0,1-.41-.13,1,1,0,0,1-.28-.31Zm6.27,4.75a15,15,0,0,0-2.13.2,6.06,6.06,0,0,0-1.41.41,1.86,1.86,0,0,0-.78.59,1.28,1.28,0,0,0-.24.75,1.64,1.64,0,0,0,.13.68,1.23,1.23,0,0,0,.35.46,1.43,1.43,0,0,0,.53.26,2.52,2.52,0,0,0,.67.08,3.4,3.4,0,0,0,1.59-.35,5,5,0,0,0,1.29-1Z" transform="translate(-48.99 -60.9)"/><path d="M1421.5,77.35a2.84,2.84,0,0,1-2.15-.79,3.07,3.07,0,0,1-.75-2.22V67.82h-1.23a.5.5,0,0,1-.34-.13.48.48,0,0,1-.14-.38v-1l1.81-.26.52-3.25a.62.62,0,0,1,.19-.3.52.52,0,0,1,.35-.12H1421v3.69h3.11v1.71H1421v6.37a1.31,1.31,0,0,0,.3.92,1,1,0,0,0,.79.32,1.4,1.4,0,0,0,.47-.07,2.12,2.12,0,0,0,.34-.15l.25-.15a.34.34,0,0,1,.52.15l.7,1.15a3.85,3.85,0,0,1-1.3.74A4.69,4.69,0,0,1,1421.5,77.35Z" transform="translate(-48.99 -60.9)"/><path d="M1435.4,66V77.18H1434a.57.57,0,0,1-.6-.45l-.18-1a6.8,6.8,0,0,1-.74.68,4.82,4.82,0,0,1-.83.53,4.41,4.41,0,0,1-.94.34,4.55,4.55,0,0,1-1.07.12A4,4,0,0,1,1428,77a3.24,3.24,0,0,1-1.18-.87,3.75,3.75,0,0,1-.72-1.35,5.84,5.84,0,0,1-.24-1.73V66h2.36v7.14a2.68,2.68,0,0,0,.52,1.76,2,2,0,0,0,1.59.63,3.08,3.08,0,0,0,1.46-.36,5,5,0,0,0,1.27-1V66Z" transform="translate(-48.99 -60.9)"/><path d="M1440.52,68a5,5,0,0,1,1.28-1.68,2.92,2.92,0,0,1,2.47-.53,1.93,1.93,0,0,1,.57.25l-.17,1.78a.44.44,0,0,1-.14.26.4.4,0,0,1-.25.07,2.68,2.68,0,0,1-.47-.06,3.34,3.34,0,0,0-.65-.06,2.48,2.48,0,0,0-.87.14,2.11,2.11,0,0,0-.68.42,2.8,2.8,0,0,0-.53.67,6.56,6.56,0,0,0-.43.9v7h-2.37V66h1.38a.75.75,0,0,1,.52.14.85.85,0,0,1,.2.48Z" transform="translate(-48.99 -60.9)"/><path d="M1447.73,71.75a5.62,5.62,0,0,0,.3,1.66,3.42,3.42,0,0,0,.68,1.16,2.63,2.63,0,0,0,1,.69,3.65,3.65,0,0,0,1.31.23,4,4,0,0,0,1.2-.16,5.63,5.63,0,0,0,.88-.35l.64-.35a1,1,0,0,1,.48-.16.51.51,0,0,1,.44.22l.67.87a4.27,4.27,0,0,1-.95.84,5.48,5.48,0,0,1-1.12.56,6.3,6.3,0,0,1-1.22.31,8.26,8.26,0,0,1-1.22.09,5.87,5.87,0,0,1-2.16-.39,4.8,4.8,0,0,1-1.73-1.15,5.3,5.3,0,0,1-1.14-1.88,7.48,7.48,0,0,1-.41-2.58,6.31,6.31,0,0,1,.37-2.18,5.2,5.2,0,0,1,1.06-1.76,5,5,0,0,1,1.67-1.18,5.46,5.46,0,0,1,2.23-.43,5.33,5.33,0,0,1,1.91.34,4.2,4.2,0,0,1,1.52,1,4.54,4.54,0,0,1,1,1.59,6,6,0,0,1,.36,2.14,1.5,1.5,0,0,1-.12.74.48.48,0,0,1-.44.19Zm5.64-1.45a3.49,3.49,0,0,0-.17-1.11,2.59,2.59,0,0,0-.5-.89,2.28,2.28,0,0,0-.82-.59,2.78,2.78,0,0,0-1.13-.21,2.74,2.74,0,0,0-2,.74,3.57,3.57,0,0,0-.93,2.07Z" transform="translate(-48.99 -60.9)"/><path d="M1473.44,70.69h-4.37V75.3h-1.92V70.69h-4.35V68.9h4.35v-4.6h1.92v4.6h4.37Z" transform="translate(-48.99 -60.9)"/><path d="M1492.86,73.65a.48.48,0,0,1,.36.16l1,1.11a6.51,6.51,0,0,1-2.38,1.8,8.17,8.17,0,0,1-3.37.63,7.92,7.92,0,0,1-3.14-.6,6.9,6.9,0,0,1-2.39-1.67,7.43,7.43,0,0,1-1.52-2.56,9.61,9.61,0,0,1-.53-3.27,9.13,9.13,0,0,1,.57-3.27,7.5,7.5,0,0,1,1.6-2.56,7.16,7.16,0,0,1,2.46-1.67,8.19,8.19,0,0,1,3.16-.59,7.73,7.73,0,0,1,3,.56A7.48,7.48,0,0,1,1494,63.2l-.85,1.2a.92.92,0,0,1-.21.21.55.55,0,0,1-.33.09.89.89,0,0,1-.5-.2,8,8,0,0,0-.71-.45,5.28,5.28,0,0,0-2.72-.65,5.33,5.33,0,0,0-2.08.4,4.49,4.49,0,0,0-1.63,1.15,5.37,5.37,0,0,0-1.06,1.85,7.5,7.5,0,0,0-.38,2.48,7.28,7.28,0,0,0,.4,2.49A5.4,5.4,0,0,0,1485,73.6a4.65,4.65,0,0,0,1.63,1.15,5.1,5.1,0,0,0,2,.4,8.76,8.76,0,0,0,1.18-.07,4.7,4.7,0,0,0,1-.23,4.46,4.46,0,0,0,.83-.4,5.26,5.26,0,0,0,.78-.59A.66.66,0,0,1,1492.86,73.65Z" transform="translate(-48.99 -60.9)"/><path d="M1500.65,65.78a6,6,0,0,1,2.25.41,4.82,4.82,0,0,1,1.72,1.15,5.14,5.14,0,0,1,1.09,1.81,7.66,7.66,0,0,1,0,4.8,5.19,5.19,0,0,1-1.09,1.82,4.78,4.78,0,0,1-1.72,1.16,6.45,6.45,0,0,1-4.51,0,4.83,4.83,0,0,1-1.72-1.16,5.13,5.13,0,0,1-1.1-1.82,7.66,7.66,0,0,1,0-4.8,5.08,5.08,0,0,1,1.1-1.81,4.87,4.87,0,0,1,1.72-1.15A6,6,0,0,1,1500.65,65.78Zm0,9.71a2.61,2.61,0,0,0,2.26-1,4.88,4.88,0,0,0,.74-2.91,4.93,4.93,0,0,0-.74-2.92,2.6,2.6,0,0,0-2.26-1,2.64,2.64,0,0,0-2.29,1,4.91,4.91,0,0,0-.75,2.92,4.86,4.86,0,0,0,.75,2.91A2.65,2.65,0,0,0,1500.65,75.49Z" transform="translate(-48.99 -60.9)"/><path d="M1510.77,60.9V77.18h-2.37V60.9Z" transform="translate(-48.99 -60.9)"/><path d="M1518.55,65.78a6,6,0,0,1,2.25.41,4.82,4.82,0,0,1,1.72,1.15,5.14,5.14,0,0,1,1.09,1.81,7.66,7.66,0,0,1,0,4.8,5.19,5.19,0,0,1-1.09,1.82,4.78,4.78,0,0,1-1.72,1.16,6.45,6.45,0,0,1-4.51,0,4.83,4.83,0,0,1-1.72-1.16,5.13,5.13,0,0,1-1.1-1.82,7.66,7.66,0,0,1,0-4.8,5.08,5.08,0,0,1,1.1-1.81,4.87,4.87,0,0,1,1.72-1.15A6,6,0,0,1,1518.55,65.78Zm0,9.71a2.61,2.61,0,0,0,2.26-1,4.88,4.88,0,0,0,.74-2.91,4.93,4.93,0,0,0-.74-2.92,2.6,2.6,0,0,0-2.26-1,2.64,2.64,0,0,0-2.29,1,4.91,4.91,0,0,0-.75,2.92,4.86,4.86,0,0,0,.75,2.91A2.65,2.65,0,0,0,1518.55,75.49Z" transform="translate(-48.99 -60.9)"/><path d="M1528.47,67.44a7.13,7.13,0,0,1,.75-.68,5,5,0,0,1,.83-.52,4.46,4.46,0,0,1,.94-.34,4.54,4.54,0,0,1,1.08-.12,4,4,0,0,1,1.62.31,3.24,3.24,0,0,1,1.18.87,3.74,3.74,0,0,1,.72,1.35,5.88,5.88,0,0,1,.24,1.73v7.14h-2.35V70a2.67,2.67,0,0,0-.52-1.76,2,2,0,0,0-1.59-.63,3.06,3.06,0,0,0-1.47.36,5,5,0,0,0-1.27,1v8.17h-2.37V66h1.43a.58.58,0,0,1,.62.45Z" transform="translate(-48.99 -60.9)"/><path d="M1540.81,67.44a7.13,7.13,0,0,1,.75-.68,5,5,0,0,1,.83-.52,4.46,4.46,0,0,1,.94-.34,4.54,4.54,0,0,1,1.08-.12,4,4,0,0,1,1.62.31,3.24,3.24,0,0,1,1.18.87,3.74,3.74,0,0,1,.72,1.35,5.88,5.88,0,0,1,.24,1.73v7.14h-2.35V70a2.67,2.67,0,0,0-.52-1.76,2,2,0,0,0-1.59-.63,3.06,3.06,0,0,0-1.47.36,5,5,0,0,0-1.27,1v8.17h-2.37V66H1540a.58.58,0,0,1,.62.45Z" transform="translate(-48.99 -60.9)"/><path d="M1550.67,67.52a6.43,6.43,0,0,1,4.53-1.77,4.45,4.45,0,0,1,1.72.31,3.45,3.45,0,0,1,1.27.89,3.92,3.92,0,0,1,.78,1.36,5.35,5.35,0,0,1,.27,1.74v7.13h-1.06a1,1,0,0,1-.52-.1.8.8,0,0,1-.3-.42l-.23-.91a10.46,10.46,0,0,1-.85.69,5.33,5.33,0,0,1-.86.51,4.2,4.2,0,0,1-1,.31,5.63,5.63,0,0,1-1.13.1,4.16,4.16,0,0,1-1.27-.19,2.79,2.79,0,0,1-1-.57,2.68,2.68,0,0,1-.68-.94,3.25,3.25,0,0,1-.25-1.32,2.55,2.55,0,0,1,.35-1.27,3.16,3.16,0,0,1,1.14-1.11,7.43,7.43,0,0,1,2.1-.81,15.29,15.29,0,0,1,3.22-.36V70a2.69,2.69,0,0,0-.52-1.8,1.9,1.9,0,0,0-1.52-.59,3.32,3.32,0,0,0-1.14.17,5.12,5.12,0,0,0-.8.37l-.61.37a1,1,0,0,1-.56.17.67.67,0,0,1-.41-.13,1,1,0,0,1-.28-.31Zm6.27,4.75a15,15,0,0,0-2.13.2,6.07,6.07,0,0,0-1.41.41,1.86,1.86,0,0,0-.78.59,1.29,1.29,0,0,0-.24.75,1.64,1.64,0,0,0,.13.68,1.24,1.24,0,0,0,.35.46,1.43,1.43,0,0,0,.53.26,2.51,2.51,0,0,0,.67.08,3.4,3.4,0,0,0,1.59-.35,5,5,0,0,0,1.29-1Z" transform="translate(-48.99 -60.9)"/><path d="M1571.53,60.9V77.18h-1.43a.57.57,0,0,1-.61-.45l-.21-1.22a5.94,5.94,0,0,1-1.6,1.33,4.17,4.17,0,0,1-2.08.51,3.83,3.83,0,0,1-1.72-.38,3.69,3.69,0,0,1-1.32-1.11,5.34,5.34,0,0,1-.85-1.8,9.06,9.06,0,0,1-.3-2.46,7.67,7.67,0,0,1,.34-2.32,5.66,5.66,0,0,1,1-1.85,4.39,4.39,0,0,1,3.53-1.68,3.8,3.8,0,0,1,2.93,1.19v-6Zm-2.37,7.82a2.78,2.78,0,0,0-1.09-.89,3.25,3.25,0,0,0-1.29-.25,2.58,2.58,0,0,0-2.17,1,4.89,4.89,0,0,0-.78,3,7.6,7.6,0,0,0,.18,1.77,3.41,3.41,0,0,0,.51,1.19,2,2,0,0,0,.8.67,2.62,2.62,0,0,0,1.07.21,3,3,0,0,0,1.56-.39,4.49,4.49,0,0,0,1.21-1.11Z" transform="translate(-48.99 -60.9)"/><path d="M1576.13,71.75a5.59,5.59,0,0,0,.3,1.66,3.4,3.4,0,0,0,.68,1.16,2.63,2.63,0,0,0,1,.69,3.64,3.64,0,0,0,1.31.23,4,4,0,0,0,1.2-.16,5.65,5.65,0,0,0,.88-.35l.64-.35a1,1,0,0,1,.48-.16.5.5,0,0,1,.44.22l.67.87a4.25,4.25,0,0,1-.95.84,5.53,5.53,0,0,1-1.12.56,6.33,6.33,0,0,1-1.22.31,8.25,8.25,0,0,1-1.22.09,5.86,5.86,0,0,1-2.16-.39,4.8,4.8,0,0,1-1.73-1.15,5.3,5.3,0,0,1-1.14-1.88,7.46,7.46,0,0,1-.41-2.58,6.31,6.31,0,0,1,.37-2.18,5.19,5.19,0,0,1,1.06-1.76,5,5,0,0,1,1.67-1.18,5.46,5.46,0,0,1,2.23-.43,5.33,5.33,0,0,1,1.91.34,4.19,4.19,0,0,1,1.52,1,4.53,4.53,0,0,1,1,1.59,6,6,0,0,1,.36,2.14,1.5,1.5,0,0,1-.12.74.49.49,0,0,1-.44.19Zm5.64-1.45a3.46,3.46,0,0,0-.17-1.11,2.59,2.59,0,0,0-.5-.89,2.28,2.28,0,0,0-.82-.59,2.79,2.79,0,0,0-1.13-.21,2.74,2.74,0,0,0-2,.74,3.57,3.57,0,0,0-.94,2.07Z" transform="translate(-48.99 -60.9)"/><path d="M1529.46,380.52h5.61v1.09h-6.83v-12h1.22Z" transform="translate(-48.99 -60.9)"/><path d="M1544.44,377.63a4.35,4.35,0,0,1-.31,1.67,4,4,0,0,1-.88,1.33,4,4,0,0,1-1.34.88,4.57,4.57,0,0,1-1.72.31,4.52,4.52,0,0,1-1.7-.31,4,4,0,0,1-1.34-.88,4,4,0,0,1-.88-1.33,4.57,4.57,0,0,1,0-3.33,4,4,0,0,1,.88-1.33,4,4,0,0,1,1.34-.88,4.52,4.52,0,0,1,1.7-.31,4.57,4.57,0,0,1,1.72.31,4,4,0,0,1,1.34.88,4,4,0,0,1,.88,1.33A4.35,4.35,0,0,1,1544.44,377.63Zm-1.22,0a3.64,3.64,0,0,0-.21-1.25,3.07,3.07,0,0,0-.6-1,2.85,2.85,0,0,0-1-.69,3,3,0,0,0-1.26-.25,3,3,0,0,0-1.25.25,2.88,2.88,0,0,0-.94.69,3.06,3.06,0,0,0-.6,1,3.77,3.77,0,0,0,0,2.5,3.06,3.06,0,0,0,.6,1,2.78,2.78,0,0,0,.94.68,3,3,0,0,0,1.25.25,3.1,3.1,0,0,0,1.26-.25,2.76,2.76,0,0,0,1-.68,3.07,3.07,0,0,0,.6-1A3.64,3.64,0,0,0,1543.22,377.63Z" transform="translate(-48.99 -60.9)"/><path d="M1547.08,373.65l1.92,6.46h0l2.14-6.46h1.12l2.18,6.46h0l1.9-6.46h1.22l-2.52,8h-1.26l-2.12-6.44h0l-2.09,6.44h-1.26l-2.52-8Z" transform="translate(-48.99 -60.9)"/><path d="M1566.85,377.39v.25a2.54,2.54,0,0,1,0,.29h-6.6a3.09,3.09,0,0,0,.24,1.12,2.82,2.82,0,0,0,.61.92,3,3,0,0,0,.92.62,3,3,0,0,0,2.7-.19,3.11,3.11,0,0,0,1-1l.87.68a4.32,4.32,0,0,1-1.57,1.29,4.4,4.4,0,0,1-1.84.39,4.23,4.23,0,0,1-1.64-.31,3.85,3.85,0,0,1-1.3-.88,4.16,4.16,0,0,1-.86-1.33,4.33,4.33,0,0,1-.31-1.67,4.46,4.46,0,0,1,.31-1.67,4,4,0,0,1,.85-1.33,3.91,3.91,0,0,1,1.27-.88,4,4,0,0,1,1.58-.31,4.06,4.06,0,0,1,1.65.31,3.42,3.42,0,0,1,1.19.85,3.66,3.66,0,0,1,.72,1.25A4.67,4.67,0,0,1,1566.85,377.39Zm-1.17-.37a2.87,2.87,0,0,0-.72-1.86,2.45,2.45,0,0,0-1.91-.74,2.67,2.67,0,0,0-1.07.21,2.86,2.86,0,0,0-1.46,1.41,2.7,2.7,0,0,0-.26,1Z" transform="translate(-48.99 -60.9)"/><path d="M1569.31,374.57q0-.51-.05-.92h1.1q0,.32.05.71c0,.26,0,.48,0,.65h0a2.76,2.76,0,0,1,1-1.13,2.79,2.79,0,0,1,1.53-.43l.4,0a2.22,2.22,0,0,1,.37.07l-.15,1.1-.34-.07a3.41,3.41,0,0,0-.48,0,2.36,2.36,0,0,0-.88.17,1.89,1.89,0,0,0-.74.53,2.82,2.82,0,0,0-.51.93,4.23,4.23,0,0,0-.2,1.37v4.07h-1.16v-6.21C1569.33,375.19,1569.32,374.91,1569.31,374.57Z" transform="translate(-48.99 -60.9)"/><path d="M1589.9,379.66a5.06,5.06,0,0,1-.74.87,4.81,4.81,0,0,1-1,.72,5.6,5.6,0,0,1-1.26.49,5.91,5.91,0,0,1-1.5.18,6.55,6.55,0,0,1-2.52-.48,5.88,5.88,0,0,1-3.29-3.31,6.68,6.68,0,0,1-.47-2.53,6.57,6.57,0,0,1,.48-2.53,6,6,0,0,1,3.31-3.32,6.45,6.45,0,0,1,2.49-.48,6.19,6.19,0,0,1,2.5.53,5.1,5.1,0,0,1,1,.6,3.5,3.5,0,0,1,.76.79l-1,.75a3,3,0,0,0-.5-.58,3.41,3.41,0,0,0-.74-.51,4.64,4.64,0,0,0-.93-.36,4.12,4.12,0,0,0-1.08-.14,5,5,0,0,0-2.1.42,4.72,4.72,0,0,0-1.57,1.14,5,5,0,0,0-1,1.67,5.89,5.89,0,0,0-.34,2,5.75,5.75,0,0,0,.35,2,5.11,5.11,0,0,0,1,1.67,4.71,4.71,0,0,0,1.57,1.14,4.94,4.94,0,0,0,2.08.42,4.7,4.7,0,0,0,2-.42,3.74,3.74,0,0,0,1.56-1.36Z" transform="translate(-48.99 -60.9)"/><path d="M1599.64,377.63a4.33,4.33,0,0,1-.31,1.67,3.92,3.92,0,0,1-2.22,2.2,4.8,4.8,0,0,1-3.42,0,3.92,3.92,0,0,1-2.22-2.2,4.57,4.57,0,0,1,0-3.33,3.92,3.92,0,0,1,2.22-2.2,4.8,4.8,0,0,1,3.42,0,4,4,0,0,1,1.34.88,4,4,0,0,1,.88,1.33A4.34,4.34,0,0,1,1599.64,377.63Zm-1.22,0a3.64,3.64,0,0,0-.21-1.25,3.06,3.06,0,0,0-.6-1,2.85,2.85,0,0,0-1-.69,3,3,0,0,0-1.26-.25,3,3,0,0,0-1.25.25,2.86,2.86,0,0,0-.94.69,3,3,0,0,0-.6,1,3.77,3.77,0,0,0,0,2.5,3,3,0,0,0,.6,1,2.76,2.76,0,0,0,.94.68,3,3,0,0,0,1.25.25,3.1,3.1,0,0,0,1.26-.25,2.76,2.76,0,0,0,1-.68,3.06,3.06,0,0,0,.6-1A3.64,3.64,0,0,0,1598.42,377.63Z" transform="translate(-48.99 -60.9)"/><path d="M1603.31,381.61h-1.16V368.76h1.16Z" transform="translate(-48.99 -60.9)"/><path d="M1614.31,377.63a4.33,4.33,0,0,1-.31,1.67,3.92,3.92,0,0,1-2.22,2.2,4.8,4.8,0,0,1-3.42,0,3.92,3.92,0,0,1-2.22-2.2,4.57,4.57,0,0,1,0-3.33,3.92,3.92,0,0,1,2.22-2.2,4.8,4.8,0,0,1,3.42,0,4,4,0,0,1,1.34.88A4,4,0,0,1,1614,376,4.34,4.34,0,0,1,1614.31,377.63Zm-1.22,0a3.64,3.64,0,0,0-.21-1.25,3.06,3.06,0,0,0-.6-1,2.85,2.85,0,0,0-1-.69,3,3,0,0,0-1.26-.25,3,3,0,0,0-1.25.25,2.86,2.86,0,0,0-.94.69,3,3,0,0,0-.6,1,3.77,3.77,0,0,0,0,2.5,3,3,0,0,0,.6,1,2.76,2.76,0,0,0,.94.68,3,3,0,0,0,1.25.25,3.1,3.1,0,0,0,1.26-.25,2.76,2.76,0,0,0,1-.68,3.06,3.06,0,0,0,.6-1A3.64,3.64,0,0,0,1613.09,377.63Z" transform="translate(-48.99 -60.9)"/><path d="M1617.83,373.65q0,.32.05.71c0,.26,0,.48,0,.65h0a2.62,2.62,0,0,1,1.11-1.13,3.22,3.22,0,0,1,1.62-.43,2.8,2.8,0,0,1,2.27.9,3.58,3.58,0,0,1,.76,2.38v4.88h-1.16v-4.4a5.8,5.8,0,0,0-.1-1.14,2.4,2.4,0,0,0-.35-.88,1.66,1.66,0,0,0-.66-.57,2.36,2.36,0,0,0-1-.2,2.23,2.23,0,0,0-.89.19,2.19,2.19,0,0,0-.77.57,2.83,2.83,0,0,0-.54,1,4.2,4.2,0,0,0-.2,1.39v4.08h-1.16v-6.21c0-.21,0-.49,0-.83s0-.65-.05-.92Z" transform="translate(-48.99 -60.9)"/><path d="M1627.71,373.65q0,.32.05.71c0,.26,0,.48,0,.65h0a2.62,2.62,0,0,1,1.1-1.13,3.23,3.23,0,0,1,1.62-.43,2.8,2.8,0,0,1,2.27.9,3.58,3.58,0,0,1,.76,2.38v4.88h-1.16v-4.4a5.88,5.88,0,0,0-.1-1.14,2.4,2.4,0,0,0-.35-.88,1.67,1.67,0,0,0-.66-.57,2.37,2.37,0,0,0-1-.2,2.24,2.24,0,0,0-.89.19,2.19,2.19,0,0,0-.77.57,2.84,2.84,0,0,0-.54,1,4.23,4.23,0,0,0-.2,1.39v4.08h-1.16v-6.21c0-.21,0-.49,0-.83s0-.65-.05-.92Z" transform="translate(-48.99 -60.9)"/><path d="M1641.56,376.46a2,2,0,0,0-.54-1.54,2.24,2.24,0,0,0-1.58-.51,3.41,3.41,0,0,0-1.33.25,3.17,3.17,0,0,0-1,.68l-.65-.77a3.81,3.81,0,0,1,1.3-.82,4.89,4.89,0,0,1,1.83-.32,4,4,0,0,1,1.21.18,2.86,2.86,0,0,1,1,.54,2.42,2.42,0,0,1,.66.9,3.15,3.15,0,0,1,.24,1.27v3.48c0,.31,0,.62,0,1a6.73,6.73,0,0,0,.1.83h-1c0-.19-.06-.4-.08-.63s0-.45,0-.66h0a3.35,3.35,0,0,1-1.23,1.15,3.63,3.63,0,0,1-1.66.35,3.71,3.71,0,0,1-.94-.13,2.62,2.62,0,0,1-.88-.42,2.36,2.36,0,0,1-.66-.75,2.23,2.23,0,0,1-.26-1.13,2.15,2.15,0,0,1,.47-1.46,2.8,2.8,0,0,1,1.25-.8,7.35,7.35,0,0,1,1.79-.34q1-.08,2.1-.08Zm-.34,1.17q-.71,0-1.44.06a6.32,6.32,0,0,0-1.31.24,2.48,2.48,0,0,0-1,.52,1.16,1.16,0,0,0-.37.9,1.45,1.45,0,0,0,.16.71,1.32,1.32,0,0,0,.43.47,1.84,1.84,0,0,0,.6.25,3,3,0,0,0,.67.08,2.65,2.65,0,0,0,1.09-.21,2.3,2.3,0,0,0,.8-.58,2.56,2.56,0,0,0,.49-.84,3,3,0,0,0,.17-1v-.6Z" transform="translate(-48.99 -60.9)"/><path d="M1652.17,380.27a3.27,3.27,0,0,1-1.33,1.16,3.85,3.85,0,0,1-1.68.39,4.27,4.27,0,0,1-1.69-.32,3.85,3.85,0,0,1-1.29-.88,4,4,0,0,1-.83-1.33,4.73,4.73,0,0,1,0-3.3,4,4,0,0,1,.83-1.33,3.86,3.86,0,0,1,1.29-.88,4.27,4.27,0,0,1,1.69-.32,3.79,3.79,0,0,1,1.68.4,3.3,3.3,0,0,1,1.33,1.18h0v-6.27h1.16v12.85h-1.16v-1.34Zm-5.9-2.64a3.78,3.78,0,0,0,.2,1.25,3,3,0,0,0,.59,1,2.69,2.69,0,0,0,.94.68,3.14,3.14,0,0,0,1.27.25,3,3,0,0,0,2.19-.92,3.05,3.05,0,0,0,.64-1,3.61,3.61,0,0,0,0-2.53,3.15,3.15,0,0,0-.64-1,2.94,2.94,0,0,0-1-.68,3,3,0,0,0-1.22-.25,3,3,0,0,0-1.27.25,2.77,2.77,0,0,0-.94.69,3,3,0,0,0-.59,1A3.78,3.78,0,0,0,1646.27,377.63Z" transform="translate(-48.99 -60.9)"/><path d="M1663.69,377.39v.25a2.77,2.77,0,0,1,0,.29h-6.6a3.09,3.09,0,0,0,.24,1.12,2.84,2.84,0,0,0,.61.92,2.94,2.94,0,0,0,.92.62,3,3,0,0,0,2.69-.19,3.12,3.12,0,0,0,1-1l.87.68a4.31,4.31,0,0,1-1.57,1.29,4.4,4.4,0,0,1-1.84.39,4.24,4.24,0,0,1-1.64-.31,3.84,3.84,0,0,1-1.3-.88,4.12,4.12,0,0,1-.86-1.33,4.33,4.33,0,0,1-.31-1.67,4.44,4.44,0,0,1,.31-1.67,4,4,0,0,1,.85-1.33,3.92,3.92,0,0,1,2.86-1.19,4.06,4.06,0,0,1,1.65.31,3.4,3.4,0,0,1,1.19.85,3.66,3.66,0,0,1,.72,1.25A4.67,4.67,0,0,1,1663.69,377.39Zm-1.17-.37a2.87,2.87,0,0,0-.72-1.86,2.45,2.45,0,0,0-1.91-.74,2.68,2.68,0,0,0-1.07.21,2.84,2.84,0,0,0-.87.58,2.88,2.88,0,0,0-.59.83,2.68,2.68,0,0,0-.25,1Z" transform="translate(-48.99 -60.9)"/><path d="M1518.68,208.92a4.67,4.67,0,0,1-2.23-.47,4,4,0,0,1-1.38-1.18,4.32,4.32,0,0,1-.71-1.56,7.06,7.06,0,0,1-.2-1.59v-7.55h1.22V204a5.9,5.9,0,0,0,.17,1.42,3.55,3.55,0,0,0,.55,1.22,2.85,2.85,0,0,0,1,.87,3.78,3.78,0,0,0,3.09,0,2.86,2.86,0,0,0,1-.87,3.55,3.55,0,0,0,.55-1.22A5.9,5.9,0,0,0,1522,204v-7.41h1.22v7.55a7.06,7.06,0,0,1-.2,1.59,4.36,4.36,0,0,1-.71,1.56,4,4,0,0,1-1.39,1.18A4.68,4.68,0,0,1,1518.68,208.92Z" transform="translate(-48.99 -60.9)"/><path d="M1527.4,212.69h-1.16v-12h1.16V202h.05a3.17,3.17,0,0,1,1.32-1.18,3.8,3.8,0,0,1,1.67-.4,4.27,4.27,0,0,1,1.69.32,3.84,3.84,0,0,1,1.29.88,4,4,0,0,1,.83,1.33,4.71,4.71,0,0,1,0,3.3,4,4,0,0,1-.83,1.33,3.84,3.84,0,0,1-1.29.88,4.27,4.27,0,0,1-1.69.32,3.8,3.8,0,0,1-1.67-.4,3.24,3.24,0,0,1-1.32-1.15h-.05Zm5.93-8.06a3.78,3.78,0,0,0-.2-1.25,3,3,0,0,0-.59-1,2.76,2.76,0,0,0-.94-.69,3.05,3.05,0,0,0-1.28-.25,3,3,0,0,0-1.22.25,2.93,2.93,0,0,0-1,.68,3.14,3.14,0,0,0-.64,1,3.61,3.61,0,0,0,0,2.53,3,3,0,0,0,.64,1,3,3,0,0,0,2.19.92,3.14,3.14,0,0,0,1.28-.25,2.67,2.67,0,0,0,.94-.68,3,3,0,0,0,.59-1A3.78,3.78,0,0,0,1533.33,204.63Z" transform="translate(-48.99 -60.9)"/><path d="M1538.19,212.69H1537v-12h1.16V202h.05a3.17,3.17,0,0,1,1.32-1.18,3.8,3.8,0,0,1,1.67-.4,4.27,4.27,0,0,1,1.69.32,3.84,3.84,0,0,1,1.29.88,4,4,0,0,1,.83,1.33,4.71,4.71,0,0,1,0,3.3,4,4,0,0,1-.83,1.33,3.84,3.84,0,0,1-1.29.88,4.27,4.27,0,0,1-1.69.32,3.8,3.8,0,0,1-1.67-.4,3.24,3.24,0,0,1-1.32-1.15h-.05Zm5.93-8.06a3.78,3.78,0,0,0-.2-1.25,3,3,0,0,0-.59-1,2.76,2.76,0,0,0-.94-.69,3.05,3.05,0,0,0-1.28-.25,3,3,0,0,0-1.22.25,2.93,2.93,0,0,0-1,.68,3.14,3.14,0,0,0-.64,1,3.61,3.61,0,0,0,0,2.53,3,3,0,0,0,.64,1,3,3,0,0,0,2.19.92,3.14,3.14,0,0,0,1.28-.25,2.67,2.67,0,0,0,.94-.68,3,3,0,0,0,.59-1A3.78,3.78,0,0,0,1544.13,204.63Z" transform="translate(-48.99 -60.9)"/><path d="M1555.07,204.39v.25a2.77,2.77,0,0,1,0,.29h-6.6a3.09,3.09,0,0,0,.24,1.12,2.84,2.84,0,0,0,.61.92,2.94,2.94,0,0,0,.92.62,3,3,0,0,0,2.69-.19,3.12,3.12,0,0,0,1-1l.87.68a4.31,4.31,0,0,1-1.57,1.29,4.4,4.4,0,0,1-1.84.39,4.24,4.24,0,0,1-1.64-.31,3.84,3.84,0,0,1-1.3-.88,4.12,4.12,0,0,1-.86-1.33,4.33,4.33,0,0,1-.31-1.67,4.44,4.44,0,0,1,.31-1.67,4,4,0,0,1,.85-1.33,3.92,3.92,0,0,1,2.86-1.19,4.06,4.06,0,0,1,1.65.31,3.4,3.4,0,0,1,1.19.85,3.66,3.66,0,0,1,.72,1.25A4.67,4.67,0,0,1,1555.07,204.39Zm-1.17-.37a2.87,2.87,0,0,0-.72-1.86,2.45,2.45,0,0,0-1.91-.74,2.68,2.68,0,0,0-1.07.21,2.84,2.84,0,0,0-.87.58,2.88,2.88,0,0,0-.59.83,2.68,2.68,0,0,0-.25,1Z" transform="translate(-48.99 -60.9)"/><path d="M1557.54,201.57q0-.51-.05-.92h1.1q0,.32.05.71c0,.26,0,.48,0,.65h0a2.76,2.76,0,0,1,1-1.13,2.79,2.79,0,0,1,1.53-.43l.4,0a2.22,2.22,0,0,1,.37.07l-.15,1.1-.34-.07a3.41,3.41,0,0,0-.48,0,2.36,2.36,0,0,0-.88.17,1.89,1.89,0,0,0-.74.53,2.82,2.82,0,0,0-.51.93,4.23,4.23,0,0,0-.2,1.37v4.07h-1.16v-6.21C1557.55,202.19,1557.55,201.91,1557.54,201.57Z" transform="translate(-48.99 -60.9)"/><path d="M1578.13,206.66a5,5,0,0,1-.74.87,4.81,4.81,0,0,1-1,.72,5.6,5.6,0,0,1-1.26.49,5.91,5.91,0,0,1-1.5.18,6.55,6.55,0,0,1-2.52-.48,5.88,5.88,0,0,1-3.29-3.31,6.7,6.7,0,0,1-.47-2.53,6.59,6.59,0,0,1,.48-2.53,6,6,0,0,1,3.31-3.32,6.44,6.44,0,0,1,2.49-.48,6.18,6.18,0,0,1,2.5.53,5.13,5.13,0,0,1,1,.6,3.52,3.52,0,0,1,.76.79l-1,.75a3,3,0,0,0-.5-.58,3.43,3.43,0,0,0-.74-.51,4.69,4.69,0,0,0-.93-.36,4.12,4.12,0,0,0-1.08-.14,5,5,0,0,0-2.1.42,4.72,4.72,0,0,0-1.57,1.14,5,5,0,0,0-1,1.67,5.86,5.86,0,0,0-.34,2,5.75,5.75,0,0,0,.35,2,5.11,5.11,0,0,0,1,1.67,4.71,4.71,0,0,0,1.57,1.14,5,5,0,0,0,2.08.42,4.71,4.71,0,0,0,2-.42,3.73,3.73,0,0,0,1.56-1.36Z" transform="translate(-48.99 -60.9)"/><path d="M1587.87,204.63a4.35,4.35,0,0,1-.31,1.67,4,4,0,0,1-.88,1.33,4,4,0,0,1-1.34.88,4.57,4.57,0,0,1-1.72.31,4.52,4.52,0,0,1-1.7-.31,4,4,0,0,1-1.34-.88,4,4,0,0,1-.88-1.33,4.57,4.57,0,0,1,0-3.33,4,4,0,0,1,.88-1.33,4,4,0,0,1,1.34-.88,4.52,4.52,0,0,1,1.7-.31,4.57,4.57,0,0,1,1.72.31,4,4,0,0,1,1.34.88,4,4,0,0,1,.88,1.33A4.35,4.35,0,0,1,1587.87,204.63Zm-1.22,0a3.64,3.64,0,0,0-.21-1.25,3.07,3.07,0,0,0-.6-1,2.85,2.85,0,0,0-1-.69,3,3,0,0,0-1.26-.25,3,3,0,0,0-1.25.25,2.88,2.88,0,0,0-.94.69,3.06,3.06,0,0,0-.6,1,3.77,3.77,0,0,0,0,2.5,3.06,3.06,0,0,0,.6,1,2.78,2.78,0,0,0,.94.68,3,3,0,0,0,1.25.25,3.1,3.1,0,0,0,1.26-.25,2.76,2.76,0,0,0,1-.68,3.07,3.07,0,0,0,.6-1A3.64,3.64,0,0,0,1586.64,204.63Z" transform="translate(-48.99 -60.9)"/><path d="M1591.54,208.61h-1.16V195.76h1.16Z" transform="translate(-48.99 -60.9)"/><path d="M1602.54,204.63a4.35,4.35,0,0,1-.31,1.67,4,4,0,0,1-.88,1.33,4,4,0,0,1-1.34.88,4.57,4.57,0,0,1-1.72.31,4.52,4.52,0,0,1-1.7-.31,4,4,0,0,1-1.34-.88,4,4,0,0,1-.88-1.33,4.57,4.57,0,0,1,0-3.33,4,4,0,0,1,.88-1.33,4,4,0,0,1,1.34-.88,4.52,4.52,0,0,1,1.7-.31,4.57,4.57,0,0,1,1.72.31,4,4,0,0,1,1.34.88,4,4,0,0,1,.88,1.33A4.35,4.35,0,0,1,1602.54,204.63Zm-1.22,0a3.64,3.64,0,0,0-.21-1.25,3.07,3.07,0,0,0-.6-1,2.85,2.85,0,0,0-1-.69,3,3,0,0,0-1.26-.25,3,3,0,0,0-1.25.25,2.88,2.88,0,0,0-.94.69,3.06,3.06,0,0,0-.6,1,3.77,3.77,0,0,0,0,2.5,3.06,3.06,0,0,0,.6,1,2.78,2.78,0,0,0,.94.68,3,3,0,0,0,1.25.25,3.1,3.1,0,0,0,1.26-.25,2.76,2.76,0,0,0,1-.68,3.07,3.07,0,0,0,.6-1A3.64,3.64,0,0,0,1601.31,204.63Z" transform="translate(-48.99 -60.9)"/><path d="M1606.06,200.65q0,.32.05.71c0,.26,0,.48,0,.65h0a2.62,2.62,0,0,1,1.11-1.13,3.22,3.22,0,0,1,1.62-.43,2.8,2.8,0,0,1,2.27.9,3.58,3.58,0,0,1,.76,2.38v4.88h-1.16v-4.4a5.8,5.8,0,0,0-.1-1.14,2.4,2.4,0,0,0-.35-.88,1.66,1.66,0,0,0-.66-.57,2.36,2.36,0,0,0-1-.2,2.23,2.23,0,0,0-.89.19,2.19,2.19,0,0,0-.77.57,2.83,2.83,0,0,0-.54,1,4.2,4.2,0,0,0-.2,1.39v4.08H1605v-6.21c0-.21,0-.49,0-.83s0-.65-.05-.92Z" transform="translate(-48.99 -60.9)"/><path d="M1615.93,200.65q0,.32.05.71c0,.26,0,.48,0,.65h0a2.62,2.62,0,0,1,1.11-1.13,3.22,3.22,0,0,1,1.62-.43,2.8,2.8,0,0,1,2.27.9,3.58,3.58,0,0,1,.76,2.38v4.88h-1.16v-4.4a5.8,5.8,0,0,0-.1-1.14,2.4,2.4,0,0,0-.35-.88,1.66,1.66,0,0,0-.66-.57,2.36,2.36,0,0,0-1-.2,2.23,2.23,0,0,0-.89.19,2.19,2.19,0,0,0-.77.57,2.83,2.83,0,0,0-.54,1,4.2,4.2,0,0,0-.2,1.39v4.08h-1.16v-6.21c0-.21,0-.49,0-.83s0-.65-.05-.92Z" transform="translate(-48.99 -60.9)"/><path d="M1629.79,203.46a2,2,0,0,0-.54-1.54,2.24,2.24,0,0,0-1.58-.51,3.41,3.41,0,0,0-1.33.25,3.17,3.17,0,0,0-1,.68l-.65-.77a3.81,3.81,0,0,1,1.3-.82,4.88,4.88,0,0,1,1.83-.32,4,4,0,0,1,1.21.18,2.86,2.86,0,0,1,1,.54,2.43,2.43,0,0,1,.66.9,3.17,3.17,0,0,1,.24,1.27v3.48q0,.46,0,1a6.53,6.53,0,0,0,.1.83h-1q-.05-.29-.08-.63a6.44,6.44,0,0,1,0-.66h0a3.35,3.35,0,0,1-1.23,1.15,3.63,3.63,0,0,1-1.66.35,3.69,3.69,0,0,1-.94-.13,2.63,2.63,0,0,1-.88-.42,2.35,2.35,0,0,1-.66-.75,2.22,2.22,0,0,1-.26-1.13,2.15,2.15,0,0,1,.47-1.46,2.81,2.81,0,0,1,1.25-.8,7.35,7.35,0,0,1,1.79-.34q1-.08,2.1-.08Zm-.34,1.17q-.71,0-1.44.06a6.31,6.31,0,0,0-1.31.24,2.47,2.47,0,0,0-1,.52,1.16,1.16,0,0,0-.37.9,1.44,1.44,0,0,0,.16.71,1.32,1.32,0,0,0,.43.47,1.83,1.83,0,0,0,.6.25,3,3,0,0,0,.67.08,2.64,2.64,0,0,0,1.09-.21,2.29,2.29,0,0,0,.8-.58,2.54,2.54,0,0,0,.49-.84,3,3,0,0,0,.17-1v-.6Z" transform="translate(-48.99 -60.9)"/><path d="M1640.4,207.27a3.27,3.27,0,0,1-1.33,1.16,3.85,3.85,0,0,1-1.68.39,4.26,4.26,0,0,1-1.69-.32,3.84,3.84,0,0,1-1.29-.88,4,4,0,0,1-.83-1.33,4.71,4.71,0,0,1,0-3.3,4,4,0,0,1,.83-1.33,3.84,3.84,0,0,1,1.29-.88,4.26,4.26,0,0,1,1.69-.32,3.79,3.79,0,0,1,1.68.4,3.29,3.29,0,0,1,1.33,1.18h0v-6.27h1.16v12.85h-1.16v-1.34Zm-5.9-2.64a3.78,3.78,0,0,0,.2,1.25,3,3,0,0,0,.59,1,2.67,2.67,0,0,0,.94.68,3.14,3.14,0,0,0,1.28.25,3,3,0,0,0,2.83-1.93,3.61,3.61,0,0,0,0-2.53,3.14,3.14,0,0,0-.64-1,2.93,2.93,0,0,0-1-.68,3,3,0,0,0-1.22-.25,3.05,3.05,0,0,0-1.28.25,2.76,2.76,0,0,0-.94.69,3,3,0,0,0-.59,1A3.78,3.78,0,0,0,1634.5,204.63Z" transform="translate(-48.99 -60.9)"/><path d="M1651.92,204.39v.25a2.77,2.77,0,0,1,0,.29h-6.6a3.09,3.09,0,0,0,.24,1.12,2.84,2.84,0,0,0,.61.92,2.94,2.94,0,0,0,.92.62,3,3,0,0,0,2.69-.19,3.12,3.12,0,0,0,1-1l.87.68a4.31,4.31,0,0,1-1.57,1.29,4.4,4.4,0,0,1-1.84.39,4.24,4.24,0,0,1-1.64-.31,3.84,3.84,0,0,1-1.3-.88,4.12,4.12,0,0,1-.86-1.33,4.33,4.33,0,0,1-.31-1.67,4.44,4.44,0,0,1,.31-1.67,4,4,0,0,1,.85-1.33,3.92,3.92,0,0,1,2.86-1.19,4.06,4.06,0,0,1,1.65.31,3.4,3.4,0,0,1,1.19.85,3.66,3.66,0,0,1,.72,1.25A4.67,4.67,0,0,1,1651.92,204.39Zm-1.17-.37a2.87,2.87,0,0,0-.72-1.86,2.45,2.45,0,0,0-1.91-.74,2.68,2.68,0,0,0-1.07.21,2.84,2.84,0,0,0-.87.58,2.88,2.88,0,0,0-.59.83,2.68,2.68,0,0,0-.25,1Z" transform="translate(-48.99 -60.9)"/><path d="M1523.46,284.86h6.44v1.09h-7.67v-12h7.46V275h-6.24v4.13h5.83v1.09h-5.83Z" transform="translate(-48.99 -60.9)"/><path d="M1533.27,278q0,.32.05.71c0,.26,0,.48,0,.65h0a2.62,2.62,0,0,1,1.1-1.13,3.23,3.23,0,0,1,1.62-.43,2.8,2.8,0,0,1,2.27.9,3.58,3.58,0,0,1,.76,2.38v4.88H1538v-4.4a5.88,5.88,0,0,0-.1-1.14,2.4,2.4,0,0,0-.35-.88,1.67,1.67,0,0,0-.66-.57,2.37,2.37,0,0,0-1-.2,2.24,2.24,0,0,0-.89.19,2.19,2.19,0,0,0-.77.57,2.84,2.84,0,0,0-.54,1,4.23,4.23,0,0,0-.2,1.39v4.08h-1.16v-6.21c0-.21,0-.49,0-.83s0-.65-.05-.92Z" transform="translate(-48.99 -60.9)"/><path d="M1545.7,279h-2.24v4.64a2.64,2.64,0,0,0,.08.73,1,1,0,0,0,.25.45.84.84,0,0,0,.38.22,1.83,1.83,0,0,0,.48.06,2,2,0,0,0,.5-.07,2.47,2.47,0,0,0,.5-.19l.05,1a3.44,3.44,0,0,1-.64.18,4.11,4.11,0,0,1-.72.06,2.93,2.93,0,0,1-.68-.08,1.71,1.71,0,0,1-.66-.32,1.76,1.76,0,0,1-.5-.65,2.5,2.5,0,0,1-.2-1.07v-5h-1.65v-1h1.65v-2.24h1.16V278h2.24Z" transform="translate(-48.99 -60.9)"/><path d="M1552.52,280.8a2,2,0,0,0-.54-1.54,2.24,2.24,0,0,0-1.58-.51,3.41,3.41,0,0,0-1.33.25,3.17,3.17,0,0,0-1,.68l-.65-.77a3.81,3.81,0,0,1,1.3-.82,4.89,4.89,0,0,1,1.83-.32,4,4,0,0,1,1.21.18,2.86,2.86,0,0,1,1,.54,2.42,2.42,0,0,1,.66.9,3.15,3.15,0,0,1,.24,1.27v3.48c0,.31,0,.62,0,1a6.73,6.73,0,0,0,.1.83h-1c0-.19-.06-.4-.08-.63s0-.45,0-.66h0a3.35,3.35,0,0,1-1.23,1.15,3.63,3.63,0,0,1-1.66.35,3.71,3.71,0,0,1-.94-.13,2.62,2.62,0,0,1-.88-.42,2.36,2.36,0,0,1-.66-.75,2.23,2.23,0,0,1-.26-1.13,2.15,2.15,0,0,1,.47-1.46,2.8,2.8,0,0,1,1.25-.8,7.35,7.35,0,0,1,1.79-.34q1-.08,2.1-.08Zm-.34,1.17q-.71,0-1.44.06a6.32,6.32,0,0,0-1.31.24,2.48,2.48,0,0,0-1,.52,1.16,1.16,0,0,0-.37.9,1.45,1.45,0,0,0,.16.71,1.32,1.32,0,0,0,.43.47,1.84,1.84,0,0,0,.6.25,3,3,0,0,0,.67.08,2.65,2.65,0,0,0,1.09-.21,2.3,2.3,0,0,0,.8-.58,2.56,2.56,0,0,0,.49-.84,3,3,0,0,0,.17-1V282Z" transform="translate(-48.99 -60.9)"/><path d="M1557.77,284.6v1.34h-1.16V273.09h1.16v6.27h0a3.29,3.29,0,0,1,1.33-1.18,3.79,3.79,0,0,1,1.68-.4,4.27,4.27,0,0,1,1.69.32,3.85,3.85,0,0,1,1.29.88,4,4,0,0,1,.83,1.33,4.71,4.71,0,0,1,0,3.3,4,4,0,0,1-.83,1.33,3.84,3.84,0,0,1-1.29.88,4.27,4.27,0,0,1-1.69.32,3.85,3.85,0,0,1-1.68-.39,3.27,3.27,0,0,1-1.33-1.16Zm5.93-2.64a3.78,3.78,0,0,0-.2-1.25,3,3,0,0,0-.59-1,2.76,2.76,0,0,0-.94-.69,3.05,3.05,0,0,0-1.28-.25,3,3,0,0,0-1.22.25,2.93,2.93,0,0,0-1,.68,3.12,3.12,0,0,0-.64,1,3.61,3.61,0,0,0,0,2.53,3,3,0,0,0,2.83,1.93,3.14,3.14,0,0,0,1.28-.25,2.67,2.67,0,0,0,.94-.68,3,3,0,0,0,.59-1A3.78,3.78,0,0,0,1563.7,282Z" transform="translate(-48.99 -60.9)"/><path d="M1568.6,285.94h-1.16V273.09h1.16Z" transform="translate(-48.99 -60.9)"/><path d="M1576.71,280.8a2,2,0,0,0-.54-1.54,2.24,2.24,0,0,0-1.58-.51,3.41,3.41,0,0,0-1.33.25,3.17,3.17,0,0,0-1,.68l-.65-.77a3.81,3.81,0,0,1,1.3-.82,4.88,4.88,0,0,1,1.83-.32,4,4,0,0,1,1.21.18,2.86,2.86,0,0,1,1,.54,2.43,2.43,0,0,1,.66.9,3.17,3.17,0,0,1,.24,1.27v3.48q0,.46,0,1a6.53,6.53,0,0,0,.1.83h-1q-.05-.29-.08-.63a6.44,6.44,0,0,1,0-.66h0a3.35,3.35,0,0,1-1.23,1.15,3.63,3.63,0,0,1-1.66.35,3.69,3.69,0,0,1-.94-.13,2.63,2.63,0,0,1-.88-.42,2.35,2.35,0,0,1-.66-.75,2.22,2.22,0,0,1-.26-1.13,2.15,2.15,0,0,1,.47-1.46,2.81,2.81,0,0,1,1.25-.8,7.35,7.35,0,0,1,1.79-.34q1-.08,2.1-.08Zm-.34,1.17q-.71,0-1.44.06a6.31,6.31,0,0,0-1.31.24,2.47,2.47,0,0,0-1,.52,1.16,1.16,0,0,0-.37.9,1.44,1.44,0,0,0,.16.71,1.32,1.32,0,0,0,.43.47,1.83,1.83,0,0,0,.6.25,3,3,0,0,0,.67.08,2.64,2.64,0,0,0,1.09-.21,2.29,2.29,0,0,0,.8-.58,2.54,2.54,0,0,0,.49-.84,3,3,0,0,0,.17-1V282Z" transform="translate(-48.99 -60.9)"/><path d="M1584.19,279h-2.24v4.64a2.64,2.64,0,0,0,.08.73,1,1,0,0,0,.25.45.84.84,0,0,0,.38.22,1.83,1.83,0,0,0,.48.06,2,2,0,0,0,.5-.07,2.47,2.47,0,0,0,.5-.19l.05,1a3.44,3.44,0,0,1-.64.18,4.11,4.11,0,0,1-.72.06,2.93,2.93,0,0,1-.68-.08,1.71,1.71,0,0,1-.66-.32,1.76,1.76,0,0,1-.5-.65,2.5,2.5,0,0,1-.2-1.07v-5h-1.65v-1h1.65v-2.24h1.16V278h2.24Z" transform="translate(-48.99 -60.9)"/><path d="M1591.77,285.94c0-.22,0-.45-.05-.71s0-.48,0-.65h0a2.62,2.62,0,0,1-1.1,1.13,3.23,3.23,0,0,1-1.62.43,2.8,2.8,0,0,1-2.27-.9,3.58,3.58,0,0,1-.76-2.38V278h1.16v4.4a5.8,5.8,0,0,0,.1,1.14,2.38,2.38,0,0,0,.35.88,1.66,1.66,0,0,0,.66.57,2.37,2.37,0,0,0,1,.2,2.23,2.23,0,0,0,.89-.19,2.19,2.19,0,0,0,.77-.57,2.84,2.84,0,0,0,.54-1,4.23,4.23,0,0,0,.2-1.39V278h1.16v6.21c0,.22,0,.49,0,.83s0,.65.05.92Z" transform="translate(-48.99 -60.9)"/><path d="M1595.85,278.91q0-.51-.05-.92h1.1q0,.32.05.71c0,.26,0,.48,0,.65h0a2.76,2.76,0,0,1,1-1.13,2.79,2.79,0,0,1,1.53-.43l.4,0a2.22,2.22,0,0,1,.37.07l-.15,1.1-.34-.07a3.41,3.41,0,0,0-.48,0,2.36,2.36,0,0,0-.88.17,1.89,1.89,0,0,0-.74.53,2.82,2.82,0,0,0-.51.93,4.23,4.23,0,0,0-.2,1.37v4.07h-1.16v-6.21C1595.87,279.52,1595.86,279.25,1595.85,278.91Z" transform="translate(-48.99 -60.9)"/><path d="M1608.92,281.73V282a2.54,2.54,0,0,1,0,.29h-6.6a3.09,3.09,0,0,0,.24,1.12,2.82,2.82,0,0,0,.61.92,3,3,0,0,0,.92.62,3,3,0,0,0,2.7-.19,3.11,3.11,0,0,0,1-1l.87.68a4.32,4.32,0,0,1-1.57,1.29,4.4,4.4,0,0,1-1.84.39,4.23,4.23,0,0,1-1.64-.31,3.85,3.85,0,0,1-1.3-.88,4.16,4.16,0,0,1-.86-1.33,4.33,4.33,0,0,1-.31-1.67,4.46,4.46,0,0,1,.31-1.67,4,4,0,0,1,.85-1.33,3.91,3.91,0,0,1,1.27-.88,4,4,0,0,1,1.58-.31,4.06,4.06,0,0,1,1.65.31,3.42,3.42,0,0,1,1.19.85,3.66,3.66,0,0,1,.72,1.25A4.67,4.67,0,0,1,1608.92,281.73Zm-1.17-.37a2.87,2.87,0,0,0-.72-1.86,2.45,2.45,0,0,0-1.91-.74,2.67,2.67,0,0,0-1.07.21,2.86,2.86,0,0,0-1.46,1.41,2.7,2.7,0,0,0-.26,1Z" transform="translate(-48.99 -60.9)"/></g><g id="Layer_2" data-name="Layer 2"><polygon class="cls-3" points="70.22 369.89 58.32 357.99 58.32 354.62 69.03 365.33 69.03 99.69 71.41 99.69 71.41 365.33 82.13 354.62 82.13 357.99 70.22 369.89"/><path d="M57.68,290.1a7.34,7.34,0,0,1-3,.54c-3.23,0-5.66-2-5.66-5.8a5.7,5.7,0,0,1,6-6,6.14,6.14,0,0,1,2.72.51l-.36,1.21a5.38,5.38,0,0,0-2.31-.48c-2.69,0-4.47,1.72-4.47,4.73,0,2.8,1.61,4.61,4.4,4.61a5.92,5.92,0,0,0,2.41-.48Z" transform="translate(-48.99 -60.9)"/><path d="M66.74,286.29a4,4,0,0,1-4.1,4.37,3.91,3.91,0,0,1-3.94-4.23,4,4,0,0,1,4.08-4.37A3.9,3.9,0,0,1,66.74,286.29Zm-6.53.08c0,1.8,1,3.16,2.5,3.16s2.5-1.34,2.5-3.2c0-1.39-.7-3.16-2.46-3.16S60.21,284.81,60.21,286.38Z" transform="translate(-48.99 -60.9)"/><path d="M68.62,278.41h1.5v12.07h-1.5Z" transform="translate(-48.99 -60.9)"/><path d="M79.52,288.23c0,.85,0,1.6.07,2.24H78.26l-.08-1.34h0a3.1,3.1,0,0,1-2.72,1.53c-1.29,0-2.84-.71-2.84-3.6v-4.81h1.5v4.56c0,1.56.48,2.62,1.84,2.62a2.16,2.16,0,0,0,2-1.36,2.19,2.19,0,0,0,.14-.77v-5h1.5Z" transform="translate(-48.99 -60.9)"/><path d="M82,284.47c0-.85,0-1.55-.07-2.23h1.31l.07,1.33h.05a2.84,2.84,0,0,1,2.58-1.51,2.43,2.43,0,0,1,2.33,1.65h0a3.39,3.39,0,0,1,.92-1.07,2.81,2.81,0,0,1,1.82-.58c1.09,0,2.7.71,2.7,3.57v4.84H92.29v-4.66c0-1.58-.58-2.53-1.78-2.53a1.94,1.94,0,0,0-1.77,1.36,2.47,2.47,0,0,0-.12.75v5.08H87.15v-4.93c0-1.31-.58-2.26-1.72-2.26a2.23,2.23,0,0,0-2,2.23v5H82Z" transform="translate(-48.99 -60.9)"/><path d="M96.18,284.47c0-.85,0-1.55-.07-2.23h1.33l.09,1.36h0a3,3,0,0,1,2.72-1.55c1.14,0,2.91.68,2.91,3.5v4.91h-1.5v-4.74c0-1.33-.49-2.43-1.9-2.43a2.19,2.19,0,0,0-2.11,2.23v4.95h-1.5Z" transform="translate(-48.99 -60.9)"/><path d="M61.13,302.65c0,.59-.07,1.26-.07,2.26v4.78c0,1.89-.37,3-1.17,3.76a4.36,4.36,0,0,1-3,1,5.31,5.31,0,0,1-2.74-.68l.37-1.14a4.64,4.64,0,0,0,2.41.65c1.53,0,2.65-.8,2.65-2.87v-.92h0a2.94,2.94,0,0,1-2.62,1.38c-2,0-3.5-1.73-3.5-4,0-2.79,1.82-4.37,3.71-4.37a2.74,2.74,0,0,1,2.57,1.43h0l.07-1.24Zm-1.55,3.25a2.19,2.19,0,0,0-2.18-2.26c-1.43,0-2.45,1.21-2.45,3.11,0,1.61.82,3,2.43,3a2.19,2.19,0,0,0,2.07-1.53,2.59,2.59,0,0,0,.12-.8Z" transform="translate(-48.99 -60.9)"/><path d="M63.44,305.21c0-1,0-1.8-.07-2.57h1.31l.05,1.61h.07a2.47,2.47,0,0,1,2.28-1.8,1.63,1.63,0,0,1,.42.05v1.41a2.23,2.23,0,0,0-.51-.05,2.1,2.1,0,0,0-2,1.92,4.24,4.24,0,0,0-.07.7v4.39H63.44Z" transform="translate(-48.99 -60.9)"/><path d="M76.27,306.69a4,4,0,0,1-4.1,4.37,3.91,3.91,0,0,1-3.94-4.23,4,4,0,0,1,4.08-4.37A3.9,3.9,0,0,1,76.27,306.69Zm-6.53.08c0,1.8,1,3.16,2.5,3.16s2.5-1.34,2.5-3.2c0-1.39-.7-3.16-2.46-3.16S69.75,305.21,69.75,306.78Z" transform="translate(-48.99 -60.9)"/><path d="M78.64,302.65l1.09,4.18c.24.92.46,1.77.61,2.62h.05c.19-.83.46-1.72.73-2.6l1.34-4.2h1.26L85,306.76c.31,1,.54,1.85.73,2.69h.05a24.81,24.81,0,0,1,.63-2.67l1.17-4.13h1.48l-2.65,8.23H85l-1.26-3.93a27.44,27.44,0,0,1-.73-2.7h0a24.35,24.35,0,0,1-.75,2.72l-1.33,3.91H79.59l-2.48-8.23Z" transform="translate(-48.99 -60.9)"/><path d="M92.36,300.28v2.36H94.5v1.14H92.36v4.44c0,1,.29,1.6,1.12,1.6a3.34,3.34,0,0,0,.87-.1l.07,1.12a3.66,3.66,0,0,1-1.33.2,2.07,2.07,0,0,1-1.61-.63,3,3,0,0,1-.58-2.14v-4.49H89.62v-1.14h1.27v-2Z" transform="translate(-48.99 -60.9)"/><path d="M96.18,298.81h1.5v5.13h0a2.78,2.78,0,0,1,1.07-1.05,3.08,3.08,0,0,1,1.53-.42c1.1,0,2.87.68,2.87,3.52v4.9h-1.5v-4.73c0-1.33-.49-2.45-1.9-2.45a2.15,2.15,0,0,0-2,1.5,1.81,1.81,0,0,0-.1.71v5h-1.5Z" transform="translate(-48.99 -60.9)"/><polygon class="cls-3" points="608.66 369.89 596.76 357.99 596.76 354.62 607.47 365.33 607.47 99.69 609.85 99.69 609.85 365.33 620.56 354.62 620.56 357.99 608.66 369.89"/><path d="M596.11,290.1a7.34,7.34,0,0,1-3,.54c-3.23,0-5.66-2-5.66-5.8a5.7,5.7,0,0,1,6-6,6.13,6.13,0,0,1,2.72.51l-.36,1.21a5.38,5.38,0,0,0-2.31-.48c-2.69,0-4.47,1.72-4.47,4.73,0,2.8,1.61,4.61,4.4,4.61a5.92,5.92,0,0,0,2.41-.48Z" transform="translate(-48.99 -60.9)"/><path d="M605.17,286.29a4,4,0,0,1-4.1,4.37,3.91,3.91,0,0,1-3.94-4.23,4,4,0,0,1,4.08-4.37A3.9,3.9,0,0,1,605.17,286.29Zm-6.53.08c0,1.8,1,3.16,2.5,3.16s2.5-1.34,2.5-3.2c0-1.39-.7-3.16-2.46-3.16S598.64,284.81,598.64,286.38Z" transform="translate(-48.99 -60.9)"/><path d="M607.06,278.41h1.5v12.07h-1.5Z" transform="translate(-48.99 -60.9)"/><path d="M618,288.23c0,.85,0,1.6.07,2.24H616.7l-.08-1.34h0a3.09,3.09,0,0,1-2.72,1.53c-1.29,0-2.84-.71-2.84-3.6v-4.81h1.5v4.56c0,1.56.48,2.62,1.84,2.62a2.16,2.16,0,0,0,2-1.36,2.19,2.19,0,0,0,.14-.77v-5H618Z" transform="translate(-48.99 -60.9)"/><path d="M620.44,284.47c0-.85,0-1.55-.07-2.23h1.31l.07,1.33h.05a2.84,2.84,0,0,1,2.58-1.51,2.43,2.43,0,0,1,2.33,1.65h0a3.4,3.4,0,0,1,.92-1.07,2.81,2.81,0,0,1,1.82-.58c1.09,0,2.7.71,2.7,3.57v4.84h-1.46v-4.66c0-1.58-.58-2.53-1.78-2.53a1.94,1.94,0,0,0-1.77,1.36,2.48,2.48,0,0,0-.12.75v5.08h-1.46v-4.93c0-1.31-.58-2.26-1.72-2.26a2.23,2.23,0,0,0-2,2.23v5h-1.46Z" transform="translate(-48.99 -60.9)"/><path d="M634.62,284.47c0-.85,0-1.55-.07-2.23h1.33l.09,1.36h0a3,3,0,0,1,2.72-1.55c1.14,0,2.91.68,2.91,3.5v4.91h-1.5v-4.74c0-1.33-.49-2.43-1.9-2.43a2.2,2.2,0,0,0-2.11,2.23v4.95h-1.5Z" transform="translate(-48.99 -60.9)"/><path d="M599.56,302.65c0,.59-.07,1.26-.07,2.26v4.78c0,1.89-.37,3-1.17,3.76a4.36,4.36,0,0,1-3,1,5.31,5.31,0,0,1-2.74-.68l.37-1.14a4.64,4.64,0,0,0,2.41.65c1.53,0,2.65-.8,2.65-2.87v-.92h0a2.94,2.94,0,0,1-2.62,1.38c-2,0-3.5-1.73-3.5-4,0-2.79,1.82-4.37,3.71-4.37a2.74,2.74,0,0,1,2.57,1.43h0l.07-1.24ZM598,305.89a2.19,2.19,0,0,0-2.18-2.26c-1.43,0-2.45,1.21-2.45,3.11,0,1.61.82,3,2.43,3a2.19,2.19,0,0,0,2.07-1.53,2.6,2.6,0,0,0,.12-.8Z" transform="translate(-48.99 -60.9)"/><path d="M601.87,305.21c0-1,0-1.8-.07-2.57h1.31l.05,1.61h.07a2.47,2.47,0,0,1,2.28-1.8,1.63,1.63,0,0,1,.42.05v1.41a2.24,2.24,0,0,0-.51-.05,2.1,2.1,0,0,0-2,1.92,4.19,4.19,0,0,0-.07.7v4.39h-1.48Z" transform="translate(-48.99 -60.9)"/><path d="M614.71,306.69a4,4,0,0,1-4.1,4.37,3.91,3.91,0,0,1-3.94-4.23,4,4,0,0,1,4.08-4.37A3.9,3.9,0,0,1,614.71,306.69Zm-6.53.08c0,1.8,1,3.16,2.5,3.16s2.5-1.34,2.5-3.2c0-1.39-.7-3.16-2.46-3.16S608.18,305.21,608.18,306.78Z" transform="translate(-48.99 -60.9)"/><path d="M617.07,302.65l1.09,4.18c.24.92.46,1.77.61,2.62h.05c.19-.83.46-1.72.73-2.6l1.34-4.2h1.26l1.28,4.11c.31,1,.54,1.85.73,2.69h.05a25,25,0,0,1,.63-2.67l1.17-4.13h1.48l-2.65,8.23h-1.36l-1.26-3.93a27.44,27.44,0,0,1-.73-2.7h0a24.35,24.35,0,0,1-.75,2.72l-1.33,3.91H618l-2.48-8.23Z" transform="translate(-48.99 -60.9)"/><path d="M630.79,300.28v2.36h2.14v1.14h-2.14v4.44c0,1,.29,1.6,1.12,1.6a3.34,3.34,0,0,0,.87-.1l.07,1.12a3.66,3.66,0,0,1-1.33.2,2.07,2.07,0,0,1-1.61-.63,3,3,0,0,1-.58-2.14v-4.49h-1.27v-1.14h1.27v-2Z" transform="translate(-48.99 -60.9)"/><path d="M634.62,298.81h1.5v5.13h0a2.78,2.78,0,0,1,1.07-1.05,3.08,3.08,0,0,1,1.53-.42c1.11,0,2.87.68,2.87,3.52v4.9h-1.5v-4.73c0-1.33-.49-2.45-1.9-2.45a2.15,2.15,0,0,0-2,1.5,1.81,1.81,0,0,0-.1.71v5h-1.5Z" transform="translate(-48.99 -60.9)"/><polygon class="cls-3" points="1197.64 369.89 1185.74 357.99 1185.74 354.62 1196.45 365.33 1196.45 99.69 1198.83 99.69 1198.83 365.33 1209.54 354.62 1209.54 357.99 1197.64 369.89"/><path d="M1185.09,290.1a7.34,7.34,0,0,1-3,.54c-3.23,0-5.66-2-5.66-5.8a5.7,5.7,0,0,1,6-6,6.13,6.13,0,0,1,2.72.51l-.36,1.21a5.38,5.38,0,0,0-2.31-.48c-2.69,0-4.47,1.72-4.47,4.73,0,2.8,1.61,4.61,4.4,4.61a5.92,5.92,0,0,0,2.41-.48Z" transform="translate(-48.99 -60.9)"/><path d="M1194.15,286.29a4,4,0,0,1-4.1,4.37,3.91,3.91,0,0,1-3.94-4.23,4,4,0,0,1,4.08-4.37A3.9,3.9,0,0,1,1194.15,286.29Zm-6.53.08c0,1.8,1,3.16,2.5,3.16s2.5-1.34,2.5-3.2c0-1.39-.7-3.16-2.46-3.16S1187.62,284.81,1187.62,286.38Z" transform="translate(-48.99 -60.9)"/><path d="M1196,278.41h1.5v12.07H1196Z" transform="translate(-48.99 -60.9)"/><path d="M1206.93,288.23c0,.85,0,1.6.07,2.24h-1.33l-.08-1.34h0a3.09,3.09,0,0,1-2.72,1.53c-1.29,0-2.84-.71-2.84-3.6v-4.81h1.5v4.56c0,1.56.48,2.62,1.84,2.62a2.16,2.16,0,0,0,2-1.36,2.19,2.19,0,0,0,.14-.77v-5h1.5Z" transform="translate(-48.99 -60.9)"/><path d="M1209.42,284.47c0-.85,0-1.55-.07-2.23h1.31l.07,1.33h.05a2.84,2.84,0,0,1,2.58-1.51,2.43,2.43,0,0,1,2.33,1.65h0a3.4,3.4,0,0,1,.92-1.07,2.81,2.81,0,0,1,1.82-.58c1.09,0,2.7.71,2.7,3.57v4.84h-1.46v-4.66c0-1.58-.58-2.53-1.78-2.53a1.94,1.94,0,0,0-1.77,1.36,2.48,2.48,0,0,0-.12.75v5.08h-1.46v-4.93c0-1.31-.58-2.26-1.72-2.26a2.23,2.23,0,0,0-2,2.23v5h-1.46Z" transform="translate(-48.99 -60.9)"/><path d="M1223.6,284.47c0-.85,0-1.55-.07-2.23h1.33l.09,1.36h0a3,3,0,0,1,2.72-1.55c1.14,0,2.91.68,2.91,3.5v4.91h-1.5v-4.74c0-1.33-.49-2.43-1.9-2.43a2.2,2.2,0,0,0-2.11,2.23v4.95h-1.5Z" transform="translate(-48.99 -60.9)"/><path d="M1188.54,302.65c0,.59-.07,1.26-.07,2.26v4.78c0,1.89-.37,3-1.17,3.76a4.36,4.36,0,0,1-3,1,5.31,5.31,0,0,1-2.74-.68l.37-1.14a4.64,4.64,0,0,0,2.41.65c1.53,0,2.65-.8,2.65-2.87v-.92h0a2.94,2.94,0,0,1-2.62,1.38c-2,0-3.5-1.73-3.5-4,0-2.79,1.82-4.37,3.71-4.37a2.74,2.74,0,0,1,2.57,1.43h0l.07-1.24Zm-1.55,3.25a2.19,2.19,0,0,0-2.18-2.26c-1.43,0-2.45,1.21-2.45,3.11,0,1.61.82,3,2.43,3a2.19,2.19,0,0,0,2.07-1.53,2.6,2.6,0,0,0,.12-.8Z" transform="translate(-48.99 -60.9)"/><path d="M1190.85,305.21c0-1,0-1.8-.07-2.57h1.31l.05,1.61h.07a2.47,2.47,0,0,1,2.28-1.8,1.63,1.63,0,0,1,.42.05v1.41a2.24,2.24,0,0,0-.51-.05,2.1,2.1,0,0,0-2,1.92,4.19,4.19,0,0,0-.07.7v4.39h-1.48Z" transform="translate(-48.99 -60.9)"/><path d="M1203.69,306.69a4,4,0,0,1-4.1,4.37,3.91,3.91,0,0,1-3.94-4.23,4,4,0,0,1,4.08-4.37A3.9,3.9,0,0,1,1203.69,306.69Zm-6.53.08c0,1.8,1,3.16,2.5,3.16s2.5-1.34,2.5-3.2c0-1.39-.7-3.16-2.46-3.16S1197.16,305.21,1197.16,306.78Z" transform="translate(-48.99 -60.9)"/><path d="M1206.05,302.65l1.09,4.18c.24.92.46,1.77.61,2.62h.05c.19-.83.46-1.72.73-2.6l1.34-4.2h1.26l1.28,4.11c.31,1,.54,1.85.73,2.69h.05a25,25,0,0,1,.63-2.67l1.17-4.13h1.48l-2.65,8.23h-1.36l-1.26-3.93a27.44,27.44,0,0,1-.73-2.7h0a24.35,24.35,0,0,1-.75,2.72l-1.33,3.91H1207l-2.48-8.23Z" transform="translate(-48.99 -60.9)"/><path d="M1219.77,300.28v2.36h2.14v1.14h-2.14v4.44c0,1,.29,1.6,1.12,1.6a3.34,3.34,0,0,0,.87-.1l.07,1.12a3.66,3.66,0,0,1-1.33.2,2.07,2.07,0,0,1-1.61-.63,3,3,0,0,1-.58-2.14v-4.49H1217v-1.14h1.27v-2Z" transform="translate(-48.99 -60.9)"/><path d="M1223.6,298.81h1.5v5.13h0a2.78,2.78,0,0,1,1.07-1.05,3.08,3.08,0,0,1,1.53-.42c1.11,0,2.87.68,2.87,3.52v4.9h-1.5v-4.73c0-1.33-.49-2.45-1.9-2.45a2.15,2.15,0,0,0-2,1.5,1.81,1.81,0,0,0-.1.71v5h-1.5Z" transform="translate(-48.99 -60.9)"/></g></svg>