<svg xmlns="http://www.w3.org/2000/svg" viewBox="0 0 1382.32 382.17"><defs><style>.cls-1,.cls-2,.cls-3,.cls-4,.cls-5{fill:none;stroke-miterlimit:10;}.cls-1,.cls-2,.cls-3{stroke:#000;}.cls-1,.cls-5{stroke-width:2px;}.cls-2{stroke-width:3px;}.cls-4,.cls-5{stroke:#231f20;}</style></defs><title>logic-diagrams-3</title><g id="Layer_4" data-name="Layer 4"><path d="M93.36,61.68H91V47.28h2.35Z" transform="translate(-34.44 -46.88)"/><path d="M98.24,52.83a6.51,6.51,0,0,1,.69-.61,4.55,4.55,0,0,1,.75-.48,4,4,0,0,1,.85-.31,4.13,4.13,0,0,1,1-.11,3.63,3.63,0,0,1,1.48.28,3,3,0,0,1,1.07.79,3.41,3.41,0,0,1,.66,1.23,5.34,5.34,0,0,1,.22,1.57v6.49h-2.14V55.19a2.43,2.43,0,0,0-.48-1.6,1.77,1.77,0,0,0-1.44-.57,2.78,2.78,0,0,0-1.33.33,4.58,4.58,0,0,0-1.16.9v7.43H96.23V51.48h1.3a.53.53,0,0,1,.56.41Z" transform="translate(-34.44 -46.88)"/><path d="M110.05,48.4a1.34,1.34,0,0,1-.12.55,1.45,1.45,0,0,1-.31.46,1.54,1.54,0,0,1-.46.31,1.4,1.4,0,0,1-.56.11,1.31,1.31,0,0,1-.55-.11,1.44,1.44,0,0,1-.44-.31,1.54,1.54,0,0,1-.31-.46,1.34,1.34,0,0,1-.11-.55,1.37,1.37,0,0,1,.11-.56,1.54,1.54,0,0,1,.31-.46,1.44,1.44,0,0,1,.44-.31,1.31,1.31,0,0,1,.55-.12,1.41,1.41,0,0,1,.56.12,1.54,1.54,0,0,1,.46.31,1.45,1.45,0,0,1,.31.46A1.37,1.37,0,0,1,110.05,48.4Zm-.36,3.08v10.2h-2.15V51.48Z" transform="translate(-34.44 -46.88)"/><path d="M122.3,61.68h-2.15V53.17h-5V59a1.19,1.19,0,0,0,.27.84.94.94,0,0,0,.72.29,1.26,1.26,0,0,0,.43-.06,2,2,0,0,0,.31-.14l.23-.14a.31.31,0,0,1,.48.14l.64,1a3.48,3.48,0,0,1-1.18.67,4.26,4.26,0,0,1-1.4.24,2.58,2.58,0,0,1-2-.72,2.79,2.79,0,0,1-.69-2V53.17h-1.12a.45.45,0,0,1-.31-.12.44.44,0,0,1-.13-.35v-.87l1.65-.24.47-2.95a.57.57,0,0,1,.17-.28.47.47,0,0,1,.32-.1h1.1v3.35h7.12Zm.44-13.33a1.32,1.32,0,0,1-.11.54,1.46,1.46,0,0,1-.31.45,1.54,1.54,0,0,1-.47.31,1.38,1.38,0,0,1-.55.11,1.31,1.31,0,0,1-.55-.11,1.51,1.51,0,0,1-.76-.76,1.31,1.31,0,0,1-.12-.54,1.41,1.41,0,0,1,.12-.56,1.47,1.47,0,0,1,.31-.46,1.51,1.51,0,0,1,.45-.31,1.31,1.31,0,0,1,.55-.11,1.38,1.38,0,0,1,.55.11,1.54,1.54,0,0,1,.47.31,1.43,1.43,0,0,1,.31.46A1.41,1.41,0,0,1,122.74,48.35Z" transform="translate(-34.44 -46.88)"/><path d="M124.76,52.9a5.84,5.84,0,0,1,4.12-1.61,4,4,0,0,1,1.56.29,3.13,3.13,0,0,1,1.15.81,3.56,3.56,0,0,1,.71,1.23,4.87,4.87,0,0,1,.25,1.58v6.48h-1a.93.93,0,0,1-.47-.1.73.73,0,0,1-.27-.38l-.21-.83a9.35,9.35,0,0,1-.77.63,4.83,4.83,0,0,1-.79.46,3.84,3.84,0,0,1-.87.29,5.12,5.12,0,0,1-1,.1,3.8,3.8,0,0,1-1.16-.17,2.53,2.53,0,0,1-.92-.52,2.43,2.43,0,0,1-.62-.85,3,3,0,0,1-.23-1.2,2.32,2.32,0,0,1,.31-1.15,2.87,2.87,0,0,1,1-1,6.75,6.75,0,0,1,1.91-.74,13.89,13.89,0,0,1,2.92-.33V55.2a2.44,2.44,0,0,0-.47-1.64,1.73,1.73,0,0,0-1.38-.54,3,3,0,0,0-1,.16,4.68,4.68,0,0,0-.73.33l-.55.33a.92.92,0,0,1-.51.15.61.61,0,0,1-.37-.11,1,1,0,0,1-.25-.29Zm5.7,4.32a13.63,13.63,0,0,0-1.94.19,5.49,5.49,0,0,0-1.28.37,1.69,1.69,0,0,0-.71.53,1.17,1.17,0,0,0-.21.68,1.49,1.49,0,0,0,.11.61,1.12,1.12,0,0,0,.32.42,1.29,1.29,0,0,0,.48.24,2.3,2.3,0,0,0,.6.08,3.09,3.09,0,0,0,1.44-.31,4.53,4.53,0,0,0,1.17-.92Z" transform="translate(-34.44 -46.88)"/><path d="M137.25,46.88v14.8H135.1V46.88Z" transform="translate(-34.44 -46.88)"/><path d="M155.29,58.47a.44.44,0,0,1,.33.15l.93,1a5.93,5.93,0,0,1-2.16,1.63,7.43,7.43,0,0,1-3.06.58,7.2,7.2,0,0,1-2.85-.54,6.27,6.27,0,0,1-2.17-1.52,6.75,6.75,0,0,1-1.39-2.33,8.73,8.73,0,0,1-.48-3,8.3,8.3,0,0,1,.52-3,6.82,6.82,0,0,1,1.45-2.33,6.51,6.51,0,0,1,2.24-1.52,7.45,7.45,0,0,1,2.88-.54,7,7,0,0,1,2.75.5A6.82,6.82,0,0,1,156.34,49l-.77,1.09a.86.86,0,0,1-.19.19.5.5,0,0,1-.3.08.81.81,0,0,1-.46-.19,7.23,7.23,0,0,0-.65-.41,4.79,4.79,0,0,0-2.48-.6,4.85,4.85,0,0,0-1.89.36,4.09,4.09,0,0,0-1.48,1.05,4.89,4.89,0,0,0-1,1.68,6.82,6.82,0,0,0-.34,2.25,6.63,6.63,0,0,0,.36,2.27,4.91,4.91,0,0,0,1,1.68,4.24,4.24,0,0,0,1.48,1,4.65,4.65,0,0,0,1.83.36,8,8,0,0,0,1.08-.06,4.27,4.27,0,0,0,.88-.21,4,4,0,0,0,.75-.37,4.77,4.77,0,0,0,.71-.54A.6.6,0,0,1,155.29,58.47Z" transform="translate(-34.44 -46.88)"/><path d="M160.17,53.37a4.51,4.51,0,0,1,1.16-1.52,2.49,2.49,0,0,1,1.63-.56,2.46,2.46,0,0,1,.62.08,1.74,1.74,0,0,1,.52.23L164,53.21a.4.4,0,0,1-.12.24.36.36,0,0,1-.23.06,2.42,2.42,0,0,1-.43-.06,3.06,3.06,0,0,0-.59-.05,2.25,2.25,0,0,0-.79.13,1.92,1.92,0,0,0-.62.38,2.55,2.55,0,0,0-.48.61,5.9,5.9,0,0,0-.39.82v6.34h-2.15V51.48h1.25a.68.68,0,0,1,.47.13A.77.77,0,0,1,160,52Z" transform="translate(-34.44 -46.88)"/><path d="M165.12,52.9a5.84,5.84,0,0,1,4.12-1.61,4,4,0,0,1,1.56.29,3.13,3.13,0,0,1,1.15.81,3.56,3.56,0,0,1,.71,1.23,4.87,4.87,0,0,1,.25,1.58v6.48h-1a.93.93,0,0,1-.47-.1.73.73,0,0,1-.27-.38l-.21-.83a9.35,9.35,0,0,1-.77.63,4.83,4.83,0,0,1-.79.46,3.84,3.84,0,0,1-.87.29,5.12,5.12,0,0,1-1,.1,3.8,3.8,0,0,1-1.16-.17,2.53,2.53,0,0,1-.92-.52,2.43,2.43,0,0,1-.62-.85,3,3,0,0,1-.23-1.2,2.32,2.32,0,0,1,.31-1.15,2.87,2.87,0,0,1,1-1,6.75,6.75,0,0,1,1.91-.74,13.89,13.89,0,0,1,2.92-.33V55.2a2.44,2.44,0,0,0-.47-1.64A1.73,1.73,0,0,0,169,53a3,3,0,0,0-1,.16,4.68,4.68,0,0,0-.73.33l-.55.33a.92.92,0,0,1-.51.15.61.61,0,0,1-.37-.11,1,1,0,0,1-.25-.29Zm5.7,4.32a13.63,13.63,0,0,0-1.94.19,5.49,5.49,0,0,0-1.28.37,1.69,1.69,0,0,0-.71.53,1.17,1.17,0,0,0-.21.68,1.49,1.49,0,0,0,.11.61,1.12,1.12,0,0,0,.32.42,1.29,1.29,0,0,0,.48.24,2.3,2.3,0,0,0,.6.08,3.09,3.09,0,0,0,1.44-.31,4.53,4.53,0,0,0,1.17-.92Z" transform="translate(-34.44 -46.88)"/><path d="M182.63,53.48a1.1,1.1,0,0,1-.19.2.42.42,0,0,1-.26.07.66.66,0,0,1-.35-.12l-.44-.27a3.48,3.48,0,0,0-.61-.27,2.88,2.88,0,0,0-.9-.12,2.82,2.82,0,0,0-1.22.25,2.38,2.38,0,0,0-.88.72,3.17,3.17,0,0,0-.53,1.13,5.88,5.88,0,0,0-.17,1.5,5.6,5.6,0,0,0,.19,1.53,3.29,3.29,0,0,0,.54,1.13,2.35,2.35,0,0,0,.86.7,2.61,2.61,0,0,0,1.14.24,2.85,2.85,0,0,0,1-.15,3.07,3.07,0,0,0,.65-.33l.45-.33a.62.62,0,0,1,.4-.15.46.46,0,0,1,.4.2l.61.79a4,4,0,0,1-.82.76,4.65,4.65,0,0,1-1,.51,5,5,0,0,1-1,.28,7,7,0,0,1-1.09.08,4.44,4.44,0,0,1-1.77-.35,4.14,4.14,0,0,1-1.44-1,4.91,4.91,0,0,1-1-1.65,6.48,6.48,0,0,1-.35-2.23,6.62,6.62,0,0,1,.32-2.1,4.77,4.77,0,0,1,.94-1.67,4.25,4.25,0,0,1,1.52-1.09,5.23,5.23,0,0,1,2.1-.4,5,5,0,0,1,2,.36,4.74,4.74,0,0,1,1.5,1Z" transform="translate(-34.44 -46.88)"/><path d="M187.17,46.88v8.58h.46a.93.93,0,0,0,.36-.06.8.8,0,0,0,.29-.25l2.86-3.27a1.07,1.07,0,0,1,.33-.3.94.94,0,0,1,.46-.1h1.95l-3.44,3.88a2.62,2.62,0,0,1-.66.62,1.89,1.89,0,0,1,.35.32,3.45,3.45,0,0,1,.29.39l3.67,5h-1.92a1.06,1.06,0,0,1-.44-.08.77.77,0,0,1-.33-.31l-2.95-4a.75.75,0,0,0-.3-.29,1.19,1.19,0,0,0-.45-.06h-.53v4.76H185V46.88Z" transform="translate(-34.44 -46.88)"/><path d="M203.19,49.17v4.61h5.63v1.89h-5.63v6h-2.35V47.28h9v1.89Z" transform="translate(-34.44 -46.88)"/><path d="M215.28,51.32a5.42,5.42,0,0,1,2,.37,4.4,4.4,0,0,1,1.56,1.05,4.67,4.67,0,0,1,1,1.65,7,7,0,0,1,0,4.36,4.71,4.71,0,0,1-1,1.66,4.36,4.36,0,0,1-1.56,1.05,5.86,5.86,0,0,1-4.1,0,4.4,4.4,0,0,1-1.56-1.05,4.67,4.67,0,0,1-1-1.66,7,7,0,0,1,0-4.36,4.62,4.62,0,0,1,1-1.65,4.44,4.44,0,0,1,1.56-1.05A5.45,5.45,0,0,1,215.28,51.32Zm0,8.83a2.38,2.38,0,0,0,2.05-.93,4.43,4.43,0,0,0,.68-2.65,4.48,4.48,0,0,0-.68-2.65,2.37,2.37,0,0,0-2.05-.94,2.4,2.4,0,0,0-2.08.94,4.46,4.46,0,0,0-.68,2.65,4.41,4.41,0,0,0,.68,2.65A2.41,2.41,0,0,0,215.28,60.15Z" transform="translate(-34.44 -46.88)"/><path d="M224.32,53.37a4.51,4.51,0,0,1,1.16-1.52,2.49,2.49,0,0,1,1.63-.56,2.46,2.46,0,0,1,.62.08,1.74,1.74,0,0,1,.52.23l-.15,1.62a.4.4,0,0,1-.12.24.36.36,0,0,1-.23.06,2.42,2.42,0,0,1-.43-.06,3.06,3.06,0,0,0-.59-.05,2.25,2.25,0,0,0-.79.13,1.92,1.92,0,0,0-.62.38,2.55,2.55,0,0,0-.48.61,5.9,5.9,0,0,0-.39.82v6.34h-2.15V51.48h1.25a.68.68,0,0,1,.47.13.77.77,0,0,1,.18.44Z" transform="translate(-34.44 -46.88)"/><path d="M229.67,61.68V51.48H231a.53.53,0,0,1,.56.41l.14.89a6.38,6.38,0,0,1,.58-.58,3.76,3.76,0,0,1,.65-.46,3.27,3.27,0,0,1,.74-.31,3.18,3.18,0,0,1,.85-.11,2.77,2.77,0,0,1,.9.14,2.3,2.3,0,0,1,.73.4,2.56,2.56,0,0,1,.54.63,3.8,3.8,0,0,1,.38.83,3.22,3.22,0,0,1,.58-.91,3.14,3.14,0,0,1,.78-.62,3.55,3.55,0,0,1,.92-.35,4.25,4.25,0,0,1,1-.11,3.89,3.89,0,0,1,1.46.26,2.91,2.91,0,0,1,1.09.75,3.29,3.29,0,0,1,.67,1.22,5.38,5.38,0,0,1,.23,1.64v6.49h-2.15V55.19a2.45,2.45,0,0,0-.46-1.62,1.71,1.71,0,0,0-1.37-.54,2.11,2.11,0,0,0-.77.14,1.81,1.81,0,0,0-.63.41,1.9,1.9,0,0,0-.42.67,2.63,2.63,0,0,0-.15.94v6.49h-2.15V55.19a2.49,2.49,0,0,0-.45-1.64,1.64,1.64,0,0,0-1.32-.53,2.13,2.13,0,0,0-1.11.31,3.61,3.61,0,0,0-.94.83v7.52Z" transform="translate(-34.44 -46.88)"/><path d="M246,52.9a5.84,5.84,0,0,1,4.12-1.61,4,4,0,0,1,1.56.29,3.13,3.13,0,0,1,1.15.81,3.56,3.56,0,0,1,.71,1.23,4.87,4.87,0,0,1,.25,1.58v6.48h-1a.93.93,0,0,1-.47-.1.73.73,0,0,1-.27-.38l-.21-.83a9.35,9.35,0,0,1-.77.63,4.83,4.83,0,0,1-.79.46,3.84,3.84,0,0,1-.87.29,5.12,5.12,0,0,1-1,.1,3.8,3.8,0,0,1-1.16-.17,2.53,2.53,0,0,1-.92-.52,2.43,2.43,0,0,1-.62-.85,3,3,0,0,1-.23-1.2,2.32,2.32,0,0,1,.31-1.15,2.87,2.87,0,0,1,1-1,6.75,6.75,0,0,1,1.91-.74,13.89,13.89,0,0,1,2.92-.33V55.2a2.44,2.44,0,0,0-.47-1.64,1.73,1.73,0,0,0-1.38-.54,3,3,0,0,0-1,.16,4.68,4.68,0,0,0-.73.33l-.55.33a.92.92,0,0,1-.51.15.61.61,0,0,1-.37-.11,1,1,0,0,1-.25-.29Zm5.7,4.32a13.63,13.63,0,0,0-1.94.19,5.49,5.49,0,0,0-1.28.37,1.69,1.69,0,0,0-.71.53,1.17,1.17,0,0,0-.21.68,1.49,1.49,0,0,0,.11.61A1.12,1.12,0,0,0,248,60a1.29,1.29,0,0,0,.48.24,2.3,2.3,0,0,0,.6.08,3.09,3.09,0,0,0,1.44-.31,4.53,4.53,0,0,0,1.17-.92Z" transform="translate(-34.44 -46.88)"/><path d="M266.09,61.68h-2.15V53.17h-5V59a1.19,1.19,0,0,0,.27.84.94.94,0,0,0,.72.29,1.26,1.26,0,0,0,.43-.06,2,2,0,0,0,.31-.14l.23-.14a.31.31,0,0,1,.48.14l.64,1a3.48,3.48,0,0,1-1.18.67,4.26,4.26,0,0,1-1.4.24,2.58,2.58,0,0,1-2-.72,2.79,2.79,0,0,1-.69-2V53.17H255.7a.45.45,0,0,1-.31-.12.44.44,0,0,1-.13-.35v-.87l1.65-.24.47-2.95a.57.57,0,0,1,.17-.28.47.47,0,0,1,.32-.1H259v3.35h7.12Zm.44-13.33a1.32,1.32,0,0,1-.11.54,1.46,1.46,0,0,1-.31.45,1.54,1.54,0,0,1-.47.31,1.38,1.38,0,0,1-.55.11,1.31,1.31,0,0,1-.55-.11,1.51,1.51,0,0,1-.76-.76,1.31,1.31,0,0,1-.12-.54,1.41,1.41,0,0,1,.12-.56,1.47,1.47,0,0,1,.31-.46,1.51,1.51,0,0,1,.45-.31,1.31,1.31,0,0,1,.55-.11,1.38,1.38,0,0,1,.55.11,1.54,1.54,0,0,1,.47.31,1.43,1.43,0,0,1,.31.46A1.41,1.41,0,0,1,266.53,48.35Z" transform="translate(-34.44 -46.88)"/><path d="M273.21,51.32a5.42,5.42,0,0,1,2,.37,4.4,4.4,0,0,1,1.56,1.05,4.67,4.67,0,0,1,1,1.65,7,7,0,0,1,0,4.36,4.71,4.71,0,0,1-1,1.66,4.36,4.36,0,0,1-1.56,1.05,5.86,5.86,0,0,1-4.1,0,4.4,4.4,0,0,1-1.56-1.05,4.67,4.67,0,0,1-1-1.66,7,7,0,0,1,0-4.36,4.62,4.62,0,0,1,1-1.65,4.44,4.44,0,0,1,1.56-1.05A5.45,5.45,0,0,1,273.21,51.32Zm0,8.83a2.38,2.38,0,0,0,2.05-.93,4.43,4.43,0,0,0,.68-2.65,4.48,4.48,0,0,0-.68-2.65,2.37,2.37,0,0,0-2.05-.94,2.4,2.4,0,0,0-2.08.94,4.46,4.46,0,0,0-.68,2.65,4.41,4.41,0,0,0,.68,2.65A2.41,2.41,0,0,0,273.21,60.15Z" transform="translate(-34.44 -46.88)"/><path d="M282.23,52.83a6.51,6.51,0,0,1,.69-.61,4.55,4.55,0,0,1,.75-.48,4,4,0,0,1,.85-.31,4.13,4.13,0,0,1,1-.11,3.63,3.63,0,0,1,1.48.28,3,3,0,0,1,1.07.79,3.41,3.41,0,0,1,.66,1.23,5.34,5.34,0,0,1,.22,1.57v6.49h-2.14V55.19a2.43,2.43,0,0,0-.48-1.6,1.77,1.77,0,0,0-1.44-.57,2.78,2.78,0,0,0-1.33.33,4.58,4.58,0,0,0-1.16.9v7.43h-2.15V51.48h1.3a.53.53,0,0,1,.56.41Z" transform="translate(-34.44 -46.88)"/><path d="M520.05,49.74a.89.89,0,0,1-.23.27.5.5,0,0,1-.3.08.78.78,0,0,1-.42-.16q-.24-.16-.58-.35a5.1,5.1,0,0,0-.81-.36,3.84,3.84,0,0,0-2.18,0,2.19,2.19,0,0,0-.76.42,1.73,1.73,0,0,0-.47.64,2,2,0,0,0-.15.79,1.43,1.43,0,0,0,.29.92,2.49,2.49,0,0,0,.76.63,6.21,6.21,0,0,0,1.09.46l1.24.41q.64.22,1.25.5a4.25,4.25,0,0,1,1.08.71,3.27,3.27,0,0,1,.77,1,3.55,3.55,0,0,1,.29,1.51,4.88,4.88,0,0,1-.33,1.8,4.24,4.24,0,0,1-1,1.46,4.44,4.44,0,0,1-1.54,1,5.65,5.65,0,0,1-2.08.36,6.62,6.62,0,0,1-1.34-.14,6.93,6.93,0,0,1-1.25-.38,6.23,6.23,0,0,1-1.12-.6,5.58,5.58,0,0,1-.93-.78l.68-1.12a.66.66,0,0,1,.23-.22.62.62,0,0,1,.31-.08.87.87,0,0,1,.51.21q.28.22.68.47a5.18,5.18,0,0,0,1,.47,3.73,3.73,0,0,0,1.34.22,2.85,2.85,0,0,0,2-.62,2.17,2.17,0,0,0,.7-1.71,1.61,1.61,0,0,0-.29-1,2.36,2.36,0,0,0-.77-.65,5.51,5.51,0,0,0-1.08-.44l-1.24-.39a12,12,0,0,1-1.24-.48,3.94,3.94,0,0,1-1.08-.72,3.34,3.34,0,0,1-.77-1.1,4,4,0,0,1-.29-1.63,3.89,3.89,0,0,1,1.2-2.81,4.36,4.36,0,0,1,1.44-.91,5.3,5.3,0,0,1,2-.34,6.4,6.4,0,0,1,2.27.39,5.18,5.18,0,0,1,1.79,1.11Z" transform="translate(-34.44 -46.88)"/><path d="M524.55,56.75a5.1,5.1,0,0,0,.27,1.51,3.1,3.1,0,0,0,.61,1.05,2.39,2.39,0,0,0,.92.63,3.32,3.32,0,0,0,1.2.21,3.64,3.64,0,0,0,1.09-.15,5.11,5.11,0,0,0,.8-.32l.58-.32a.87.87,0,0,1,.44-.15.46.46,0,0,1,.4.2l.61.79a3.88,3.88,0,0,1-.86.76,5,5,0,0,1-1,.51,5.77,5.77,0,0,1-1.11.28,7.52,7.52,0,0,1-1.11.08,5.33,5.33,0,0,1-2-.35,4.37,4.37,0,0,1-1.57-1,4.82,4.82,0,0,1-1-1.71,6.79,6.79,0,0,1-.37-2.35,5.74,5.74,0,0,1,.33-2,4.72,4.72,0,0,1,1-1.6,4.51,4.51,0,0,1,1.52-1.07,5,5,0,0,1,2-.4,4.85,4.85,0,0,1,1.74.3,3.82,3.82,0,0,1,1.38.9,4.12,4.12,0,0,1,.9,1.45,5.44,5.44,0,0,1,.33,1.94,1.37,1.37,0,0,1-.11.67.44.44,0,0,1-.4.17Zm5.13-1.32a3.17,3.17,0,0,0-.15-1,2.36,2.36,0,0,0-.46-.81,2.08,2.08,0,0,0-.75-.54,2.54,2.54,0,0,0-1-.19,2.49,2.49,0,0,0-1.84.67,3.25,3.25,0,0,0-.85,1.88Z" transform="translate(-34.44 -46.88)"/><path d="M540.82,53.48a1.1,1.1,0,0,1-.19.2.42.42,0,0,1-.26.07.66.66,0,0,1-.35-.12l-.44-.27a3.48,3.48,0,0,0-.61-.27,2.88,2.88,0,0,0-.9-.12,2.82,2.82,0,0,0-1.22.25,2.38,2.38,0,0,0-.88.72,3.17,3.17,0,0,0-.53,1.13,5.88,5.88,0,0,0-.17,1.5,5.6,5.6,0,0,0,.19,1.53,3.29,3.29,0,0,0,.54,1.13,2.35,2.35,0,0,0,.86.7,2.61,2.61,0,0,0,1.14.24,2.85,2.85,0,0,0,1-.15,3.07,3.07,0,0,0,.65-.33l.45-.33a.62.62,0,0,1,.4-.15.46.46,0,0,1,.4.2l.61.79a4,4,0,0,1-.82.76,4.65,4.65,0,0,1-1,.51,5,5,0,0,1-1,.28,7,7,0,0,1-1.09.08,4.44,4.44,0,0,1-1.77-.35,4.14,4.14,0,0,1-1.44-1,4.91,4.91,0,0,1-1-1.65,6.48,6.48,0,0,1-.35-2.23,6.62,6.62,0,0,1,.32-2.1,4.77,4.77,0,0,1,.94-1.67,4.25,4.25,0,0,1,1.52-1.09,5.23,5.23,0,0,1,2.1-.4,5,5,0,0,1,2,.36,4.74,4.74,0,0,1,1.5,1Z" transform="translate(-34.44 -46.88)"/><path d="M547.44,51.32a5.42,5.42,0,0,1,2,.37A4.4,4.4,0,0,1,551,52.74a4.67,4.67,0,0,1,1,1.65,7,7,0,0,1,0,4.36,4.71,4.71,0,0,1-1,1.66,4.36,4.36,0,0,1-1.56,1.05,5.86,5.86,0,0,1-4.1,0,4.4,4.4,0,0,1-1.56-1.05,4.67,4.67,0,0,1-1-1.66,7,7,0,0,1,0-4.36,4.62,4.62,0,0,1,1-1.65,4.44,4.44,0,0,1,1.56-1.05A5.45,5.45,0,0,1,547.44,51.32Zm0,8.83a2.38,2.38,0,0,0,2.05-.93,4.43,4.43,0,0,0,.68-2.65,4.48,4.48,0,0,0-.68-2.65,2.37,2.37,0,0,0-2.05-.94,2.4,2.4,0,0,0-2.08.94,4.46,4.46,0,0,0-.68,2.65,4.41,4.41,0,0,0,.68,2.65A2.41,2.41,0,0,0,547.44,60.15Z" transform="translate(-34.44 -46.88)"/><path d="M556.46,52.83a6.51,6.51,0,0,1,.69-.61,4.55,4.55,0,0,1,.75-.48,4,4,0,0,1,.85-.31,4.13,4.13,0,0,1,1-.11,3.63,3.63,0,0,1,1.48.28,3,3,0,0,1,1.07.79,3.41,3.41,0,0,1,.66,1.23,5.34,5.34,0,0,1,.22,1.57v6.49H561V55.19a2.43,2.43,0,0,0-.48-1.6,1.77,1.77,0,0,0-1.44-.57,2.78,2.78,0,0,0-1.33.33,4.58,4.58,0,0,0-1.16.9v7.43h-2.15V51.48h1.3a.53.53,0,0,1,.56.41Z" transform="translate(-34.44 -46.88)"/><path d="M574.33,46.88v14.8H573a.52.52,0,0,1-.55-.41l-.19-1.11a5.39,5.39,0,0,1-1.46,1.21,3.79,3.79,0,0,1-1.9.46,3.48,3.48,0,0,1-1.56-.34,3.35,3.35,0,0,1-1.2-1,4.87,4.87,0,0,1-.77-1.63,8.24,8.24,0,0,1-.27-2.23,7,7,0,0,1,.31-2.11,5.15,5.15,0,0,1,.88-1.69,4,4,0,0,1,3.21-1.52,3.45,3.45,0,0,1,2.66,1.08V46.88ZM572.18,54a2.53,2.53,0,0,0-1-.81A3,3,0,0,0,570,53a2.34,2.34,0,0,0-2,.92,4.45,4.45,0,0,0-.71,2.74,6.94,6.94,0,0,0,.16,1.6A3.1,3.1,0,0,0,568,59.3a1.77,1.77,0,0,0,.73.61,2.37,2.37,0,0,0,1,.19,2.71,2.71,0,0,0,1.42-.35,4.07,4.07,0,0,0,1.1-1Z" transform="translate(-34.44 -46.88)"/><path d="M576.7,52.9a5.84,5.84,0,0,1,4.12-1.61,4,4,0,0,1,1.56.29,3.13,3.13,0,0,1,1.15.81,3.56,3.56,0,0,1,.71,1.23,4.87,4.87,0,0,1,.25,1.58v6.48h-1a.93.93,0,0,1-.47-.1.73.73,0,0,1-.27-.38l-.21-.83a9.35,9.35,0,0,1-.77.63,4.83,4.83,0,0,1-.79.46,3.84,3.84,0,0,1-.87.29,5.12,5.12,0,0,1-1,.1,3.8,3.8,0,0,1-1.16-.17,2.53,2.53,0,0,1-.92-.52,2.43,2.43,0,0,1-.62-.85,3,3,0,0,1-.23-1.2,2.32,2.32,0,0,1,.31-1.15,2.87,2.87,0,0,1,1-1,6.75,6.75,0,0,1,1.91-.74,13.89,13.89,0,0,1,2.92-.33V55.2a2.44,2.44,0,0,0-.47-1.64,1.73,1.73,0,0,0-1.38-.54,3,3,0,0,0-1,.16,4.68,4.68,0,0,0-.73.33l-.55.33a.92.92,0,0,1-.51.15.61.61,0,0,1-.37-.11,1,1,0,0,1-.25-.29Zm5.7,4.32a13.63,13.63,0,0,0-1.94.19,5.49,5.49,0,0,0-1.28.37,1.69,1.69,0,0,0-.71.53,1.17,1.17,0,0,0-.21.68,1.49,1.49,0,0,0,.11.61,1.12,1.12,0,0,0,.32.42,1.29,1.29,0,0,0,.48.24,2.3,2.3,0,0,0,.6.08,3.09,3.09,0,0,0,1.44-.31,4.53,4.53,0,0,0,1.17-.92Z" transform="translate(-34.44 -46.88)"/><path d="M589,53.37a4.51,4.51,0,0,1,1.16-1.52,2.49,2.49,0,0,1,1.63-.56,2.46,2.46,0,0,1,.62.08,1.74,1.74,0,0,1,.52.23l-.15,1.62a.4.4,0,0,1-.12.24.36.36,0,0,1-.23.06,2.42,2.42,0,0,1-.43-.06,3.06,3.06,0,0,0-.59-.05,2.25,2.25,0,0,0-.79.13,1.92,1.92,0,0,0-.62.38,2.55,2.55,0,0,0-.48.61,5.9,5.9,0,0,0-.39.82v6.34H587V51.48h1.25a.68.68,0,0,1,.47.13.77.77,0,0,1,.18.44Z" transform="translate(-34.44 -46.88)"/><path d="M603.43,51.48l-5.62,13.1a1.06,1.06,0,0,1-.27.36.73.73,0,0,1-.48.13h-1.59L597.36,61l-4.16-9.51h1.87a.62.62,0,0,1,.42.13.78.78,0,0,1,.21.3l2.43,5.79q.09.25.17.5l.15.5.16-.51c.05-.17.11-.33.18-.5l2.33-5.78a.66.66,0,0,1,.23-.3.61.61,0,0,1,.37-.12Z" transform="translate(-34.44 -46.88)"/><path d="M616.52,53.48a1.1,1.1,0,0,1-.19.2.42.42,0,0,1-.26.07.66.66,0,0,1-.35-.12l-.44-.27a3.48,3.48,0,0,0-.61-.27,2.88,2.88,0,0,0-.9-.12,2.82,2.82,0,0,0-1.22.25,2.38,2.38,0,0,0-.88.72,3.17,3.17,0,0,0-.53,1.13,5.88,5.88,0,0,0-.17,1.5,5.6,5.6,0,0,0,.19,1.53,3.29,3.29,0,0,0,.54,1.13,2.35,2.35,0,0,0,.86.7,2.61,2.61,0,0,0,1.14.24,2.85,2.85,0,0,0,1-.15,3.07,3.07,0,0,0,.65-.33l.45-.33a.62.62,0,0,1,.4-.15.46.46,0,0,1,.4.2l.61.79a4,4,0,0,1-.82.76,4.65,4.65,0,0,1-1,.51,5,5,0,0,1-1,.28,7,7,0,0,1-1.09.08,4.44,4.44,0,0,1-1.77-.35,4.14,4.14,0,0,1-1.44-1,4.91,4.91,0,0,1-1-1.65,6.48,6.48,0,0,1-.35-2.23,6.62,6.62,0,0,1,.32-2.1,4.77,4.77,0,0,1,.94-1.67,4.25,4.25,0,0,1,1.52-1.09,5.23,5.23,0,0,1,2.1-.4,5,5,0,0,1,2,.36,4.74,4.74,0,0,1,1.5,1Z" transform="translate(-34.44 -46.88)"/><path d="M620.94,53.37a4.51,4.51,0,0,1,1.16-1.52,2.49,2.49,0,0,1,1.63-.56,2.46,2.46,0,0,1,.62.08,1.74,1.74,0,0,1,.52.23l-.15,1.62a.4.4,0,0,1-.12.24.36.36,0,0,1-.23.06,2.42,2.42,0,0,1-.43-.06,3.06,3.06,0,0,0-.59-.05,2.25,2.25,0,0,0-.79.13,1.92,1.92,0,0,0-.62.38,2.55,2.55,0,0,0-.48.61,5.9,5.9,0,0,0-.39.82v6.34h-2.15V51.48h1.25a.68.68,0,0,1,.47.13.77.77,0,0,1,.18.44Z" transform="translate(-34.44 -46.88)"/><path d="M625.89,52.9A5.84,5.84,0,0,1,630,51.29a4,4,0,0,1,1.56.29,3.13,3.13,0,0,1,1.15.81,3.56,3.56,0,0,1,.71,1.23,4.87,4.87,0,0,1,.25,1.58v6.48h-1a.93.93,0,0,1-.47-.1.73.73,0,0,1-.27-.38l-.21-.83A9.35,9.35,0,0,1,631,61a4.83,4.83,0,0,1-.79.46,3.84,3.84,0,0,1-.87.29,5.12,5.12,0,0,1-1,.1,3.8,3.8,0,0,1-1.16-.17,2.53,2.53,0,0,1-.92-.52,2.43,2.43,0,0,1-.62-.85,3,3,0,0,1-.23-1.2,2.32,2.32,0,0,1,.31-1.15,2.87,2.87,0,0,1,1-1,6.75,6.75,0,0,1,1.91-.74,13.89,13.89,0,0,1,2.92-.33V55.2a2.44,2.44,0,0,0-.47-1.64,1.73,1.73,0,0,0-1.38-.54,3,3,0,0,0-1,.16,4.68,4.68,0,0,0-.73.33l-.55.33a.92.92,0,0,1-.51.15.61.61,0,0,1-.37-.11,1,1,0,0,1-.25-.29Zm5.7,4.32a13.63,13.63,0,0,0-1.94.19,5.49,5.49,0,0,0-1.28.37,1.69,1.69,0,0,0-.71.53,1.17,1.17,0,0,0-.21.68,1.49,1.49,0,0,0,.11.61,1.12,1.12,0,0,0,.32.42,1.29,1.29,0,0,0,.48.24,2.3,2.3,0,0,0,.6.08,3.09,3.09,0,0,0,1.44-.31,4.53,4.53,0,0,0,1.17-.92Z" transform="translate(-34.44 -46.88)"/><path d="M643.4,53.48a1.1,1.1,0,0,1-.19.2.42.42,0,0,1-.26.07.66.66,0,0,1-.35-.12l-.44-.27a3.48,3.48,0,0,0-.61-.27,2.88,2.88,0,0,0-.9-.12,2.82,2.82,0,0,0-1.22.25,2.38,2.38,0,0,0-.88.72,3.17,3.17,0,0,0-.53,1.13,5.88,5.88,0,0,0-.17,1.5A5.6,5.6,0,0,0,638,58.1a3.29,3.29,0,0,0,.54,1.13,2.35,2.35,0,0,0,.86.7,2.61,2.61,0,0,0,1.14.24,2.85,2.85,0,0,0,1-.15,3.07,3.07,0,0,0,.65-.33l.45-.33a.62.62,0,0,1,.4-.15.46.46,0,0,1,.4.2l.61.79a4,4,0,0,1-.82.76,4.65,4.65,0,0,1-1,.51,5,5,0,0,1-1,.28,7,7,0,0,1-1.09.08,4.44,4.44,0,0,1-1.77-.35,4.14,4.14,0,0,1-1.44-1,4.91,4.91,0,0,1-1-1.65,6.48,6.48,0,0,1-.35-2.23,6.62,6.62,0,0,1,.32-2.1,4.77,4.77,0,0,1,.94-1.67,4.25,4.25,0,0,1,1.52-1.09,5.23,5.23,0,0,1,2.1-.4,5,5,0,0,1,2,.36,4.74,4.74,0,0,1,1.5,1Z" transform="translate(-34.44 -46.88)"/><path d="M647.94,46.88v8.58h.46a.93.93,0,0,0,.36-.06.8.8,0,0,0,.29-.25l2.86-3.27a1.07,1.07,0,0,1,.33-.3.94.94,0,0,1,.46-.1h1.95l-3.44,3.88a2.62,2.62,0,0,1-.66.62,1.89,1.89,0,0,1,.35.32,3.45,3.45,0,0,1,.29.39l3.67,5h-1.92a1.06,1.06,0,0,1-.44-.08.77.77,0,0,1-.33-.31l-2.95-4a.75.75,0,0,0-.3-.29,1.19,1.19,0,0,0-.45-.06h-.53v4.76h-2.15V46.88Z" transform="translate(-34.44 -46.88)"/><path d="M662.32,53.33a.53.53,0,0,1-.18.2.48.48,0,0,1-.25.06.81.81,0,0,1-.37-.1l-.47-.24a4.05,4.05,0,0,0-.63-.23,3.12,3.12,0,0,0-.85-.1,2.57,2.57,0,0,0-.73.1,1.63,1.63,0,0,0-.55.27,1.22,1.22,0,0,0-.35.41,1.09,1.09,0,0,0-.12.5.85.85,0,0,0,.22.6,1.9,1.9,0,0,0,.58.42,5.6,5.6,0,0,0,.82.31l.94.3a9.53,9.53,0,0,1,.94.37,3.54,3.54,0,0,1,.82.52,2.35,2.35,0,0,1,.58.74,2.31,2.31,0,0,1,.22,1.05,3.36,3.36,0,0,1-.26,1.33,3,3,0,0,1-.76,1.06,3.5,3.5,0,0,1-1.25.7,5.36,5.36,0,0,1-1.71.25,5.42,5.42,0,0,1-1-.1,5.91,5.91,0,0,1-.94-.26,5,5,0,0,1-.83-.4,4.39,4.39,0,0,1-.69-.5l.5-.82a.7.7,0,0,1,.23-.23.62.62,0,0,1,.33-.08.75.75,0,0,1,.42.13l.48.3a3.86,3.86,0,0,0,.67.29,3,3,0,0,0,1,.13,2.67,2.67,0,0,0,.83-.11,1.67,1.67,0,0,0,.58-.31,1.27,1.27,0,0,0,.34-.46,1.36,1.36,0,0,0,.11-.54.93.93,0,0,0-.22-.64,1.86,1.86,0,0,0-.58-.43,5.37,5.37,0,0,0-.83-.32l-.94-.3a10,10,0,0,1-.94-.37,3.25,3.25,0,0,1-.83-.54,2.43,2.43,0,0,1-.58-.79,2.63,2.63,0,0,1-.22-1.13,2.8,2.8,0,0,1,1-2.13,3.5,3.5,0,0,1,1.17-.67,4.83,4.83,0,0,1,1.6-.24,5.07,5.07,0,0,1,1.87.33,4.06,4.06,0,0,1,1.41.9Z" transform="translate(-34.44 -46.88)"/><path d="M664.8,53.15a1.42,1.42,0,0,1,.1-.55,1.39,1.39,0,0,1,.29-.44,1.39,1.39,0,0,1,1.53-.3,1.4,1.4,0,0,1,.74.74,1.37,1.37,0,0,1,.11.55,1.35,1.35,0,0,1-.11.55,1.43,1.43,0,0,1-.3.44,1.34,1.34,0,0,1-.44.29,1.47,1.47,0,0,1-1.09,0,1.29,1.29,0,0,1-.44-.29,1.39,1.39,0,0,1-.4-1Zm0,7.29a1.42,1.42,0,0,1,.1-.54,1.39,1.39,0,0,1,.29-.44,1.39,1.39,0,0,1,1.53-.3,1.4,1.4,0,0,1,.74.74,1.41,1.41,0,0,1,0,1.1,1.43,1.43,0,0,1-.3.44,1.34,1.34,0,0,1-.44.29,1.47,1.47,0,0,1-1.09,0,1.29,1.29,0,0,1-.44-.29,1.39,1.39,0,0,1-.4-1Z" transform="translate(-34.44 -46.88)"/><path d="M684.73,49.23h-4.49V61.68h-2.33V49.23h-4.5V47.28h11.32Z" transform="translate(-34.44 -46.88)"/><path d="M693,51.48V62.21a4.16,4.16,0,0,1-.17,1.21,2.61,2.61,0,0,1-.54,1,2.52,2.52,0,0,1-1,.66,3.72,3.72,0,0,1-1.41.24,3.57,3.57,0,0,1-.63-.05,4.69,4.69,0,0,1-.57-.14l.08-1.17c0-.13.07-.21.17-.23a2.85,2.85,0,0,1,.51,0,1.4,1.4,0,0,0,1.07-.33,1.68,1.68,0,0,0,.3-1.14V51.48Zm.35-3.08a1.35,1.35,0,0,1-.11.55,1.45,1.45,0,0,1-.31.46,1.56,1.56,0,0,1-.46.31,1.37,1.37,0,0,1-.56.11,1.31,1.31,0,0,1-.55-.11,1.51,1.51,0,0,1-.45-.31,1.42,1.42,0,0,1-.31-.46,1.4,1.4,0,0,1-.11-.55,1.42,1.42,0,0,1,.42-1,1.51,1.51,0,0,1,.45-.31,1.31,1.31,0,0,1,.55-.12,1.37,1.37,0,0,1,.56.12,1.56,1.56,0,0,1,.46.31,1.45,1.45,0,0,1,.31.46A1.38,1.38,0,0,1,693.3,48.4Z" transform="translate(-34.44 -46.88)"/><path d="M704.26,51.48v10.2H703a.52.52,0,0,1-.55-.41l-.16-.95a6.27,6.27,0,0,1-.67.62,4.42,4.42,0,0,1-.75.48,4,4,0,0,1-.86.31,4.14,4.14,0,0,1-1,.11,3.66,3.66,0,0,1-1.48-.28,2.93,2.93,0,0,1-1.08-.79,3.4,3.4,0,0,1-.65-1.22,5.33,5.33,0,0,1-.22-1.58V51.48h2.15V58a2.43,2.43,0,0,0,.48,1.6,1.77,1.77,0,0,0,1.44.57,2.79,2.79,0,0,0,1.33-.33,4.46,4.46,0,0,0,1.15-.89V51.48Z" transform="translate(-34.44 -46.88)"/><path d="M708.89,52.83a6.51,6.51,0,0,1,.69-.61,4.53,4.53,0,0,1,.75-.48,4,4,0,0,1,.85-.31,4.14,4.14,0,0,1,1-.11,3.63,3.63,0,0,1,1.47.28,3,3,0,0,1,1.07.79,3.42,3.42,0,0,1,.66,1.23,5.34,5.34,0,0,1,.22,1.57v6.49h-2.14V55.19a2.43,2.43,0,0,0-.48-1.6,1.77,1.77,0,0,0-1.44-.57,2.78,2.78,0,0,0-1.33.33,4.57,4.57,0,0,0-1.16.9v7.43h-2.15V51.48h1.3a.53.53,0,0,1,.56.41Z" transform="translate(-34.44 -46.88)"/><path d="M725.31,53.48a1.1,1.1,0,0,1-.19.2.42.42,0,0,1-.26.07.66.66,0,0,1-.35-.12l-.44-.27a3.49,3.49,0,0,0-.61-.27,2.88,2.88,0,0,0-.9-.12,2.82,2.82,0,0,0-1.22.25,2.39,2.39,0,0,0-.88.72,3.16,3.16,0,0,0-.53,1.13,5.86,5.86,0,0,0-.17,1.5,5.6,5.6,0,0,0,.19,1.53,3.31,3.31,0,0,0,.54,1.13,2.34,2.34,0,0,0,.86.7,2.61,2.61,0,0,0,1.13.24,2.85,2.85,0,0,0,1-.15,3.07,3.07,0,0,0,.65-.33l.45-.33a.62.62,0,0,1,.39-.15.46.46,0,0,1,.4.2l.61.79a4,4,0,0,1-.82.76,4.68,4.68,0,0,1-1,.51,5,5,0,0,1-1,.28,7,7,0,0,1-1.09.08,4.44,4.44,0,0,1-1.78-.35,4.14,4.14,0,0,1-1.44-1,4.92,4.92,0,0,1-1-1.65,6.49,6.49,0,0,1-.35-2.23,6.63,6.63,0,0,1,.32-2.1,4.77,4.77,0,0,1,.94-1.67,4.25,4.25,0,0,1,1.52-1.09,5.23,5.23,0,0,1,2.1-.4,5,5,0,0,1,2,.36,4.74,4.74,0,0,1,1.5,1Z" transform="translate(-34.44 -46.88)"/><path d="M737.6,61.68h-2.15V53.17h-5V59a1.19,1.19,0,0,0,.27.84.94.94,0,0,0,.72.29,1.27,1.27,0,0,0,.43-.06,1.93,1.93,0,0,0,.31-.14l.23-.14a.31.31,0,0,1,.47.14l.64,1a3.49,3.49,0,0,1-1.18.67,4.25,4.25,0,0,1-1.4.24,2.58,2.58,0,0,1-2-.72,2.79,2.79,0,0,1-.69-2V53.17h-1.12a.45.45,0,0,1-.31-.12.44.44,0,0,1-.13-.35v-.87l1.65-.24.47-2.95a.57.57,0,0,1,.17-.28.47.47,0,0,1,.32-.1h1.1v3.35h7.12ZM738,48.35a1.32,1.32,0,0,1-.11.54,1.47,1.47,0,0,1-.32.45,1.54,1.54,0,0,1-.46.31,1.38,1.38,0,0,1-.55.11,1.31,1.31,0,0,1-.55-.11,1.51,1.51,0,0,1-.76-.76,1.32,1.32,0,0,1-.12-.54,1.41,1.41,0,0,1,.12-.56,1.48,1.48,0,0,1,.31-.46A1.5,1.5,0,0,1,736,47a1.31,1.31,0,0,1,.55-.11,1.38,1.38,0,0,1,.55.11,1.54,1.54,0,0,1,.46.31,1.43,1.43,0,0,1,.32.46A1.41,1.41,0,0,1,738,48.35Z" transform="translate(-34.44 -46.88)"/><path d="M744.72,51.32a5.42,5.42,0,0,1,2,.37,4.39,4.39,0,0,1,1.56,1.05,4.67,4.67,0,0,1,1,1.65,7,7,0,0,1,0,4.36,4.72,4.72,0,0,1-1,1.66,4.35,4.35,0,0,1-1.56,1.05,5.86,5.86,0,0,1-4.1,0,4.4,4.4,0,0,1-1.56-1.05,4.67,4.67,0,0,1-1-1.66,7,7,0,0,1,0-4.36,4.62,4.62,0,0,1,1-1.65,4.44,4.44,0,0,1,1.56-1.05A5.45,5.45,0,0,1,744.72,51.32Zm0,8.83a2.38,2.38,0,0,0,2.05-.93,4.43,4.43,0,0,0,.67-2.65,4.48,4.48,0,0,0-.67-2.65,2.37,2.37,0,0,0-2.05-.94,2.4,2.4,0,0,0-2.08.94,4.45,4.45,0,0,0-.68,2.65,4.4,4.4,0,0,0,.68,2.65A2.41,2.41,0,0,0,744.72,60.15Z" transform="translate(-34.44 -46.88)"/><path d="M753.74,52.83a6.51,6.51,0,0,1,.68-.61,4.57,4.57,0,0,1,.75-.48,4,4,0,0,1,.85-.31,4.12,4.12,0,0,1,1-.11,3.63,3.63,0,0,1,1.48.28,3,3,0,0,1,1.07.79,3.4,3.4,0,0,1,.66,1.23,5.34,5.34,0,0,1,.22,1.57v6.49h-2.14V55.19a2.43,2.43,0,0,0-.47-1.6,1.77,1.77,0,0,0-1.45-.57,2.78,2.78,0,0,0-1.33.33,4.59,4.59,0,0,0-1.16.9v7.43h-2.15V51.48H753a.53.53,0,0,1,.56.41Z" transform="translate(-34.44 -46.88)"/><path d="M769,53.33a.53.53,0,0,1-.18.2.48.48,0,0,1-.25.06.81.81,0,0,1-.37-.1l-.47-.24a4.05,4.05,0,0,0-.63-.23,3.12,3.12,0,0,0-.86-.1,2.57,2.57,0,0,0-.72.1,1.63,1.63,0,0,0-.55.27,1.22,1.22,0,0,0-.35.41,1.09,1.09,0,0,0-.12.5.85.85,0,0,0,.22.6,1.9,1.9,0,0,0,.58.42,5.57,5.57,0,0,0,.82.31l.94.3a9.56,9.56,0,0,1,.94.37,3.54,3.54,0,0,1,.82.52,2.34,2.34,0,0,1,.58.74,2.32,2.32,0,0,1,.22,1.05,3.36,3.36,0,0,1-.26,1.33,3,3,0,0,1-.76,1.06,3.51,3.51,0,0,1-1.25.7,5.36,5.36,0,0,1-1.71.25,5.42,5.42,0,0,1-1-.1,5.89,5.89,0,0,1-.94-.26,5,5,0,0,1-.83-.4,4.4,4.4,0,0,1-.69-.5l.5-.82a.7.7,0,0,1,.23-.23.62.62,0,0,1,.33-.08.75.75,0,0,1,.42.13l.48.3a3.86,3.86,0,0,0,.67.29,3,3,0,0,0,1,.13,2.68,2.68,0,0,0,.83-.11,1.67,1.67,0,0,0,.58-.31,1.28,1.28,0,0,0,.34-.46,1.36,1.36,0,0,0,.11-.54.93.93,0,0,0-.22-.64,1.87,1.87,0,0,0-.58-.43,5.39,5.39,0,0,0-.83-.32l-.95-.3a10,10,0,0,1-.94-.37,3.24,3.24,0,0,1-.83-.54,2.42,2.42,0,0,1-.58-.79,2.63,2.63,0,0,1-.22-1.13,2.8,2.8,0,0,1,1-2.13,3.5,3.5,0,0,1,1.17-.67,4.82,4.82,0,0,1,1.6-.24,5.07,5.07,0,0,1,1.87.33,4.07,4.07,0,0,1,1.41.9Z" transform="translate(-34.44 -46.88)"/><path d="M989.25,49.17v4.61h5.63v1.89h-5.63v6H986.9V47.28h9v1.89Z" transform="translate(-34.44 -46.88)"/><path d="M1001.34,51.32a5.42,5.42,0,0,1,2,.37,4.4,4.4,0,0,1,1.56,1.05,4.67,4.67,0,0,1,1,1.65,7,7,0,0,1,0,4.36,4.71,4.71,0,0,1-1,1.66,4.36,4.36,0,0,1-1.56,1.05,5.86,5.86,0,0,1-4.1,0,4.4,4.4,0,0,1-1.57-1.05,4.67,4.67,0,0,1-1-1.66,7,7,0,0,1,0-4.36,4.62,4.62,0,0,1,1-1.65,4.44,4.44,0,0,1,1.57-1.05A5.45,5.45,0,0,1,1001.34,51.32Zm0,8.83a2.38,2.38,0,0,0,2.05-.93,4.43,4.43,0,0,0,.68-2.65,4.48,4.48,0,0,0-.68-2.65,2.36,2.36,0,0,0-2.05-.94,2.4,2.4,0,0,0-2.08.94,4.46,4.46,0,0,0-.68,2.65,4.41,4.41,0,0,0,.68,2.65A2.41,2.41,0,0,0,1001.34,60.15Z" transform="translate(-34.44 -46.88)"/><path d="M1010.38,53.37a4.51,4.51,0,0,1,1.16-1.52,2.49,2.49,0,0,1,1.63-.56,2.46,2.46,0,0,1,.62.08,1.73,1.73,0,0,1,.52.23l-.15,1.62a.41.41,0,0,1-.12.24.36.36,0,0,1-.23.06,2.42,2.42,0,0,1-.43-.06,3.06,3.06,0,0,0-.59-.05,2.25,2.25,0,0,0-.79.13,1.91,1.91,0,0,0-.62.38,2.57,2.57,0,0,0-.49.61,6,6,0,0,0-.39.82v6.34h-2.15V51.48h1.25a.68.68,0,0,1,.47.13.77.77,0,0,1,.18.44Z" transform="translate(-34.44 -46.88)"/><path d="M1015.73,61.68V51.48h1.3a.53.53,0,0,1,.56.41l.14.89a6.38,6.38,0,0,1,.58-.58,3.77,3.77,0,0,1,.65-.46,3.27,3.27,0,0,1,.74-.31,3.19,3.19,0,0,1,.86-.11,2.77,2.77,0,0,1,.9.14,2.3,2.3,0,0,1,.73.4,2.56,2.56,0,0,1,.54.63,3.77,3.77,0,0,1,.38.83,3.22,3.22,0,0,1,.58-.91,3.13,3.13,0,0,1,.78-.62,3.54,3.54,0,0,1,.92-.35,4.25,4.25,0,0,1,1-.11,3.89,3.89,0,0,1,1.46.26,2.9,2.9,0,0,1,1.09.75,3.3,3.3,0,0,1,.67,1.22,5.38,5.38,0,0,1,.23,1.64v6.49h-2.15V55.19a2.45,2.45,0,0,0-.46-1.62,1.71,1.71,0,0,0-1.37-.54,2.11,2.11,0,0,0-.77.14,1.8,1.8,0,0,0-.63.41,1.9,1.9,0,0,0-.42.67,2.63,2.63,0,0,0-.16.94v6.49h-2.15V55.19a2.49,2.49,0,0,0-.45-1.64,1.64,1.64,0,0,0-1.32-.53,2.13,2.13,0,0,0-1.11.31,3.6,3.6,0,0,0-.94.83v7.52Z" transform="translate(-34.44 -46.88)"/><path d="M1032.09,52.9a5.84,5.84,0,0,1,4.12-1.61,4,4,0,0,1,1.57.29,3.13,3.13,0,0,1,1.15.81,3.55,3.55,0,0,1,.71,1.23,4.87,4.87,0,0,1,.25,1.58v6.48h-1a.93.93,0,0,1-.47-.1.73.73,0,0,1-.27-.38l-.21-.83a9.43,9.43,0,0,1-.77.63,4.87,4.87,0,0,1-.79.46,3.84,3.84,0,0,1-.87.29,5.11,5.11,0,0,1-1,.1,3.79,3.79,0,0,1-1.16-.17,2.53,2.53,0,0,1-.92-.52,2.42,2.42,0,0,1-.62-.85,3,3,0,0,1-.23-1.2,2.32,2.32,0,0,1,.32-1.15,2.87,2.87,0,0,1,1-1,6.75,6.75,0,0,1,1.91-.74,13.89,13.89,0,0,1,2.92-.33V55.2a2.44,2.44,0,0,0-.47-1.64,1.73,1.73,0,0,0-1.38-.54,3,3,0,0,0-1,.16,4.71,4.71,0,0,0-.73.33l-.55.33a.92.92,0,0,1-.51.15.61.61,0,0,1-.37-.11,1,1,0,0,1-.25-.29Zm5.7,4.32a13.64,13.64,0,0,0-1.94.19,5.48,5.48,0,0,0-1.28.37,1.69,1.69,0,0,0-.71.53,1.17,1.17,0,0,0-.21.68,1.5,1.5,0,0,0,.11.61,1.13,1.13,0,0,0,.32.42,1.3,1.3,0,0,0,.48.24,2.3,2.3,0,0,0,.6.08,3.09,3.09,0,0,0,1.45-.31,4.53,4.53,0,0,0,1.17-.92Z" transform="translate(-34.44 -46.88)"/><path d="M1052.15,61.68H1050V53.17h-5V59a1.19,1.19,0,0,0,.27.84.94.94,0,0,0,.72.29,1.27,1.27,0,0,0,.43-.06,1.93,1.93,0,0,0,.31-.14l.23-.14a.31.31,0,0,1,.47.14l.64,1a3.49,3.49,0,0,1-1.18.67,4.25,4.25,0,0,1-1.4.24,2.58,2.58,0,0,1-2-.72,2.79,2.79,0,0,1-.69-2V53.17h-1.12a.45.45,0,0,1-.31-.12.44.44,0,0,1-.13-.35v-.87l1.65-.24.47-2.95a.57.57,0,0,1,.17-.28.47.47,0,0,1,.32-.1h1.1v3.35h7.12Zm.44-13.33a1.32,1.32,0,0,1-.11.54,1.47,1.47,0,0,1-.32.45,1.54,1.54,0,0,1-.46.31,1.38,1.38,0,0,1-.55.11,1.31,1.31,0,0,1-.55-.11,1.51,1.51,0,0,1-.76-.76,1.32,1.32,0,0,1-.12-.54,1.41,1.41,0,0,1,.12-.56,1.48,1.48,0,0,1,.31-.46,1.5,1.5,0,0,1,.45-.31,1.31,1.31,0,0,1,.55-.11,1.38,1.38,0,0,1,.55.11,1.54,1.54,0,0,1,.46.31,1.43,1.43,0,0,1,.32.46A1.41,1.41,0,0,1,1052.59,48.35Z" transform="translate(-34.44 -46.88)"/><path d="M1059.27,51.32a5.42,5.42,0,0,1,2,.37,4.39,4.39,0,0,1,1.56,1.05,4.67,4.67,0,0,1,1,1.65,7,7,0,0,1,0,4.36,4.72,4.72,0,0,1-1,1.66,4.35,4.35,0,0,1-1.56,1.05,5.86,5.86,0,0,1-4.1,0,4.4,4.4,0,0,1-1.56-1.05,4.67,4.67,0,0,1-1-1.66,7,7,0,0,1,0-4.36,4.62,4.62,0,0,1,1-1.65,4.44,4.44,0,0,1,1.56-1.05A5.45,5.45,0,0,1,1059.27,51.32Zm0,8.83a2.38,2.38,0,0,0,2.05-.93,4.43,4.43,0,0,0,.67-2.65,4.48,4.48,0,0,0-.67-2.65,2.37,2.37,0,0,0-2.05-.94,2.4,2.4,0,0,0-2.08.94,4.45,4.45,0,0,0-.68,2.65,4.4,4.4,0,0,0,.68,2.65A2.41,2.41,0,0,0,1059.27,60.15Z" transform="translate(-34.44 -46.88)"/><path d="M1068.29,52.83a6.5,6.5,0,0,1,.68-.61,4.57,4.57,0,0,1,.75-.48,4,4,0,0,1,.85-.31,4.12,4.12,0,0,1,1-.11,3.63,3.63,0,0,1,1.48.28,3,3,0,0,1,1.07.79,3.4,3.4,0,0,1,.66,1.23,5.34,5.34,0,0,1,.22,1.57v6.49h-2.14V55.19a2.43,2.43,0,0,0-.47-1.6,1.77,1.77,0,0,0-1.45-.57,2.78,2.78,0,0,0-1.33.33,4.59,4.59,0,0,0-1.16.9v7.43h-2.15V51.48h1.3a.53.53,0,0,1,.56.41Z" transform="translate(-34.44 -46.88)"/><path d="M1086.89,51.32a5.42,5.42,0,0,1,2,.37,4.4,4.4,0,0,1,1.56,1.05,4.67,4.67,0,0,1,1,1.65,7,7,0,0,1,0,4.36,4.71,4.71,0,0,1-1,1.66,4.36,4.36,0,0,1-1.56,1.05,5.86,5.86,0,0,1-4.1,0,4.4,4.4,0,0,1-1.57-1.05,4.67,4.67,0,0,1-1-1.66,7,7,0,0,1,0-4.36,4.62,4.62,0,0,1,1-1.65,4.44,4.44,0,0,1,1.57-1.05A5.45,5.45,0,0,1,1086.89,51.32Zm0,8.83a2.38,2.38,0,0,0,2.05-.93,4.43,4.43,0,0,0,.68-2.65,4.48,4.48,0,0,0-.68-2.65,2.36,2.36,0,0,0-2.05-.94,2.4,2.4,0,0,0-2.08.94,4.46,4.46,0,0,0-.68,2.65,4.41,4.41,0,0,0,.68,2.65A2.41,2.41,0,0,0,1086.89,60.15Z" transform="translate(-34.44 -46.88)"/><path d="M1094.35,61.68V53.19l-1-.14a.88.88,0,0,1-.4-.18.46.46,0,0,1-.16-.37v-.88h1.56v-.86a4.48,4.48,0,0,1,.25-1.56,3.23,3.23,0,0,1,.73-1.17,3.15,3.15,0,0,1,1.16-.73A4.32,4.32,0,0,1,1098,47a4.26,4.26,0,0,1,.67.05,3.87,3.87,0,0,1,.62.15l0,1.08a.31.31,0,0,1-.26.32,3.14,3.14,0,0,1-.62,0,2.87,2.87,0,0,0-.81.11,1.43,1.43,0,0,0-.62.35,1.62,1.62,0,0,0-.39.66,3.31,3.31,0,0,0-.13,1v.79h2.79v1.55h-2.72v8.51Z" transform="translate(-34.44 -46.88)"/><path d="M1107.5,52.69a5.42,5.42,0,0,1,1.38-1,3.87,3.87,0,0,1,1.75-.37,3.63,3.63,0,0,1,1.47.28,3,3,0,0,1,1.07.79,3.42,3.42,0,0,1,.66,1.23,5.34,5.34,0,0,1,.22,1.57v6.49h-2.14V55.19a2.43,2.43,0,0,0-.48-1.6A1.77,1.77,0,0,0,1110,53a2.78,2.78,0,0,0-1.33.33,4.57,4.57,0,0,0-1.16.9v7.43h-2.15V46.88h2.15Z" transform="translate(-34.44 -46.88)"/><path d="M1118.13,56.75a5.12,5.12,0,0,0,.27,1.51,3.1,3.1,0,0,0,.62,1.05,2.39,2.39,0,0,0,.92.63,3.32,3.32,0,0,0,1.2.21,3.64,3.64,0,0,0,1.09-.15,5.11,5.11,0,0,0,.8-.32l.58-.32a.87.87,0,0,1,.44-.15.46.46,0,0,1,.4.2l.61.79a3.88,3.88,0,0,1-.86.76,5,5,0,0,1-1,.51,5.78,5.78,0,0,1-1.11.28,7.53,7.53,0,0,1-1.11.08,5.33,5.33,0,0,1-2-.35,4.37,4.37,0,0,1-1.57-1,4.82,4.82,0,0,1-1-1.71,6.79,6.79,0,0,1-.37-2.35,5.74,5.74,0,0,1,.33-2,4.71,4.71,0,0,1,1-1.6,4.5,4.5,0,0,1,1.52-1.07,5,5,0,0,1,2-.4,4.85,4.85,0,0,1,1.74.3,3.82,3.82,0,0,1,1.38.9,4.13,4.13,0,0,1,.9,1.45,5.44,5.44,0,0,1,.33,1.94,1.37,1.37,0,0,1-.11.67.44.44,0,0,1-.4.17Zm5.13-1.32a3.15,3.15,0,0,0-.16-1,2.35,2.35,0,0,0-.46-.81,2.07,2.07,0,0,0-.75-.54,2.54,2.54,0,0,0-1-.19,2.49,2.49,0,0,0-1.84.67,3.25,3.25,0,0,0-.85,1.88Z" transform="translate(-34.44 -46.88)"/><path d="M1135.81,61.68h-2.06a.57.57,0,0,1-.39-.13,1.16,1.16,0,0,1-.24-.29l-2.35-3.77a2.24,2.24,0,0,1-.24.59l-2.13,3.18a1.91,1.91,0,0,1-.25.29.49.49,0,0,1-.35.13h-1.92l3.53-5.26L1126,51.48h2.06a.69.69,0,0,1,.37.08.67.67,0,0,1,.21.23l2.31,3.6a2.29,2.29,0,0,1,.28-.63l2-2.93a.59.59,0,0,1,.51-.34h2l-3.39,4.85Z" transform="translate(-34.44 -46.88)"/><path d="M1137,52.9a5.84,5.84,0,0,1,4.12-1.61,4,4,0,0,1,1.56.29,3.13,3.13,0,0,1,1.15.81,3.58,3.58,0,0,1,.71,1.23,4.87,4.87,0,0,1,.25,1.58v6.48h-1a.93.93,0,0,1-.47-.1.73.73,0,0,1-.27-.38l-.21-.83a9.28,9.28,0,0,1-.77.63,4.79,4.79,0,0,1-.79.46,3.84,3.84,0,0,1-.87.29,5.13,5.13,0,0,1-1,.1,3.8,3.8,0,0,1-1.16-.17,2.53,2.53,0,0,1-.92-.52,2.45,2.45,0,0,1-.62-.85,3,3,0,0,1-.22-1.2,2.32,2.32,0,0,1,.31-1.15,2.88,2.88,0,0,1,1-1,6.75,6.75,0,0,1,1.91-.74,13.89,13.89,0,0,1,2.92-.33V55.2a2.44,2.44,0,0,0-.47-1.64,1.73,1.73,0,0,0-1.38-.54,3,3,0,0,0-1,.16,4.66,4.66,0,0,0-.73.33l-.55.33a.92.92,0,0,1-.51.15.61.61,0,0,1-.37-.11,1,1,0,0,1-.25-.29Zm5.7,4.32a13.61,13.61,0,0,0-1.94.19,5.5,5.5,0,0,0-1.28.37,1.69,1.69,0,0,0-.71.53,1.17,1.17,0,0,0-.21.68,1.48,1.48,0,0,0,.12.61,1.12,1.12,0,0,0,.32.42,1.29,1.29,0,0,0,.48.24,2.3,2.3,0,0,0,.61.08,3.09,3.09,0,0,0,1.44-.31,4.53,4.53,0,0,0,1.17-.92Z" transform="translate(-34.44 -46.88)"/><path d="M1156.1,51.85v.8q0,.4-.48.49l-1,.17a3.13,3.13,0,0,1,.26,1.29,3,3,0,0,1-1.11,2.4,3.67,3.67,0,0,1-1.24.66,5.1,5.1,0,0,1-1.56.23,5.45,5.45,0,0,1-.62,0l-.59-.09a1.42,1.42,0,0,0-.43.36.66.66,0,0,0-.14.39.52.52,0,0,0,.29.49,2.27,2.27,0,0,0,.76.23,9.62,9.62,0,0,0,1.08.09l1.24.07a11.8,11.8,0,0,1,1.24.17,3.58,3.58,0,0,1,1.08.38,2,2,0,0,1,1.05,1.89,2.74,2.74,0,0,1-.33,1.29,3.46,3.46,0,0,1-1,1.12,4.94,4.94,0,0,1-1.52.79,6.57,6.57,0,0,1-2,.29,8,8,0,0,1-2-.22,4.68,4.68,0,0,1-1.41-.6,2.56,2.56,0,0,1-.84-.86,2.06,2.06,0,0,1-.28-1,1.79,1.79,0,0,1,.46-1.23,3,3,0,0,1,1.24-.8,1.74,1.74,0,0,1-.67-.55,1.53,1.53,0,0,1-.25-.92,1.69,1.69,0,0,1,.33-.94,2.58,2.58,0,0,1,1-.83,3.25,3.25,0,0,1-1.2-1.12,3,3,0,0,1-.44-1.62,3.11,3.11,0,0,1,.29-1.37,3,3,0,0,1,.83-1,3.79,3.79,0,0,1,1.25-.66,5.22,5.22,0,0,1,1.58-.23,4.62,4.62,0,0,1,2.3.55Zm-2.16,10.33a.76.76,0,0,0-.2-.54,1.3,1.3,0,0,0-.52-.32,3.86,3.86,0,0,0-.77-.17q-.44-.05-.93-.08l-1,0q-.51,0-1-.09a2.65,2.65,0,0,0-.78.6,1.19,1.19,0,0,0-.31.81,1.07,1.07,0,0,0,.16.56,1.31,1.31,0,0,0,.48.45,2.85,2.85,0,0,0,.83.3,5.81,5.81,0,0,0,1.22.11,4.11,4.11,0,0,0,2.13-.44A1.3,1.3,0,0,0,1153.94,62.18Zm-3-5.69a2,2,0,0,0,1.5-.51,1.82,1.82,0,0,0,.5-1.33,1.78,1.78,0,0,0-.5-1.33,2.53,2.53,0,0,0-3,0,1.77,1.77,0,0,0-.5,1.33,2,2,0,0,0,.13.74,1.63,1.63,0,0,0,.38.58,1.7,1.7,0,0,0,.63.38A2.54,2.54,0,0,0,1151,56.49Z" transform="translate(-34.44 -46.88)"/><path d="M1162,51.32a5.42,5.42,0,0,1,2,.37,4.4,4.4,0,0,1,1.56,1.05,4.67,4.67,0,0,1,1,1.65,7,7,0,0,1,0,4.36,4.71,4.71,0,0,1-1,1.66,4.36,4.36,0,0,1-1.56,1.05,5.86,5.86,0,0,1-4.1,0,4.4,4.4,0,0,1-1.57-1.05,4.67,4.67,0,0,1-1-1.66,7,7,0,0,1,0-4.36,4.62,4.62,0,0,1,1-1.65,4.44,4.44,0,0,1,1.57-1.05A5.45,5.45,0,0,1,1162,51.32Zm0,8.83a2.38,2.38,0,0,0,2.05-.93,4.43,4.43,0,0,0,.68-2.65,4.48,4.48,0,0,0-.68-2.65A2.36,2.36,0,0,0,1162,53a2.4,2.4,0,0,0-2.08.94,4.46,4.46,0,0,0-.68,2.65,4.41,4.41,0,0,0,.68,2.65A2.41,2.41,0,0,0,1162,60.15Z" transform="translate(-34.44 -46.88)"/><path d="M1171.06,52.83a6.51,6.51,0,0,1,.69-.61,4.53,4.53,0,0,1,.75-.48,4,4,0,0,1,.85-.31,4.14,4.14,0,0,1,1-.11,3.63,3.63,0,0,1,1.47.28,3,3,0,0,1,1.07.79,3.42,3.42,0,0,1,.66,1.23,5.34,5.34,0,0,1,.22,1.57v6.49h-2.14V55.19a2.43,2.43,0,0,0-.48-1.6,1.77,1.77,0,0,0-1.44-.57,2.78,2.78,0,0,0-1.33.33,4.57,4.57,0,0,0-1.16.9v7.43h-2.15V51.48h1.3a.53.53,0,0,1,.56.41Z" transform="translate(-34.44 -46.88)"/><path d="M1180,52.9a5.84,5.84,0,0,1,4.12-1.61,4,4,0,0,1,1.57.29,3.13,3.13,0,0,1,1.15.81,3.55,3.55,0,0,1,.71,1.23,4.87,4.87,0,0,1,.25,1.58v6.48h-1a.93.93,0,0,1-.47-.1.73.73,0,0,1-.27-.38l-.21-.83a9.43,9.43,0,0,1-.77.63,4.87,4.87,0,0,1-.79.46,3.84,3.84,0,0,1-.87.29,5.11,5.11,0,0,1-1,.1,3.79,3.79,0,0,1-1.16-.17,2.53,2.53,0,0,1-.92-.52,2.42,2.42,0,0,1-.62-.85,3,3,0,0,1-.23-1.2,2.32,2.32,0,0,1,.32-1.15,2.87,2.87,0,0,1,1-1,6.75,6.75,0,0,1,1.91-.74,13.89,13.89,0,0,1,2.92-.33V55.2a2.44,2.44,0,0,0-.47-1.64,1.73,1.73,0,0,0-1.38-.54,3,3,0,0,0-1,.16,4.71,4.71,0,0,0-.73.33l-.55.33a.92.92,0,0,1-.51.15.61.61,0,0,1-.37-.11,1,1,0,0,1-.25-.29Zm5.7,4.32a13.64,13.64,0,0,0-1.94.19,5.48,5.48,0,0,0-1.28.37,1.69,1.69,0,0,0-.71.53,1.17,1.17,0,0,0-.21.68,1.5,1.5,0,0,0,.11.61,1.13,1.13,0,0,0,.32.42,1.3,1.3,0,0,0,.48.24,2.3,2.3,0,0,0,.6.08,3.09,3.09,0,0,0,1.45-.31,4.53,4.53,0,0,0,1.17-.92Z" transform="translate(-34.44 -46.88)"/><path d="M1192.51,46.88v14.8h-2.15V46.88Z" transform="translate(-34.44 -46.88)"/><path d="M1202.19,53a5.37,5.37,0,0,1,1.46-1.21,3.79,3.79,0,0,1,1.89-.46,3.48,3.48,0,0,1,1.56.35,3.35,3.35,0,0,1,1.2,1,4.86,4.86,0,0,1,.78,1.64,8.24,8.24,0,0,1,.27,2.23,7,7,0,0,1-.3,2.1,5.14,5.14,0,0,1-.87,1.69,4.08,4.08,0,0,1-1.38,1.12,4,4,0,0,1-1.83.4,3.6,3.6,0,0,1-1.52-.29,4,4,0,0,1-1.14-.8v4.33h-2.15V51.48h1.3a.53.53,0,0,1,.56.41Zm.11,6.16a2.58,2.58,0,0,0,1,.81,2.91,2.91,0,0,0,1.18.24,2.34,2.34,0,0,0,2-.92,4.46,4.46,0,0,0,.7-2.74,7,7,0,0,0-.16-1.6,3.13,3.13,0,0,0-.46-1.08,1.78,1.78,0,0,0-.73-.61,2.38,2.38,0,0,0-1-.19,2.71,2.71,0,0,0-1.42.35,4,4,0,0,0-1.11,1Z" transform="translate(-34.44 -46.88)"/><path d="M1211.19,52.9a5.84,5.84,0,0,1,4.12-1.61,4,4,0,0,1,1.56.29,3.13,3.13,0,0,1,1.15.81,3.58,3.58,0,0,1,.71,1.23,4.87,4.87,0,0,1,.25,1.58v6.48h-1a.93.93,0,0,1-.47-.1.73.73,0,0,1-.27-.38l-.21-.83a9.28,9.28,0,0,1-.77.63,4.79,4.79,0,0,1-.79.46,3.84,3.84,0,0,1-.87.29,5.13,5.13,0,0,1-1,.1,3.8,3.8,0,0,1-1.16-.17,2.53,2.53,0,0,1-.92-.52,2.45,2.45,0,0,1-.62-.85,3,3,0,0,1-.22-1.2A2.32,2.32,0,0,1,1211,58a2.88,2.88,0,0,1,1-1,6.75,6.75,0,0,1,1.91-.74,13.89,13.89,0,0,1,2.92-.33V55.2a2.44,2.44,0,0,0-.47-1.64A1.73,1.73,0,0,0,1215,53a3,3,0,0,0-1,.16,4.66,4.66,0,0,0-.73.33l-.55.33a.92.92,0,0,1-.51.15.61.61,0,0,1-.37-.11,1,1,0,0,1-.25-.29Zm5.7,4.32a13.61,13.61,0,0,0-1.94.19,5.5,5.5,0,0,0-1.28.37,1.69,1.69,0,0,0-.71.53,1.17,1.17,0,0,0-.21.68,1.48,1.48,0,0,0,.12.61,1.12,1.12,0,0,0,.32.42,1.29,1.29,0,0,0,.48.24,2.3,2.3,0,0,0,.61.08,3.09,3.09,0,0,0,1.44-.31,4.53,4.53,0,0,0,1.17-.92Z" transform="translate(-34.44 -46.88)"/><path d="M1224.62,61.84a2.58,2.58,0,0,1-2-.72,2.79,2.79,0,0,1-.69-2V53.17h-1.12a.45.45,0,0,1-.31-.12.44.44,0,0,1-.13-.35v-.87l1.65-.24.47-2.95a.57.57,0,0,1,.17-.28.47.47,0,0,1,.32-.1h1.1v3.35h4.5l.48-3a.52.52,0,0,1,.16-.28.47.47,0,0,1,.32-.1h1.1v3.35h2.83v1.55h-2.83V59a1.19,1.19,0,0,0,.27.84.94.94,0,0,0,.72.29,1.32,1.32,0,0,0,.44-.06,1.92,1.92,0,0,0,.31-.14l.23-.14a.31.31,0,0,1,.17-.06.28.28,0,0,1,.17,0,.6.6,0,0,1,.13.16l.64,1a3.6,3.6,0,0,1-1.18.67,4.21,4.21,0,0,1-1.4.24,2.58,2.58,0,0,1-2-.72,2.81,2.81,0,0,1-.68-2V53.17h-4.42V59a1.19,1.19,0,0,0,.27.84.94.94,0,0,0,.72.29,1.27,1.27,0,0,0,.43-.06,1.93,1.93,0,0,0,.31-.14l.23-.14a.31.31,0,0,1,.47.14l.64,1a3.49,3.49,0,0,1-1.18.67A4.25,4.25,0,0,1,1224.62,61.84Z" transform="translate(-34.44 -46.88)"/><path d="M1236.71,56.75a5.08,5.08,0,0,0,.27,1.51,3.1,3.1,0,0,0,.61,1.05,2.39,2.39,0,0,0,.92.63,3.32,3.32,0,0,0,1.2.21,3.64,3.64,0,0,0,1.09-.15,5.11,5.11,0,0,0,.8-.32l.58-.32a.87.87,0,0,1,.44-.15.46.46,0,0,1,.4.2l.61.79a3.87,3.87,0,0,1-.86.76,5,5,0,0,1-1,.51,5.76,5.76,0,0,1-1.11.28,7.52,7.52,0,0,1-1.11.08,5.33,5.33,0,0,1-2-.35,4.37,4.37,0,0,1-1.57-1,4.82,4.82,0,0,1-1-1.71,6.79,6.79,0,0,1-.37-2.35,5.74,5.74,0,0,1,.33-2,4.73,4.73,0,0,1,1-1.6,4.51,4.51,0,0,1,1.52-1.07,5,5,0,0,1,2-.4,4.85,4.85,0,0,1,1.74.3,3.82,3.82,0,0,1,1.38.9,4.12,4.12,0,0,1,.91,1.45,5.44,5.44,0,0,1,.33,1.94,1.37,1.37,0,0,1-.11.67.44.44,0,0,1-.4.17Zm5.13-1.32a3.18,3.18,0,0,0-.15-1,2.37,2.37,0,0,0-.46-.81,2.08,2.08,0,0,0-.75-.54,2.54,2.54,0,0,0-1-.19,2.48,2.48,0,0,0-1.84.67,3.25,3.25,0,0,0-.85,1.88Z" transform="translate(-34.44 -46.88)"/><path d="M1247.8,53.37a4.51,4.51,0,0,1,1.16-1.52,2.49,2.49,0,0,1,1.63-.56,2.46,2.46,0,0,1,.62.08,1.73,1.73,0,0,1,.52.23l-.15,1.62a.41.41,0,0,1-.12.24.36.36,0,0,1-.23.06,2.42,2.42,0,0,1-.43-.06,3.06,3.06,0,0,0-.59-.05,2.25,2.25,0,0,0-.79.13,1.91,1.91,0,0,0-.62.38,2.57,2.57,0,0,0-.49.61,6,6,0,0,0-.39.82v6.34h-2.15V51.48H1247a.68.68,0,0,1,.47.13.77.77,0,0,1,.18.44Z" transform="translate(-34.44 -46.88)"/><path d="M1255.16,52.83a6.51,6.51,0,0,1,.69-.61,4.53,4.53,0,0,1,.75-.48,4,4,0,0,1,.85-.31,4.14,4.14,0,0,1,1-.11,3.63,3.63,0,0,1,1.47.28,3,3,0,0,1,1.07.79,3.42,3.42,0,0,1,.66,1.23,5.34,5.34,0,0,1,.22,1.57v6.49h-2.14V55.19a2.43,2.43,0,0,0-.48-1.6,1.77,1.77,0,0,0-1.44-.57,2.78,2.78,0,0,0-1.33.33,4.57,4.57,0,0,0-1.16.9v7.43h-2.15V51.48h1.3a.53.53,0,0,1,.56.41Z" transform="translate(-34.44 -46.88)"/><path d="M482.24,408.31a1.59,1.59,0,0,1-1.61,1.61,1.53,1.53,0,0,1-1.57-1.55,1.58,1.58,0,0,1,1.6-1.62A1.53,1.53,0,0,1,482.24,408.31Zm-2.53.06a1,1,0,0,0,.94,1,1,1,0,0,0,.95-1,.94.94,0,0,0-.95-1A1,1,0,0,0,479.71,408.37Z" transform="translate(-34.44 -46.88)"/><circle class="cls-1" cx="1111.69" cy="194.33" r="24.34"/><line class="cls-1" x1="1101.89" y1="172.05" x2="1253.78" y2="21.98"/><line class="cls-1" x1="1123.25" y1="215.74" x2="1336.49" y2="147.16"/><circle class="cls-1" cx="1305.32" cy="77.82" r="76"/></g><g id="Layer_2" data-name="Layer 2"><path class="cls-2" d="M264,267.55c-5.85,27.17-10.64,57.25-29.25,61.58s-18.61,57.25-18.61,57.25,4.43,46-54.07,40.77-71.8-7.81-71.8-31.22S116,344.74,116,344.74s35.46-19.08,12.41-46-62.93-13.88-62.93-13.88S19.35,297,42.4,261.48,95.58,186,105.33,186s8.86-32.09,8.86-32.09,3.55-32.09,51.41-50.31c0,0,53.18-19.95,65.59-18.21s31.91,6.94,23.93,25.15-8,36.43-1.77,40.77,13.3-13,13.3-13,14.18-18.21,14.18,16.48C280.83,154.79,281.72,185.15,264,267.55Z" transform="translate(-34.44 -46.88)"/><line class="cls-3" x1="110.94" y1="88.16" x2="115.61" y2="113.49"/><line class="cls-3" x1="30.94" y1="212.16" x2="54.94" y2="214.16"/><line class="cls-3" x1="129.27" y1="227.99" x2="130.27" y2="249.49"/><line class="cls-3" x1="75.27" y1="174.49" x2="65.27" y2="194.49"/><line class="cls-3" x1="182.27" y1="131.49" x2="192.27" y2="155.99"/><line class="cls-3" x1="132.27" y1="152.99" x2="155.77" y2="147.99"/><line class="cls-3" x1="173.77" y1="73.49" x2="168.27" y2="96.99"/><line class="cls-3" x1="170.77" y1="252.99" x2="197.77" y2="232.49"/><line class="cls-3" x1="104.77" y1="294.49" x2="102.77" y2="329.49"/><line class="cls-3" x1="133.27" y1="284.99" x2="155.27" y2="289.99"/><line class="cls-3" x1="143.77" y1="358.99" x2="134.77" y2="322.99"/><line class="cls-3" x1="78.27" y1="348.49" x2="94.27" y2="361.49"/><line class="cls-3" x1="166.77" y1="191.99" x2="163.77" y2="209.99"/><line class="cls-3" x1="108.27" y1="197.49" x2="123.77" y2="181.99"/><line class="cls-3" x1="241.27" y1="155.99" x2="218.77" y2="137.99"/><line class="cls-3" x1="215.27" y1="99.49" x2="214.77" y2="123.49"/><line class="cls-3" x1="179.77" y1="40.99" x2="193.27" y2="58.49"/><line class="cls-3" x1="63.27" y1="141.99" x2="82.27" y2="156.99"/><line class="cls-3" x1="80.77" y1="241.49" x2="96.77" y2="225.99"/><line class="cls-3" x1="142.27" y1="113.49" x2="148.77" y2="127.49"/><line class="cls-3" x1="193.27" y1="194.99" x2="209.27" y2="194.49"/><path class="cls-2" d="M714.37,267.55c-5.85,27.17-10.64,57.25-29.25,61.58s-18.61,57.25-18.61,57.25,4.43,46-54.07,40.77-71.8-7.81-71.8-31.22,25.7-51.17,25.7-51.17,35.46-19.08,12.41-46-62.93-13.88-62.93-13.88-46.09,12.14-23-23.42S546,186,555.7,186s8.86-32.09,8.86-32.09,3.55-32.09,51.41-50.31c0,0,53.18-19.95,65.59-18.21s31.91,6.94,23.93,25.15-8,36.43-1.77,40.77,13.3-13,13.3-13,14.18-18.21,14.18,16.48C731.21,154.79,732.09,185.15,714.37,267.55Z" transform="translate(-34.44 -46.88)"/><line class="cls-3" x1="561.32" y1="88.16" x2="565.98" y2="113.49"/><line class="cls-3" x1="481.32" y1="212.16" x2="505.32" y2="214.16"/><line class="cls-3" x1="579.65" y1="227.99" x2="580.65" y2="249.49"/><line class="cls-3" x1="525.65" y1="174.49" x2="515.65" y2="194.49"/><line class="cls-3" x1="632.65" y1="131.49" x2="642.65" y2="155.99"/><line class="cls-3" x1="582.65" y1="152.99" x2="606.15" y2="147.99"/><line class="cls-3" x1="624.15" y1="73.49" x2="618.65" y2="96.99"/><line class="cls-3" x1="621.15" y1="252.99" x2="648.15" y2="232.49"/><line class="cls-3" x1="555.15" y1="294.49" x2="553.15" y2="329.49"/><line class="cls-3" x1="583.65" y1="284.99" x2="605.65" y2="289.99"/><line class="cls-3" x1="594.15" y1="358.99" x2="585.15" y2="322.99"/><line class="cls-3" x1="528.65" y1="348.49" x2="544.65" y2="361.49"/><line class="cls-3" x1="617.15" y1="191.99" x2="614.15" y2="209.99"/><line class="cls-3" x1="558.65" y1="197.49" x2="574.15" y2="181.99"/><line class="cls-3" x1="691.65" y1="155.99" x2="669.15" y2="137.99"/><line class="cls-3" x1="665.65" y1="99.49" x2="665.15" y2="123.49"/><line class="cls-3" x1="630.15" y1="40.99" x2="643.65" y2="58.49"/><line class="cls-3" x1="513.65" y1="141.99" x2="532.65" y2="156.99"/><line class="cls-3" x1="531.15" y1="241.49" x2="547.15" y2="225.99"/><line class="cls-3" x1="592.65" y1="113.49" x2="599.15" y2="127.49"/><line class="cls-3" x1="643.65" y1="194.99" x2="659.65" y2="194.49"/><line class="cls-3" x1="492.65" y1="212.49" x2="494.65" y2="196.49"/><line class="cls-3" x1="566.65" y1="190.16" x2="553.32" y2="177.49"/><line class="cls-3" x1="522.98" y1="179.83" x2="536.65" y2="189.16"/><line class="cls-3" x1="521.65" y1="148.49" x2="511.65" y2="161.16"/><line class="cls-3" x1="563.32" y1="99.49" x2="588.98" y2="98.49"/><line class="cls-3" x1="594.98" y1="119.49" x2="577.98" y2="122.83"/><line class="cls-3" x1="590.32" y1="150.49" x2="587.98" y2="134.16"/><line class="cls-3" x1="634.98" y1="138.83" x2="620.65" y2="149.83"/><line class="cls-3" x1="620.98" y1="83.83" x2="604.65" y2="73.49"/><line class="cls-3" x1="636.32" y1="49.16" x2="621.32" y2="61.49"/><line class="cls-3" x1="665.32" y1="111.83" x2="639.32" y2="107.83"/><line class="cls-3" x1="678.65" y1="145.16" x2="664.65" y2="166.83"/><line class="cls-3" x1="650.98" y1="194.83" x2="650.65" y2="174.83"/><line class="cls-3" x1="614.98" y1="201.83" x2="636.65" y2="209.16"/><line class="cls-3" x1="630.98" y1="245.49" x2="614.32" y2="226.49"/><line class="cls-3" x1="579.65" y1="237.49" x2="598.65" y2="239.83"/><line class="cls-3" x1="539.65" y1="232.83" x2="527.65" y2="212.16"/><line class="cls-3" x1="593.98" y1="287.16" x2="597.65" y2="263.16"/><line class="cls-3" x1="554.32" y1="310.16" x2="578.65" y2="310.49"/><line class="cls-3" x1="589.32" y1="340.16" x2="618.32" y2="331.83"/><line class="cls-3" x1="534.98" y1="353.49" x2="527.65" y2="365.16"/><path class="cls-2" d="M1197.65,267.55c-5.85,27.17-10.64,57.25-29.25,61.58s-18.61,57.25-18.61,57.25,4.43,46-54.07,40.77-71.8-7.81-71.8-31.22,25.7-51.17,25.7-51.17,35.46-19.08,12.41-46-62.93-13.88-62.93-13.88S953,297,976.06,261.48,1029.24,186,1039,186s8.86-32.09,8.86-32.09,3.55-32.09,51.41-50.31c0,0,53.18-19.95,65.59-18.21s31.91,6.94,23.93,25.15-8,36.43-1.77,40.77,13.3-13,13.3-13,14.18-18.21,14.18,16.48C1214.49,154.79,1215.38,185.15,1197.65,267.55Z" transform="translate(-34.44 -46.88)"/><line class="cls-4" x1="1003.93" y1="365.49" x2="1010.27" y2="355.49"/><path class="cls-4" d="M1054.38,404l11.33-5.33L1065,392l-4.67-6,2-8-6.33-6.33-13.67,1L1037,382v10.67l7.67,9.67c2.67-.67,9.67,1.67,9.67,1.67v4.67c0,3,5.67,10.33,5.67,10.33l-14.67,2.67-7-9.33-10.67.33" transform="translate(-34.44 -46.88)"/><line class="cls-4" x1="993.27" y1="331.49" x2="1002.6" y2="335.16"/><path class="cls-4" d="M1041,282.88l8-6.17c-2.67-.33-6.67-5.33-7-6.67s-7-5.67-7-5.67.33-10,1.33-11,4.33-2.33,9-1S1058,254,1058,254l3.33-8L1054,234l9.67-9.67,9,4.33-.67,13.67,5.67,4.33-1.33,13c-1.67,0-10.33,7.33-10.33,7.33l-12.67,10.33,8.33,11.33H1068l5.33-11,15,1.33v12s-6.33,3-8.33,5-2,5.67-2,7.33,5,9,5,9l-10.67,10,1.33,8.33c-2.33,2-4.33,11.67-4.33,11.67l5.67,8.33-2,6.67,2.33,5-6,13.33-7,2.33" transform="translate(-34.44 -46.88)"/><line class="cls-4" x1="1014.6" y1="229.83" x2="1018.93" y2="230.49"/><path class="cls-4" d="M1035,264.38l-12.67,3.88s-1.87,8.88-1,13.25" transform="translate(-34.44 -46.88)"/><path class="cls-4" d="M1004.63,282.38s-1.75-7.87-3.25-10.75l-1.5-2.87-3-.12s-7.25,7-9.12,7.75c0,0,1.5,6.63,1.5,9" transform="translate(-34.44 -46.88)"/><polyline class="cls-4" points="962.43 221.74 953.18 208.12 959.06 198.12 954.81 194.62"/><path class="cls-4" d="M993.5,245l4.75-.25s9.5,9.63,9.62,11.25l-8,12.75" transform="translate(-34.44 -46.88)"/><polyline class="cls-4" points="973.43 209.12 980.18 209.62 987.93 221.37"/><path class="cls-4" d="M1014.63,256.5l9.38-9.87s-1.75-9.12-2.25-10.62-15.37-2.5-15.37-2.5-7.5,8.63-8.12,11.25" transform="translate(-34.44 -46.88)"/><path class="cls-4" d="M1006.38,233.5s-3.25-10.62-3.5-11.62" transform="translate(-34.44 -46.88)"/><path class="cls-4" d="M1021.75,236s4.25-3.75,5.5-3.87,10.5-.5,11-.37,4.13,4.63,4.75,4.63,11-2.33,11-2.33" transform="translate(-34.44 -46.88)"/><path class="cls-4" d="M1043,236.38s-.62,10.38,0,15.25" transform="translate(-34.44 -46.88)"/><line class="cls-4" x1="989.56" y1="199.74" x2="1001.93" y2="206.49"/><polyline class="cls-4" points="1003.81 184.87 1005.06 177.62 1008.93 170.24 1005.18 164.99 997.18 159.62 985.81 167.12 991.81 185.74"/><line class="cls-4" x1="985.81" y1="167.12" x2="978.31" y2="162.99"/><polyline class="cls-4" points="997.18 159.62 997.06 146.99 995.81 143.24"/><polyline class="cls-4" points="1008.93 170.24 1026.93 170.99 1029.93 161.24 1020.43 151.87 1018.31 142.87 1007.93 137.87"/><polyline class="cls-4" points="1018.31 142.87 1028.43 136.74 1039.43 145.37 1040.68 157.62 1029.93 161.24"/><polyline class="cls-4" points="1040.68 157.62 1051.56 161.49 1054.56 170.87 1047.31 180.74 1038.27 181.83"/><line class="cls-4" x1="1029.27" y1="177.49" x2="1026.93" y2="170.99"/><path class="cls-4" d="M1089,217.75l10.38,3,9.5-3,8.13,12.13s-2.25,7.13-2.75,8.88l-8,.13-10.75,9.38-6.25-4.75-11.54,3.21" transform="translate(-34.44 -46.88)"/><polyline class="cls-4" points="1054.81 196.62 1054.18 188.12 1047.31 180.74"/><polyline class="cls-4" points="1061.06 201.37 1061.81 205.87 1050.93 215.74 1041.93 212.83"/><polyline class="cls-4" points="1050.93 215.74 1055.68 227.99 1053.93 232.16"/><polyline class="cls-4" points="1055.68 227.99 1069.18 227.24 1072.81 214.62 1079.81 213.24 1094.43 221.99 1101.1 212.83 1114.93 211.83 1120.27 220.16 1132.77 219.49 1136.6 208.33 1127.93 202.33 1116.77 205.83 1111.77 195.83 1101.6 194.49 1096.27 198.83 1085.93 197.99 1079.81 191.87"/><line class="cls-4" x1="1085.93" y1="197.99" x2="1079.81" y2="213.24"/><line class="cls-4" x1="1096.27" y1="198.83" x2="1101.1" y2="212.83"/><line class="cls-4" x1="1116.77" y1="205.83" x2="1114.93" y2="211.83"/><polyline class="cls-4" points="1127.93 202.33 1131.93 192.33 1130.43 188.49 1120.1 185.33 1111.77 195.83"/><polyline class="cls-4" points="1101.6 194.49 1100.43 181.66 1093.93 178.66 1082.56 182.99"/><polyline class="cls-4" points="1093.93 178.66 1091.1 166.66 1078.27 164.66 1074.43 170.87"/><polyline class="cls-4" points="1078.27 164.66 1077.1 155.66 1061.77 148.49 1051.56 161.49"/><polyline class="cls-4" points="1091.1 166.66 1098.27 160.66 1107.93 163.66 1112.43 160.16 1112.93 150.99 1125.43 145.83 1132.77 156.99 1128.27 164.66 1127.93 169.99 1117.1 177.83 1109.6 174.83 1107.93 163.66"/><line class="cls-4" x1="1109.6" y1="174.83" x2="1100.43" y2="181.66"/><line class="cls-4" x1="1117.1" y1="177.83" x2="1120.1" y2="185.33"/><line class="cls-4" x1="1061.81" y1="205.87" x2="1072.81" y2="214.62"/><path class="cls-4" d="M1167.21,203.88h10l6-9.67,6.33-.17,10.33,10.33-5,12.67-8.17,2.5s-6-12.17-9.5-15.67" transform="translate(-34.44 -46.88)"/><line class="cls-4" x1="1165.43" y1="157.49" x2="1174.93" y2="152.99"/><path class="cls-4" d="M1194.88,217s10.17,5.33,11,6" transform="translate(-34.44 -46.88)"/><polyline class="cls-4" points="1171.6 179.49 1163.1 197.99 1152.43 194.33 1147.43 178.83 1152.27 172.66"/><path class="cls-4" d="M1181.88,225.71s-10.83,1-11,1.67-6,8-6,8" transform="translate(-34.44 -46.88)"/><path class="cls-4" d="M1171,255.21l7.83-2.83,1-6.17s3.33-3.83,7-5" transform="translate(-34.44 -46.88)"/><line class="cls-4" x1="1163.1" y1="197.99" x2="1166.93" y2="202.16"/><polyline class="cls-4" points="1164.1 212.66 1152.1 215.99 1144.43 205.49"/><polyline class="cls-4" points="1152.1 215.99 1148.77 222.99 1136.77 222.66 1132.77 219.49"/><polyline class="cls-4" points="1136.77 222.66 1133.93 236.66 1143.93 242.33 1151.27 232.66 1160.1 235.16"/><line class="cls-4" x1="1148.77" y1="222.99" x2="1151.27" y2="232.66"/><polyline class="cls-4" points="1143.93 242.33 1144.1 248.49 1140.43 254.49 1144.77 263.83 1150.93 265.83"/><polyline class="cls-4" points="1144.77 263.83 1137.27 275.33 1139.1 279.16 1137.27 275.33 1125.27 272.49 1124.1 262.99 1128.1 256.66 1140.43 254.49"/><path class="cls-4" d="M1162.54,303.54s-5.5-11.67-8.17-13.33l2.5-4.67-5.17-9.83,3-8.67" transform="translate(-34.44 -46.88)"/><line class="cls-4" x1="1122.43" y1="238.66" x2="1133.93" y2="236.66"/><polyline class="cls-4" points="1119.93 243.33 1109.1 248.33 1103.6 244.33 1103.93 232.16 1117.27 228.83"/><path class="cls-4" d="M1138.38,279s-9-7.5-9.5-10.17c0,0-6.83,12.5-10.83,13.83s-10.33,3.83-10.33,3.83l-1-9.33-3.08-3.08" transform="translate(-34.44 -46.88)"/><polyline class="cls-4" points="1083.6 235.83 1090.6 246.99 1103.6 244.33"/><polyline class="cls-4" points="1109.1 248.33 1109.93 259.16 1124.1 262.99"/><polyline class="cls-4" points="1125.27 272.49 1118.77 279.83 1119.77 285.83 1124.6 289.49"/><polyline class="cls-4" points="1120.77 300.16 1112.27 300.83 1109.27 303.66 1109.27 314.99 1113.77 317.16 1117.1 315.83"/><line class="cls-4" x1="1113.77" y1="317.16" x2="1115.43" y2="318.83"/><polyline class="cls-4" points="1109.27 314.99 1100.93 317.16 1098.43 326.33 1102.27 334.66 1111.93 335.33 1114.77 330.49"/><polyline class="cls-4" points="1111.93 335.33 1114.77 340.66 1109.93 352.33 1101.43 353.33 1095.77 340.99 1102.27 334.66"/><polyline class="cls-4" points="1101.43 353.33 1098.93 356.33 1100.93 364.33 1107.27 365.66"/><polyline class="cls-4" points="1100.93 364.33 1094.1 371.66 1095.77 375.33"/><polyline class="cls-4" points="1094.1 371.66 1087.1 371.66 1081.1 375.83 1081.27 379.99"/><polyline class="cls-4" points="1081.1 375.83 1070.1 373.99 1064.6 380.16 1052.43 371.99 1044.6 377.99 1035.43 367.16 1025.6 372.16 1026.43 377.16"/><polyline class="cls-4" points="1035.43 367.16 1038.1 357.99 1031.27 351.83"/><polyline class="cls-4" points="1038.1 357.99 1045.27 356.16 1049.77 345.66 1047.93 337.49 1034.93 328.83"/><line class="cls-4" x1="1002.6" y1="345.83" x2="990.1" y2="353.33"/><polyline class="cls-4" points="1007.93 325.83 1004.93 314.66 1002.43 314.16"/><polyline class="cls-4" points="1004.93 314.66 1012.6 306.66 1010.93 302.83"/><path class="cls-4" d="M1047,353.54l7,.33,5.33-15.17a19.76,19.76,0,0,0,12.17-4" transform="translate(-34.44 -46.88)"/><polyline class="cls-4" points="1019.6 306.99 1024.77 311.66 1021.6 324.83"/><line class="cls-4" x1="1024.77" y1="311.66" x2="1038.6" y2="310.49"/><polyline class="cls-4" points="1040.93 315.49 1054.77 319.49 1054.93 333.16 1047.93 337.49"/><polyline class="cls-4" points="1054.93 333.16 1067.1 336.33 1068.6 344.49 1067.27 348.33 1062.1 350.99 1049.77 345.66"/><polyline class="cls-4" points="1062.1 350.99 1059.27 362.99 1055.93 363.66 1045.27 356.16"/><line class="cls-4" x1="1055.93" y1="363.66" x2="1052.43" y2="371.99"/><polyline class="cls-4" points="1059.27 362.99 1069.27 366.99 1070.1 373.99"/><polyline class="cls-4" points="1069.27 366.99 1075.6 359.49 1081.93 359.49 1087.1 371.66"/><polyline class="cls-4" points="1081.93 359.49 1085.93 353.99 1098.93 356.33"/><polyline class="cls-4" points="1085.93 353.99 1083.6 345.16 1068.6 344.49"/><polyline class="cls-4" points="1083.6 345.16 1085.77 340.83 1095.77 340.99"/><polyline class="cls-4" points="1085.77 340.83 1082.1 330.16 1073.93 328.83 1067.1 336.33"/><polyline class="cls-4" points="1073.93 328.83 1070.43 317.83 1059.93 312.99 1054.77 319.49"/><polyline class="cls-4" points="1059.93 312.99 1059.6 304.83 1053.77 300.83 1040.6 303.83"/><polyline class="cls-4" points="1053.77 300.83 1053.43 285.49 1039.27 283.83"/><path class="cls-4" d="M1087.88,332.38l3.67-2.83,11.17.83s3.5,8.17,3.5,12.5c0,0-10.83,6.5-12.17,8.83" transform="translate(-34.44 -46.88)"/><path class="cls-4" d="M1104.88,364.71l8.67-6s-2.67-13.33-2.33-14.83-5-1-5-1" transform="translate(-34.44 -46.88)"/><polyline class="cls-4" points="1076.77 296.99 1087.77 294.99 1092.43 300.83 1091.77 309.33 1100.93 317.16"/><polyline class="cls-4" points="1091.77 309.33 1084.6 313.16 1079.1 311.83"/><polyline class="cls-4" points="1084.6 313.16 1087.27 326.33 1082.1 330.16"/><line class="cls-4" x1="1087.27" y1="326.33" x2="1098.43" y2="326.33"/><path class="cls-4" d="M1122.21,341.88l1.67-5.17s6.17-1.67,9.33-5.33,6-10.33,6-10.33l-1-6.33-8.5-3a84.58,84.58,0,0,1-8.83-1.83s-1.83,13.67-12,13.5c0,0,11.83.67,11.83,3.17s.92,7.92,3.17,10.17" transform="translate(-34.44 -46.88)"/><path class="cls-4" d="M1133.21,331.38l8.33,6s-.33,6.83,5.17,10.33" transform="translate(-34.44 -46.88)"/><line class="cls-4" x1="1104.77" y1="274.16" x2="1118.77" y2="279.83"/><line class="cls-4" x1="1103.77" y1="267.83" x2="1109.93" y2="259.16"/><path class="cls-4" d="M1120.88,309.88s0-1.58.31-3.82c.44-3.7,1.47-9.17,3.86-12.18" transform="translate(-34.44 -46.88)"/><path class="cls-4" d="M1121.19,306.06l-8-1.85s-9.67-2.33-9.83-4.17a17.9,17.9,0,0,0-1-4l5.33-9.5" transform="translate(-34.44 -46.88)"/><line class="cls-4" x1="1067.93" y1="249.16" x2="1053.93" y2="244.16"/><polyline class="cls-4" points="1068.93 253.16 1065.1 262.83 1074.43 276.49 1073.43 275.16 1068.27 283.49"/><polyline class="cls-4" points="1065.1 262.83 1054.27 268.49 1048.6 265.49"/><line class="cls-4" x1="1054.27" y1="268.49" x2="1057.1" y2="282.66"/><line class="cls-4" x1="1045.6" y1="249.16" x2="1033.6" y2="241.83"/><line class="cls-4" x1="1043.6" y1="256.49" x2="1032.6" y2="258.33"/><polyline class="cls-4" points="1098.27 160.66 1094.47 148.46 1086.63 146.81 1077.1 155.66"/><polyline class="cls-4" points="1086.63 146.81 1077.56 136.08 1081.48 131.34 1101.48 129.69 1100.86 141.65 1094.47 148.46"/><polyline class="cls-4" points="1100.86 141.65 1111.79 142.06 1112.93 150.99"/><polyline class="cls-4" points="1111.79 142.06 1123.55 131.55 1125.43 145.83"/><polyline class="cls-4" points="1163.35 135.67 1160.67 120.82 1164.38 115.87 1175.72 116.49 1179.03 128.25"/><polyline class="cls-4" points="1175.72 116.49 1180.05 107.91 1176.14 95.66 1164.8 93.19 1160.05 107.21 1164.38 115.87"/><path class="cls-4" d="M1194.49,154.09l-10.93,5.16-1.86,3.3s6,8.25,6,10.93-2.06,11.14-2.06,11.14l12.17-2.06,13.82,5.16" transform="translate(-34.44 -46.88)"/><polyline class="cls-4" points="1153.25 126.6 1140.05 121.23 1137.78 129.07"/><polyline class="cls-4" points="1140.05 121.23 1133.65 112.37 1133.65 104.94 1144.17 102.06 1149.12 112.37"/><polyline class="cls-4" points="1081.48 131.34 1072.2 118.55 1080.45 104.74 1101.89 104.32 1106.64 120.41 1101.48 129.69 1123.55 131.55 1137.78 129.07 1151.18 137.73 1148.3 148.66"/><polyline class="cls-4" points="1077.56 136.08 1067.04 137.73 1060.24 129.07 1063.12 118.35 1072.2 118.55"/><line class="cls-4" x1="1026.93" y1="199.16" x2="1037.6" y2="195.49"/><path class="cls-4" d="M1058,254s7.82,5.1,8,13" transform="translate(-34.44 -46.88)"/><polyline class="cls-4" points="1060.24 129.07 1050.75 131.13 1042.29 122.88 1048.89 111.13 1063.54 111.54 1063.12 118.35"/><polyline class="cls-4" points="1063.54 111.54 1061.68 99.99 1069.93 96.28 1079.83 99.79 1080.45 104.74"/><polyline class="cls-4" points="1048.89 111.13 1042.09 103.09 1047.45 93.6 1055.9 94.22 1061.68 99.99"/><line class="cls-4" x1="1042.29" y1="122.88" x2="1031.78" y2="122.27"/><path class="cls-4" d="M1085.19,178s-10.26,9.7-11.32,14.23" transform="translate(-34.44 -46.88)"/><polyline class="cls-4" points="1067.04 137.73 1061.77 148.49 1045.59 136.29"/><polyline class="cls-4" points="1106.64 120.41 1117.77 117.52 1127.47 124.33 1123.55 131.55"/><polyline class="cls-4" points="1117.77 117.52 1125.2 108.86 1133.65 112.37"/><polyline class="cls-4" points="1101.89 104.32 1109.53 96.9 1120.45 99.17 1125.2 108.86"/><path class="cls-4" d="M1114.27,146.67s5.36-8.46,6-14.64,2.47-4.95,2.47-4.95l12,5.57,9.28,11.14" transform="translate(-34.44 -46.88)"/><polyline class="cls-4" points="1069.93 96.28 1071.79 88.44 1061.89 79.99 1056.11 85.35 1055.9 94.22"/><polyline class="cls-4" points="1026 115.05 1042.09 103.09 1036.73 91.54 1026.62 91.95 1018.78 103.09 1013.83 102.67"/><path class="cls-4" d="M1053.23,150l-5.57,11.14,12.79.82c1.24,1.24,5.77,7.22,5.77,7.22,0,6.6-3.34,14.48-3.34,14.48" transform="translate(-34.44 -46.88)"/><line class="cls-4" x1="1026.62" y1="91.95" x2="1021.67" y2="87.41"/><polyline class="cls-4" points="1036.73 91.54 1037.55 81.64 1049.92 76.07 1056.11 85.35"/><polyline class="cls-4" points="1049.92 76.07 1048.89 63.7 1066.01 61.02 1067.45 74.21 1061.89 79.99"/><polyline class="cls-4" points="1067.45 74.21 1076.53 70.3 1087.05 80.4"/><polyline class="cls-4" points="1066.01 61.02 1070.96 54.62 1083.75 57.3 1076.53 70.3"/><polyline class="cls-4" points="1096.33 83.91 1104.37 71.33 1099.42 59.37 1083.75 57.3 1084.37 49.88"/><polyline class="cls-4" points="1104.37 71.33 1121.49 72.15 1129.94 86.38 1120.45 99.17"/><path class="cls-4" d="M1168.1,151.83" transform="translate(-34.44 -46.88)"/><polyline class="cls-4" points="1121.49 72.15 1133.86 60.4 1140.46 61.02 1148.71 71.33 1142.73 84.73 1129.94 86.38 1144.17 102.06 1149.33 100.61"/><polyline class="cls-4" points="1099.42 59.37 1112.21 51.32 1129.53 55.86 1133.86 60.4"/><line class="cls-4" x1="1112.21" y1="51.32" x2="1109.73" y2="42.25"/><line class="cls-4" x1="1037.55" y1="81.64" x2="1033.63" y2="74.01"/><polyline class="cls-4" points="1129.53 55.86 1133.45 45.55 1132.42 39.15"/><polyline class="cls-4" points="1140.46 61.02 1149.12 54.83 1149.12 53.8 1149.12 47.4 1140.87 40.8 1133.45 45.55"/><line class="cls-4" x1="1149.12" y1="54.83" x2="1156.75" y2="55.86"/><line class="cls-4" x1="1149.12" y1="47.4" x2="1151.39" y2="45.96"/><line class="cls-4" x1="1148.71" y1="71.33" x2="1149.74" y2="73.18"/><line class="cls-4" x1="1142.73" y1="84.73" x2="1148.71" y2="87"/><line class="cls-4" x1="1176.14" y1="95.66" x2="1174.9" y2="87"/><polyline class="cls-4" points="953.31 229.49 943.27 228.33 938.43 237.66"/><polyline class="cls-4" points="943.27 228.33 940.43 216.66 953.18 208.12 946.77 205.16"/><polyline class="cls-5" points="1371.84 113.74 1356.05 102.81 1321.18 113.74 1305.56 82.51 1273.81 78.34 1257.15 91.88 1229.33 89.27"/><polyline class="cls-5" points="1266.68 143.26 1272.25 135.6 1315.45 132.48 1327.09 150.65"/><path class="cls-5" d="M1263.77,136.16" transform="translate(-34.44 -46.88)"/><line class="cls-5" x1="1257.16" y1="91.88" x2="1272.25" y2="135.6"/><line class="cls-5" x1="1321.18" y1="113.74" x2="1315.45" y2="132.48"/><polyline class="cls-5" points="1356.05 102.81 1368.54 71.58 1363.86 59.6 1331.59 49.72 1305.56 82.51"/><polyline class="cls-5" points="1273.81 78.34 1270.17 38.26 1247.93 28"/><polyline class="cls-5" points="1342.58 11.57 1322.22 26.29 1298.8 16.92 1296.62 2.33"/><line class="cls-5" x1="1298.8" y1="16.92" x2="1270.17" y2="38.26"/><line class="cls-5" x1="1322.22" y1="26.29" x2="1331.59" y2="49.72"/><path class="cls-5" d="M1409.29,94c-.52,2.08-11,12.49-11,12.49" transform="translate(-34.44 -46.88)"/><line class="cls-1" x1="1368.54" y1="71.58" x2="1381.07" y2="71.58"/><path d="M1319.08,96.83h0L1316.78,98l-.34-1.34,2.84-1.52h1.5v13h-1.7Z" transform="translate(-34.44 -46.88)"/><path d="M1325.52,108.19v-1.08l1.38-1.34c3.32-3.16,4.82-4.84,4.84-6.8a2.32,2.32,0,0,0-2.58-2.54,4.43,4.43,0,0,0-2.76,1.1l-.56-1.24a5.7,5.7,0,0,1,3.68-1.32,3.66,3.66,0,0,1,4,3.78c0,2.4-1.74,4.34-4.48,7l-1,1v0h5.84v1.46Z" transform="translate(-34.44 -46.88)"/><path d="M1344.42,101.55c0,4.42-1.64,6.86-4.52,6.86-2.54,0-4.26-2.38-4.3-6.68s1.88-6.76,4.52-6.76S1344.42,97.41,1344.42,101.55Zm-7.06.2c0,3.38,1,5.3,2.64,5.3,1.8,0,2.66-2.1,2.66-5.42s-.82-5.3-2.64-5.3C1338.48,96.33,1337.36,98.21,1337.36,101.75Z" transform="translate(-34.44 -46.88)"/><path d="M1351,97.09a2.65,2.65,0,0,1-2.68,2.68,2.55,2.55,0,0,1-2.62-2.58,2.63,2.63,0,0,1,2.66-2.7A2.55,2.55,0,0,1,1351,97.09Zm-4.22.1a1.58,1.58,0,0,0,1.56,1.64,1.62,1.62,0,0,0,1.58-1.72,1.57,1.57,0,0,0-1.58-1.68A1.62,1.62,0,0,0,1346.8,97.19Z" transform="translate(-34.44 -46.88)"/><path class="cls-4" d="M1324.24,127.32s7.54-15.59,25.66-10.39" transform="translate(-34.44 -46.88)"/></g></svg>